<svg width="214" height="206" viewBox="0 0 214 206" fill="none" xmlns="http://www.w3.org/2000/svg">
<g clip-path="url(#clip0_23_3350)">
<g clip-path="url(#clip1_23_3350)">
<path d="M117.767 150.774L150.946 150.739L149.825 153.088L116.636 152.541L117.767 150.774Z" fill="#FFB23A"/>
<path d="M116.687 151.979L150.423 152.424L149.24 154.287L115.504 153.377L116.687 151.979Z" fill="#F9A21B"/>
<path d="M118.327 149.599L150.924 149.575L149.804 151.924L117.196 151.366L118.327 149.599Z" fill="#F9A21B"/>
<path d="M150.353 150.168L153.263 150.114L142.187 180.589L139.278 180.643L150.353 150.168Z" fill="#F5C86C"/>
<path d="M114.254 149.675L118.327 149.599L108.395 178.946L104.902 178.917L114.254 149.675Z" fill="#F5C86C"/>
</g>
<path d="M167.702 144.024L166.216 148.869C161.09 143.594 152.707 141.01 145.679 140.359C138.326 139.494 129.071 139.726 122.098 143.383L121.528 143.344C121.528 143.344 121.396 143.546 121.169 143.89C120.613 144.213 120.074 144.567 119.545 144.946L114.803 147.918L112.038 145.562L105.784 140.236L146.283 126.96L167.702 144.024Z" fill="#BDC6C2"/>
<path d="M167.643 144.069L146.232 127.212L132.285 99.2867L153.317 116.099C153.406 116.176 153.547 116.175 153.68 116.114L167.639 144.076L167.643 144.069Z" fill="#B4B8B6"/>
<path d="M166.041 148.699L160.104 148.031L161.077 146.55L154.166 146.631L155.33 144.859L117.664 145.204C125.995 140.149 134.345 138.852 142.747 139.297C150.786 139.504 160.576 142.679 166.043 148.712L166.041 148.699Z" fill="#C9CFCD"/>
<path d="M157.994 154.1L148.017 181.062L142.187 180.589L154.362 146.601L161.344 146.471L157.994 154.1Z" fill="#C9CFCD"/>
<path d="M154.362 146.601L153.263 150.114L150.353 150.168L146.28 150.244L118.338 150.181L113.101 150.278L114.804 147.918C115.098 147.47 117.084 146.28 117.257 146.002C117.557 145.828 118.502 145.095 118.823 144.933L155.493 144.833L154.362 146.601Z" fill="#F5C86C"/>
<path d="M149.111 164.973L149.107 164.98L148.084 164.922L149.111 164.973Z" fill="#BDC6C2"/>
<path d="M153.991 115.257C154.152 115.381 154.128 115.673 153.94 115.903C153.858 115.998 153.766 116.068 153.673 116.109L152.761 114.282L153.987 115.264L153.991 115.257Z" fill="#CFD4D3"/>
<path d="M152.765 114.275L153.678 116.103C153.544 116.164 153.404 116.165 153.315 116.088L132.283 99.2759L131.754 98.2115C131.871 98.0747 131.911 97.8867 131.856 97.7015C131.823 97.596 131.76 97.508 131.679 97.446C131.699 97.4588 131.734 97.4629 131.753 97.4757L131.773 97.4885L152.77 114.269L152.765 114.275Z" fill="#CFD4D3"/>
<path d="M146.232 127.212L105.673 140.297L104.205 137.36C106.65 132.32 109.484 125.711 110.586 120.05C111.562 115.078 111.948 109.998 111.836 104.898L131.261 98.4651L132.286 99.2867L146.232 127.212Z" fill="#D7DDDB"/>
<path d="M152.766 114.275L131.768 97.495L131.749 97.4822C131.749 97.4822 131.703 97.4523 131.675 97.4525C131.571 97.3841 131.454 97.3353 131.316 97.347L113.207 61.093L134.562 78.1641C134.614 78.1982 134.682 78.2237 134.748 78.221L152.761 114.282L152.766 114.275Z" fill="#B4B8B6"/>
<path d="M105.402 178.958L101.303 178.723C104.031 173.124 107.652 167.667 112.186 163.684C112.677 163.234 113.754 152.39 114.297 152.002L112.779 164.255C110.307 168.16 106.838 176.56 105.402 178.958Z" fill="#C9CFCD"/>
<path d="M105.913 139.936L114.803 147.918C114.26 148.306 112.699 164.397 112.208 164.847C107.673 168.831 104.035 173.118 101.307 178.716L97.2536 178.483L105.261 140.942L105.923 139.934L105.913 139.936Z" fill="#BDC6C2"/>
<path d="M105.921 139.923L97.245 178.496L92.9923 169.978C94.3365 165.537 94.4745 162.053 92.9735 157.111C90.9339 150.382 56.6597 85.7693 51.8152 75.2898L56.9617 42.47L72.0824 73.04C72.033 73.0727 72.0031 73.1182 71.9732 73.1637C71.8878 73.2937 71.8609 73.4622 71.9117 73.6259C71.9998 73.8885 72.2727 74.0399 72.5463 73.9776L90.9509 110.707L90.8411 110.746C90.7248 110.781 90.624 110.864 90.5599 110.962C90.4702 111.098 90.4411 111.256 90.4941 111.43C90.5866 111.715 90.9642 111.422 91.4279 111.681L101.613 131.883L104.124 137.057L105.924 139.934L105.921 139.923Z" fill="#898F8C"/>
<path d="M132.279 99.2824L131.255 98.4609L131.503 98.3815C131.608 98.3484 131.692 98.2917 131.754 98.2115L132.284 99.2759L132.279 99.2824Z" fill="#D2DBD7"/>
<path d="M131.851 97.7077C131.907 97.8926 131.86 98.0762 131.749 98.217L131.386 97.4953C131.483 97.4472 131.591 97.4249 131.675 97.4524C131.759 97.5078 131.825 97.6065 131.851 97.7077Z" fill="#F1F7F5"/>
<path d="M131.386 97.4954L131.749 98.218C131.698 98.296 131.604 98.3549 131.498 98.388L131.251 98.4673L131.088 98.3325C130.927 98.2085 130.951 97.917 131.133 97.6827C131.206 97.6002 131.287 97.5328 131.373 97.4869L131.386 97.4954Z" fill="#F1F7F5"/>
<path d="M131.255 98.4608L111.83 104.894C111.831 104.523 111.809 104.145 111.8 103.776L131.159 97.374C131.211 97.3521 131.26 97.3474 131.306 97.3493L131.376 97.4977C131.283 97.5393 131.202 97.6067 131.136 97.6935C130.954 97.9278 130.934 98.2127 131.09 98.3433L131.253 98.4781L131.255 98.4608Z" fill="#F1F7F5"/>
<path d="M131.317 97.3469C131.454 97.3352 131.582 97.3817 131.675 97.4521C131.591 97.4247 131.487 97.4405 131.387 97.495L131.317 97.3469Z" fill="#F1F7F5"/>
<path d="M113.207 61.093L131.316 97.347C131.316 97.347 131.221 97.3498 131.17 97.3717L111.811 103.774C111.376 91.6118 108.197 79.3774 103.818 68.2733C103.272 66.909 102.712 65.5362 102.137 64.1721L112.704 60.6692L113.222 61.0843L113.207 61.093Z" fill="#D7DDDB"/>
<path d="M92.9964 169.972L50.0893 79.8519L54.8828 55.8969C59.7272 66.3764 95.9319 146.435 97.978 153.169C99.479 158.11 99.341 161.594 92.9921 169.978L92.9964 169.972Z" fill="#A3AAA7"/>
<path d="M104.203 137.349L91.3727 111.664L111.834 104.887C111.946 109.988 111.56 115.067 110.584 120.039C109.486 125.693 106.652 132.302 104.203 137.349Z" fill="#C9CFCD"/>
<path d="M135.237 77.3223C135.397 77.4463 135.373 77.7378 135.181 77.9743C135.061 78.1283 134.887 78.2093 134.746 78.2103L133.688 76.0813L135.23 77.318L135.237 77.3223Z" fill="#CFD4D3"/>
<path d="M133.7 76.0899L134.759 78.2188C134.688 78.228 134.621 78.2025 134.573 78.1619L113.218 61.0908L112.969 60.5919L112.977 60.5789C113.268 60.4906 113.43 60.1874 113.337 59.9032C113.32 59.8451 113.287 59.7957 113.259 59.7398L133.709 76.0769L133.7 76.0899Z" fill="#CFD4D3"/>
<path d="M133.7 76.0899L113.25 59.7528C113.198 59.6906 113.144 59.6456 113.074 59.6094L113.022 59.5752C113.022 59.5752 113.009 59.5667 113.003 59.5624C112.892 59.4898 112.743 59.5038 112.599 59.5954L112.483 59.6307L97.3318 29.3033L118.75 46.1646L133.694 76.0856L133.7 76.0899Z" fill="#B4B8B6"/>
<path d="M111.836 104.898L91.3751 111.675L90.8938 110.707L111.807 103.781C111.812 104.156 111.827 104.529 111.836 104.898Z" fill="#E3E8E6"/>
<path d="M111.811 103.774L90.898 110.701L72.5482 73.9629C72.5482 73.9629 72.5805 73.9562 72.602 73.9518L102.127 64.1743C102.701 65.5384 103.265 66.9047 103.808 68.2755C108.186 79.3797 111.37 91.6075 111.8 103.776L111.811 103.774Z" fill="#C9CFCD"/>
<path d="M91.3728 111.664L91.121 111.75C90.8368 111.843 90.525 111.694 90.439 111.414C90.3882 111.25 90.4151 111.082 90.5048 110.945C90.5689 110.848 90.6698 110.765 90.786 110.73L90.8958 110.69L91.3771 111.658L91.3728 111.664Z" fill="#E3E8E6"/>
<path d="M113.207 61.0924L112.689 60.6778L112.956 60.5833L112.962 60.5875L113.207 61.0924Z" fill="#D2DBD7"/>
<path d="M113.327 59.9054C113.423 60.1831 113.261 60.4863 112.973 60.5854L112.964 60.5984L112.951 60.5899L112.483 59.6587C112.483 59.6587 112.55 59.6 112.586 59.5868L112.634 59.5714C112.784 59.5121 112.946 59.5348 113.068 59.6051L113.243 59.7485C113.276 59.7979 113.305 59.8538 113.322 59.912L113.327 59.9054Z" fill="#F1F7F5"/>
<path d="M112.956 60.5833L112.693 60.6714L112.35 60.3998C112.194 60.2692 112.214 59.9842 112.402 59.7542C112.428 59.7152 112.466 59.6847 112.494 59.6565L112.962 60.5876L112.956 60.5833Z" fill="#F1F7F5"/>
<path d="M112.689 60.678L102.122 64.1808C101.986 63.8495 101.85 63.5181 101.71 63.1932L112.466 59.6286L112.483 59.6587C112.445 59.6892 112.419 59.7282 112.391 59.7565C112.209 59.9907 112.19 60.2757 112.339 60.402L112.682 60.6737L112.689 60.678Z" fill="#F1F7F5"/>
<path d="M113.242 59.7477L113.068 59.6051C113.141 59.6346 113.191 59.6858 113.242 59.7477Z" fill="#ECF2F0"/>
<path d="M113.019 59.5639L113.071 59.598C112.946 59.5343 112.791 59.516 112.638 59.5644L112.591 59.5798C112.735 59.4884 112.889 59.4787 112.993 59.5469L113.013 59.5597L113.019 59.5639Z" fill="#D2DBD7"/>
<path d="M112.472 59.6198L112.585 59.5856C112.585 59.5856 112.518 59.6321 112.485 59.6554L112.468 59.6261L112.472 59.6198Z" fill="#ECF2F0"/>
<path d="M112.47 59.6221L101.714 63.1867C99.131 57.0871 96.3581 51.0492 93.6632 45.0626C92.1209 41.3316 90.2617 36.0707 87.6626 32.4181L97.3318 29.3033L112.47 59.6221Z" fill="#D7DDDB"/>
<path d="M102.127 64.1743L72.602 73.9518C72.602 73.9518 72.5697 73.9585 72.5481 73.963L72.0865 73.0361C72.1337 72.9926 72.2046 72.9555 72.2671 72.9313L101.714 63.1867C101.855 63.5116 101.995 63.8365 102.127 64.1743Z" fill="#E3E8E6"/>
<path d="M101.714 63.1867L72.2672 72.9313C72.1983 72.9512 72.1338 72.9926 72.0867 73.0361L59.556 47.9579L56.7799 42.3925L87.6649 32.4289C90.2575 36.0772 92.1232 41.3423 93.6655 45.0734C96.3604 51.06 99.1333 57.0979 101.717 63.1975L101.714 63.1867Z" fill="#C9CFCD"/>
<path d="M72.0867 73.0361L72.5483 73.9629C72.2704 74.0317 72.0083 73.8782 71.9137 73.6112C71.8587 73.4541 71.8898 73.2791 71.9752 73.1491C72.0051 73.1035 72.035 73.058 72.0845 73.0253L72.0867 73.0361Z" fill="#E3E8E6"/>
</g>
<defs>
<clipPath id="clip0_23_3350">
<rect width="164.813" height="137.124" fill="white" transform="translate(75.2827) rotate(33.2993)"/>
</clipPath>
<clipPath id="clip1_23_3350">
<rect width="155.641" height="61.8797" fill="white" transform="translate(64.3845 53.3326) rotate(45.595)"/>
</clipPath>
</defs>
</svg>
