<svg width="85" height="78" viewBox="0 0 85 78" fill="none" xmlns="http://www.w3.org/2000/svg">
<g clip-path="url(#clip0_27_1895)">
<path d="M48.906 55.4846L64.175 53.3785L63.0775 68.352L59.9629 68.6476L47.3264 69.7006L48.906 55.4846Z" fill="#5F6060"/>
<path d="M68.9517 52.6039L68.6233 54.6172C66.2915 52.7926 62.8073 52.2189 59.9689 52.3421C56.9893 52.3979 53.3107 52.9946 50.7292 54.8332L50.4998 54.8485C50.4998 54.8485 50.4579 54.9362 50.3864 55.0859C50.182 55.2451 49.9863 55.4154 49.7962 55.5954L48.067 57.0393L46.8359 56.2503L44.0511 54.467L59.4799 46.9652L68.9517 52.6039Z" fill="#AAB3AF"/>
<path d="M68.9311 52.6251L59.473 47.0689L52.3894 36.6917L61.6934 42.2506C61.7331 42.2765 61.789 42.2685 61.8388 42.2368L68.9297 52.6279L68.9311 52.6251Z" fill="#A3A7A5"/>
<path d="M68.5443 54.5588L66.1402 54.6157L64.0633 53.6109L49.06 55.8012C52.1072 53.331 55.3668 52.3586 58.742 52.0784C61.9591 51.7228 66.0367 52.4559 68.5457 54.5639L68.5443 54.5588Z" fill="#B3B9B7"/>
<path d="M65.6288 57.1518L63.1192 68.4483L60.7683 68.5771L64.175 53.3786L66.8077 53.3786L65.6288 57.1518Z" fill="#B3B9B7"/>
<path d="M48.4241 60.2364L47.3265 69.7007L42.7606 70.2272L42.6015 70.0098L43.6409 53.3786L49.4324 55.4847L48.4241 60.2364Z" fill="#AAB3AF"/>
<path d="M62.6791 61.9719L62.6777 61.9747L62.2665 62.0075L62.6791 61.9719Z" fill="#AAB3AF"/>
<path d="M61.9163 41.8782C61.9871 41.9189 61.9934 42.0365 61.9309 42.1385C61.9036 42.181 61.8706 42.2138 61.836 42.2354L61.3726 41.5562L61.915 41.881L61.9163 41.8782Z" fill="#BEC3C2"/>
<path d="M61.3739 41.5532L61.8373 42.2325C61.7874 42.2642 61.7315 42.2722 61.6919 42.2463L52.3878 36.6873L52.1187 36.2916C52.1582 36.2307 52.1638 36.1535 52.1317 36.0827C52.1127 36.0424 52.0827 36.0108 52.0474 35.9904C52.0558 35.9944 52.0698 35.9942 52.0783 35.9982L52.0868 36.0023L61.3752 41.5503L61.3739 41.5532Z" fill="#BEC3C2"/>
<path d="M59.4731 47.0688L44.0106 54.4974L43.2651 53.4059C43.9655 51.2626 44.7354 48.4724 44.8668 46.1546C44.9851 44.1187 44.897 42.0395 44.5742 40.0116L51.9218 36.4101L52.3894 36.6915L59.4731 47.0688Z" fill="#BEC4C2"/>
<path d="M61.3739 41.5533L52.0855 36.0052L52.0771 36.0011C52.0771 36.0011 52.0573 35.9917 52.0461 35.9933C52.0009 35.9717 51.9516 35.9586 51.8972 35.9708L42.6995 22.4988L52.1465 28.1434C52.1691 28.1542 52.1973 28.1607 52.2238 28.156L61.3726 41.5561L61.3739 41.5533Z" fill="#A3A7A5"/>
<path d="M44.0892 54.3349L42.7307 70.1912L40.5705 67.0258C40.8646 65.1814 40.7299 63.7845 39.862 61.8954C38.6818 59.3229 21.4919 35.4215 18.9888 31.5061L19.2529 18.1365L26.9491 29.5044C26.9312 29.5202 26.9218 29.54 26.9123 29.5597C26.8853 29.6163 26.8838 29.6849 26.913 29.7474C26.9624 29.8474 27.1443 29.8562 27.25 29.8164L36.5267 43.4985L36.4851 43.5202C36.4406 43.5407 36.4049 43.5791 36.3847 43.6215C36.3563 43.6809 36.3533 43.7454 36.3839 43.812C36.4363 43.9203 36.571 43.7829 36.77 43.861L41.933 51.3629L43.2161 53.2897L44.0907 54.3391L44.0892 54.3349Z" fill="#757B78"/>
<path d="M52.3866 36.6904L51.9334 36.4185L52.0279 36.3734C52.0681 36.3544 52.0985 36.3272 52.1188 36.2919L52.388 36.6875L52.3866 36.6904Z" fill="#B4BDB9"/>
<path d="M52.1303 36.0855C52.1624 36.1563 52.154 36.232 52.1173 36.2942L51.9333 36.0261C51.9693 36.0017 52.011 35.9869 52.0461 35.9933C52.0828 36.0108 52.1142 36.0466 52.1303 36.0855Z" fill="#D2D8D6"/>
<path d="M51.9331 36.0262L52.1173 36.2945C52.1011 36.3284 52.0666 36.3571 52.0263 36.376L51.9319 36.4212L51.8596 36.3763C51.7888 36.3355 51.7825 36.218 51.8422 36.1147C51.8668 36.0778 51.8956 36.0465 51.9274 36.0235L51.9331 36.0262Z" fill="#D2D8D6"/>
<path d="M51.9334 36.4184L44.5366 40.0425C44.5171 39.8944 44.4878 39.7451 44.4641 39.5984L51.8359 35.9902C51.8553 35.9786 51.8748 35.974 51.893 35.9723L51.929 36.0277C51.8944 36.0493 51.8656 36.0807 51.8438 36.1189C51.7841 36.2222 51.7918 36.3369 51.8612 36.3805L51.9335 36.4254L51.9334 36.4184Z" fill="#D2D8D6"/>
<path d="M51.8973 35.9706C51.9514 35.9585 52.0045 35.9701 52.0452 35.993C52.0103 35.9867 51.9702 35.9985 51.9331 36.0257L51.8973 35.9706Z" fill="#D2D8D6"/>
<path d="M42.6995 22.4988L51.8972 35.9708C51.8972 35.9708 51.8595 35.9771 51.8401 35.9887L44.4683 39.5969C43.6322 34.77 41.6974 30.064 39.3462 25.874C39.0539 25.3597 38.7559 24.8427 38.4524 24.33L42.4756 22.3572L42.705 22.4945L42.6995 22.4988Z" fill="#BEC4C2"/>
<path d="M40.5719 67.023L18.5491 33.4196L19.1555 23.6046C21.6586 27.5201 40.4601 57.4763 41.6431 60.0502C42.5109 61.9393 42.6457 63.3361 40.5705 67.0258L40.5719 67.023Z" fill="#8F9693"/>
<path d="M43.3241 53.4453L36.7382 43.8516L44.6717 39.9688C45.0034 42.021 45.134 44.0783 45.018 46.1378C44.8908 48.4795 44.032 51.2756 43.3241 53.4453Z" fill="#B3B9B7"/>
<path d="M52.3695 27.7711C52.4403 27.8118 52.4466 27.9294 52.3827 28.0342C52.3433 28.1021 52.2783 28.1439 52.2224 28.152L51.6841 27.3606L52.3667 27.7697L52.3695 27.7711Z" fill="#BEC3C2"/>
<path d="M51.6898 27.3633L52.2281 28.1547C52.2002 28.1622 52.1721 28.1557 52.1508 28.1421L42.7037 22.4974L42.5771 22.3121L42.5798 22.3064C42.6909 22.2554 42.739 22.1256 42.6866 22.0173C42.6764 21.9951 42.6606 21.9772 42.6462 21.9564L51.6925 27.3576L51.6898 27.3633Z" fill="#BEC3C2"/>
<path d="M51.6897 27.3631L42.6434 21.9619C42.6192 21.9399 42.5951 21.925 42.5655 21.9143L42.5429 21.9035C42.5429 21.9035 42.5373 21.9008 42.5344 21.8994C42.4864 21.8765 42.4278 21.8902 42.3754 21.9346L42.331 21.955L34.6357 10.6854L44.0966 16.243L51.6868 27.3618L51.6897 27.3631Z" fill="#A3A7A5"/>
<path d="M44.5395 40.0439L36.7485 43.8615L36.5038 43.5018L44.4607 39.543C44.4831 39.6924 44.5158 39.8973 44.5395 40.0439Z" fill="#D2D7D5"/>
<path d="M44.486 39.5599L36.5052 43.4989L27.2062 29.8028C27.2062 29.8028 27.2188 29.7983 27.2272 29.7954L38.4944 24.2349C38.797 24.7493 39.0955 25.2653 39.3856 25.7843C41.7298 29.989 43.6573 34.7104 44.4818 39.5614L44.486 39.5599Z" fill="#B3B9B7"/>
<path d="M36.7472 43.8573L36.6514 43.9053C36.5431 43.9577 36.4107 43.9153 36.3611 43.8083C36.332 43.7458 36.3335 43.6772 36.3618 43.6178C36.3821 43.5754 36.4178 43.537 36.4622 43.5165L36.5039 43.4948L36.7485 43.8545L36.7472 43.8573Z" fill="#D2D7D5"/>
<path d="M42.6994 22.4985L42.4702 22.3614L42.5714 22.3092L42.5742 22.3105L42.6994 22.4985Z" fill="#B4BDB9"/>
<path d="M42.6821 22.0186C42.7358 22.1241 42.6878 22.2539 42.5781 22.3091L42.5754 22.3147L42.5698 22.312L42.3323 21.9662C42.3323 21.9662 42.3557 21.9392 42.3695 21.9319L42.3876 21.9232C42.4444 21.8913 42.5103 21.8915 42.5625 21.913L42.6404 21.9606C42.6561 21.9785 42.6705 21.9992 42.6807 22.0215L42.6821 22.0186Z" fill="#D2D8D6"/>
<path d="M42.5713 22.3092L42.4714 22.3587L42.3199 22.269C42.2504 22.2255 42.2427 22.1107 42.3053 22.0088C42.3134 21.9918 42.3271 21.9775 42.3367 21.9648L42.5741 22.3106L42.5713 22.3092Z" fill="#D2D8D6"/>
<path d="M42.4701 22.3615L38.4469 24.3343C38.3746 24.2096 38.3023 24.0848 38.2286 23.9629L42.324 21.9552L42.3326 21.9662C42.3189 21.9805 42.3108 21.9974 42.3012 22.0102C42.2414 22.1136 42.2491 22.2283 42.3158 22.2705L42.4673 22.3602L42.4701 22.3615Z" fill="#D2D8D6"/>
<path d="M42.6391 21.9597L42.5627 21.913C42.593 21.9207 42.6154 21.9382 42.6391 21.9597Z" fill="#D7DDDB"/>
<path d="M42.5409 21.8992L42.5634 21.9099C42.51 21.8914 42.4472 21.8925 42.389 21.9201L42.371 21.9288C42.4233 21.8846 42.4845 21.8723 42.5296 21.8938L42.5381 21.8978L42.5409 21.8992Z" fill="#B4BDB9"/>
<path d="M42.3257 21.9515L42.3692 21.9315C42.3692 21.9315 42.3449 21.9539 42.3328 21.965L42.3244 21.9542L42.3257 21.9515Z" fill="#D7DDDB"/>
<path d="M42.3254 21.9522L38.23 23.9599C36.8673 21.6681 35.4324 19.4111 34.0314 17.1704C33.213 15.7664 32.1849 13.7696 30.9492 12.4545L34.6358 10.6854L42.3254 21.9522Z" fill="#BEC4C2"/>
<path d="M38.4481 24.3315L27.2059 29.8397C27.2059 29.8397 27.1934 29.8442 27.185 29.8471L26.9504 29.5026C26.9668 29.4827 26.9931 29.464 27.0167 29.451L38.2298 23.9601C38.3035 24.082 38.3772 24.2039 38.4481 24.3315Z" fill="#D2D7D5"/>
<path d="M38.2298 23.96L27.0167 29.4509C26.9903 29.4625 26.9668 29.4826 26.9504 29.5025L20.5864 20.1836L19.176 18.1153L30.9506 12.4587C32.1833 13.7725 33.2143 15.7706 34.0327 17.1746C35.4337 19.4153 36.8686 21.6723 38.2313 23.9641L38.2298 23.96Z" fill="#B3B9B7"/>
<path d="M26.9506 29.5026L27.1852 29.8471C27.0782 29.8897 26.9652 29.8427 26.913 29.7414C26.8825 29.6817 26.8854 29.6103 26.9123 29.5537C26.9218 29.5339 26.9312 29.5142 26.9492 29.4984L26.9506 29.5026Z" fill="#D2D7D5"/>
</g>
<defs>
<clipPath id="clip0_27_1895">
<rect width="66.3411" height="55.1958" fill="white" transform="translate(24.2456 0.200073) rotate(25.5193)"/>
</clipPath>
</defs>
</svg>
