<svg width="31" height="31" viewBox="0 0 31 31" fill="none" xmlns="http://www.w3.org/2000/svg">
<g filter="url(#filter0_i_12_1592)">
<path d="M17.05 11.8265C17.05 11.4939 16.9179 11.175 16.6827 10.9398C16.4476 10.7046 16.1286 10.5725 15.796 10.5725H4.50965C4.17706 10.5725 3.85809 10.7046 3.62291 10.9398C3.38774 11.175 3.25562 11.4939 3.25562 11.8265V28.129H17.05V11.8265ZM8.27177 25.6209H5.76369V23.1129H8.27177V25.6209ZM8.27177 20.6048H5.76369V18.0967H8.27177V20.6048ZM8.27177 15.5886H5.76369V13.0806H8.27177V15.5886ZM14.542 25.6209H10.7798V23.1129H14.542V25.6209ZM14.542 20.6048H10.7798V18.0967H14.542V20.6048ZM14.542 15.5886H10.7798V13.0806H14.542V15.5886ZM18.9311 8.06441H8.27177V4.3023C8.27177 3.96971 8.40389 3.65074 8.63906 3.41556C8.87424 3.18038 9.19321 3.04826 9.5258 3.04826L22.0662 3.04826C22.3988 3.04826 22.7177 3.18038 22.9529 3.41556C23.1881 3.65074 23.3202 3.96971 23.3202 4.3023V13.0806H19.5581V8.69143C19.5581 8.52514 19.492 8.36565 19.3745 8.24806C19.2569 8.13047 19.0974 8.06441 18.9311 8.06441ZM28.3364 16.8427V28.129L25.2013 28.129V23.1129H22.6932V28.129H19.5581V16.8427C19.5581 16.5101 19.6902 16.1911 19.9254 15.9559C20.1606 15.7208 20.4795 15.5886 20.8121 15.5886H27.0823C27.4149 15.5886 27.7339 15.7208 27.9691 15.9559C28.2042 16.1911 28.3364 16.5101 28.3364 16.8427Z" fill="#D83AFF"/>
</g>
<defs>
<filter id="filter0_i_12_1592" x="3.25562" y="3.04826" width="25.0808" height="25.7078" filterUnits="userSpaceOnUse" color-interpolation-filters="sRGB">
<feFlood flood-opacity="0" result="BackgroundImageFix"/>
<feBlend mode="normal" in="SourceGraphic" in2="BackgroundImageFix" result="shape"/>
<feColorMatrix in="SourceAlpha" type="matrix" values="0 0 0 0 0 0 0 0 0 0 0 0 0 0 0 0 0 0 127 0" result="hardAlpha"/>
<feOffset dy="0.627019"/>
<feGaussianBlur stdDeviation="1.25404"/>
<feComposite in2="hardAlpha" operator="arithmetic" k2="-1" k3="1"/>
<feColorMatrix type="matrix" values="0 0 0 0 0 0 0 0 0 0 0 0 0 0 0 0 0 0 0.15 0"/>
<feBlend mode="normal" in2="shape" result="effect1_innerShadow_12_1592"/>
</filter>
</defs>
</svg>
