<svg width="182" height="59" viewBox="0 0 182 59" fill="none" xmlns="http://www.w3.org/2000/svg">
<path fill-rule="evenodd" clip-rule="evenodd" d="M30.7477 0C15.5108 0 3.15891 12.3519 3.15891 27.5888C3.15891 30.9988 3.77756 34.2642 4.90873 37.2791C4.78687 37.5019 4.68666 37.7438 4.61212 38.0037L0.138203 53.6061C-0.59717 56.1707 1.71942 58.5696 4.30808 57.9241L20.0571 53.9975C20.4868 53.8903 20.8705 53.7127 21.2032 53.482C24.1774 54.5787 27.3927 55.1776 30.7477 55.1776L153.643 55.1776C168.88 55.1776 181.232 42.8257 181.232 27.5888C181.232 12.3519 168.88 0 153.643 0L30.7477 0Z" fill="#F8F8F8"/>
</svg>
