<svg width="98" height="48" viewBox="0 0 98 48" fill="none" xmlns="http://www.w3.org/2000/svg">
<g filter="url(#filter0_f_27_1010)">
<path fill-rule="evenodd" clip-rule="evenodd" d="M80.2965 26.0481C82.7967 26.0481 84.8423 28.0937 84.8423 30.5939C84.8423 33.0941 82.7967 35.1397 80.2965 35.1397C77.7963 35.1397 75.7507 33.0941 75.7507 30.5939C75.7507 28.0937 77.7963 26.0481 80.2965 26.0481Z" fill="#D83AFF"/>
</g>
<path fill-rule="evenodd" clip-rule="evenodd" d="M81.0005 26.0481C83.8878 26.0481 86.2502 28.4105 86.2502 31.2978C86.2502 34.1852 83.8878 36.5475 81.0005 36.5475C78.1131 36.5475 75.7507 34.1852 75.7507 31.2978C75.7507 28.4105 78.1131 26.0481 81.0005 26.0481Z" fill="#D83AFF"/>
<path fill-rule="evenodd" clip-rule="evenodd" d="M11.5839 0.688965C5.45072 0.688965 0.47876 5.66092 0.47876 11.7941C0.47876 17.9274 5.4507 22.8993 11.5839 22.8993L61.0525 22.8993C62.2057 22.8993 63.3178 22.7235 64.3636 22.3973C64.5063 22.504 64.6741 22.5858 64.8643 22.6332L71.2035 24.2146C72.2454 24.4745 73.1781 23.509 72.8822 22.4767L71.1482 16.4268C71.7963 15.0167 72.1576 13.4476 72.1576 11.7941C72.1576 5.66092 67.1857 0.688965 61.0525 0.688965L11.5839 0.688965Z" fill="#F8F8F8"/>
<g filter="url(#filter1_i_27_1010)">
<path d="M15.1173 10.2798C15.1173 10.1459 15.0641 10.0175 14.9694 9.92287C14.8748 9.82821 14.7464 9.77502 14.6125 9.77502H10.0695C9.9356 9.77502 9.80721 9.82821 9.71254 9.92287C9.61788 10.0175 9.5647 10.1459 9.5647 10.2798V16.842H15.1173V10.2798ZM11.5838 15.8324H10.5743V14.8228H11.5838V15.8324ZM11.5838 13.8133H10.5743V12.8037H11.5838V13.8133ZM11.5838 11.7941H10.5743V10.7846H11.5838V11.7941ZM14.1077 15.8324H12.5934V14.8228H14.1077V15.8324ZM14.1077 13.8133H12.5934V12.8037H14.1077V13.8133ZM14.1077 11.7941H12.5934V10.7846H14.1077V11.7941ZM15.8745 8.76546H11.5838V7.25112C11.5838 7.11724 11.637 6.98885 11.7317 6.89418C11.8263 6.79952 11.9547 6.74634 12.0886 6.74634L17.1364 6.74634C17.2703 6.74634 17.3987 6.79952 17.4933 6.89418C17.588 6.98885 17.6412 7.11724 17.6412 7.25112V10.7846H16.1268V9.01785C16.1268 8.95091 16.1003 8.88672 16.0529 8.83938C16.0056 8.79205 15.9414 8.76546 15.8745 8.76546ZM19.6603 12.2989V16.842H18.3984V14.8228L17.3888 14.8228V16.842H16.1268V12.2989C16.1268 12.1651 16.18 12.0367 16.2747 11.942C16.3694 11.8473 16.4978 11.7941 16.6316 11.7941H19.1555C19.2894 11.7941 19.4178 11.8473 19.5125 11.942C19.6071 12.0367 19.6603 12.1651 19.6603 12.2989Z" fill="#D83AFF"/>
</g>
<path d="M60.5029 10.329H61.9287V12.5389C62.1663 12.5118 62.3344 12.4388 62.4328 12.32C62.5313 12.2012 62.6501 11.9415 62.7893 11.5409C62.9726 11.0079 63.1729 10.6668 63.3901 10.5174C63.6074 10.368 63.8926 10.2933 64.2456 10.2933C64.3542 10.2933 64.5426 10.3018 64.8108 10.3188L64.8159 11.2659C64.4391 11.2659 64.1981 11.3016 64.0928 11.3729C63.9876 11.4475 63.8739 11.6699 63.7517 12.0399C63.5853 12.5389 63.346 12.8462 63.0337 12.9616C63.4852 13.0872 63.8671 13.4793 64.1794 14.1378C64.1964 14.1718 64.2151 14.2074 64.2354 14.2448L65.0349 15.7368H63.4971L62.7842 14.1735C62.6382 13.8578 62.5109 13.6558 62.4023 13.5675C62.297 13.4759 62.1392 13.4301 61.9287 13.4301V15.7368H60.5029V10.329Z" fill="#2E2E2E"/>
<path d="M59.4692 11.9278L58.0587 12.1824C58.0112 11.9006 57.9025 11.6885 57.7328 11.5459C57.5665 11.4033 57.3492 11.332 57.081 11.332C56.7246 11.332 56.4394 11.4559 56.2255 11.7037C56.0151 11.9482 55.9098 12.3589 55.9098 12.936C55.9098 13.5776 56.0168 14.0308 56.2306 14.2956C56.4479 14.5604 56.7382 14.6928 57.1014 14.6928C57.373 14.6928 57.5953 14.6164 57.7684 14.4636C57.9416 14.3075 58.0638 14.041 58.1351 13.6642L59.5405 13.9035C59.3945 14.5485 59.1144 15.0356 58.7003 15.3649C58.2861 15.6942 57.7311 15.8589 57.0352 15.8589C56.2442 15.8589 55.6128 15.6094 55.1409 15.1103C54.6725 14.6113 54.4382 13.9205 54.4382 13.0379C54.4382 12.145 54.6742 11.4508 55.146 10.9552C55.6179 10.4562 56.2561 10.2067 57.0606 10.2067C57.7192 10.2067 58.242 10.3492 58.629 10.6344C59.0194 10.9162 59.2995 11.3473 59.4692 11.9278Z" fill="#2E2E2E"/>
<path d="M48.3684 10.329H49.7993V12.5746H51.2352C51.7988 12.5746 52.2316 12.6153 52.5337 12.6968C52.8359 12.7783 53.0871 12.9548 53.2873 13.2264C53.4876 13.4946 53.5878 13.8069 53.5878 14.1633C53.5878 14.6861 53.4079 15.0799 53.048 15.3447C52.6916 15.6061 52.1552 15.7368 51.4389 15.7368H48.3684V10.329ZM49.7993 14.8304H51.1334C51.551 14.8304 51.8174 14.7625 51.9329 14.6267C52.0517 14.4909 52.1111 14.3297 52.1111 14.1429C52.1111 13.8815 52.0092 13.7016 51.8056 13.6032C51.6053 13.5047 51.2471 13.4555 50.7311 13.4555H49.7993V14.8304Z" fill="#2E2E2E"/>
<path d="M42.0951 10.329H46.8868V15.7368H45.461V11.49H43.5107V13.9189C43.5107 14.5367 43.4395 14.9713 43.2969 15.2225C43.1543 15.4703 42.9964 15.6332 42.8233 15.7113C42.6502 15.7894 42.3718 15.8284 41.9882 15.8284C41.7608 15.8284 41.4603 15.7979 41.0869 15.7368V14.6827C41.1175 14.6827 41.1972 14.6861 41.3262 14.6929C41.4756 14.7031 41.591 14.7082 41.6725 14.7082C41.866 14.7082 41.9848 14.6454 42.0289 14.5198C42.0731 14.3908 42.0951 14.036 42.0951 13.4555V10.329Z" fill="#2E2E2E"/>
<path d="M36.9725 11.9787L35.674 11.7445C35.82 11.2217 36.0712 10.8347 36.4277 10.5835C36.7841 10.3323 37.3137 10.2067 38.0164 10.2067C38.6546 10.2067 39.1299 10.283 39.4422 10.4358C39.7545 10.5852 39.9734 10.777 40.099 11.0112C40.228 11.2421 40.2925 11.6681 40.2925 12.2893L40.2773 13.9595C40.2773 14.4348 40.2993 14.7861 40.3435 15.0136C40.391 15.2376 40.4776 15.4787 40.6032 15.7367H39.1876C39.1502 15.6416 39.1044 15.5007 39.0501 15.314C39.0263 15.2291 39.0093 15.1731 38.9992 15.146C38.7547 15.3836 38.4933 15.5618 38.215 15.6806C37.9366 15.7995 37.6396 15.8589 37.3239 15.8589C36.7671 15.8589 36.3275 15.7078 36.005 15.4057C35.6859 15.1035 35.5264 14.7216 35.5264 14.26C35.5264 13.9544 35.5994 13.6829 35.7453 13.4452C35.8913 13.2042 36.095 13.0209 36.3564 12.8953C36.6212 12.7663 37.0014 12.6543 37.497 12.5592C38.1658 12.4336 38.6291 12.3165 38.8871 12.2078V12.0653C38.8871 11.7903 38.8192 11.5951 38.6835 11.4797C38.5477 11.3609 38.2914 11.3015 37.9145 11.3015C37.6599 11.3015 37.4614 11.3524 37.3188 11.4542C37.1762 11.5527 37.0608 11.7275 36.9725 11.9787ZM38.8871 13.1397C38.7038 13.2008 38.4136 13.2738 38.0164 13.3587C37.6192 13.4435 37.3595 13.5267 37.2373 13.6082C37.0506 13.7406 36.9572 13.9086 36.9572 14.1123C36.9572 14.3126 37.0319 14.4857 37.1813 14.6317C37.3307 14.7776 37.5208 14.8506 37.7516 14.8506C38.0096 14.8506 38.2557 14.7658 38.49 14.596C38.6631 14.467 38.7768 14.3092 38.8311 14.1225C38.8685 14.0003 38.8871 13.7677 38.8871 13.4249V13.1397Z" fill="#2E2E2E"/>
<path d="M29.4871 10.3289H30.8212V11.1232C30.9943 10.8517 31.2285 10.631 31.5239 10.4613C31.8192 10.2915 32.1468 10.2067 32.5067 10.2067C33.1347 10.2067 33.6677 10.4528 34.1056 10.945C34.5435 11.4372 34.7624 12.123 34.7624 13.0022C34.7624 13.9052 34.5418 14.6079 34.1005 15.1103C33.6592 15.6094 33.1245 15.8589 32.4965 15.8589C32.1977 15.8589 31.9262 15.7995 31.6817 15.6806C31.4407 15.5618 31.1861 15.3581 30.9179 15.0696V17.7939H29.4871V10.3289ZM30.9027 12.9411C30.9027 13.5488 31.0232 13.9986 31.2642 14.2905C31.5052 14.5791 31.7989 14.7233 32.1451 14.7233C32.4778 14.7233 32.7545 14.5909 32.9751 14.3262C33.1958 14.058 33.3061 13.6201 33.3061 13.0124C33.3061 12.4455 33.1924 12.0245 32.9649 11.7496C32.7375 11.4746 32.4557 11.3371 32.1197 11.3371C31.77 11.3371 31.4798 11.4729 31.2489 11.7445C31.0181 12.0127 30.9027 12.4115 30.9027 12.9411Z" fill="#2E2E2E"/>
<path d="M22.6892 8.27173H24.3747L26.1162 12.1468L27.6031 8.27173H29.1765L26.6559 13.9443C26.381 14.5587 26.1009 15.0272 25.8157 15.3497C25.5306 15.6688 25.1623 15.8284 24.7108 15.8284C24.2661 15.8284 23.9181 15.7995 23.6669 15.7418V14.6215C23.8808 14.6351 24.0743 14.6419 24.2474 14.6419C24.597 14.6419 24.8466 14.5791 24.9959 14.4535C25.1487 14.3245 25.2947 14.0495 25.4338 13.6286L22.6892 8.27173Z" fill="#2E2E2E"/>
<defs>
<filter id="filter0_f_27_1010" x="62.8966" y="13.1939" width="34.7999" height="34.7999" filterUnits="userSpaceOnUse" color-interpolation-filters="sRGB">
<feFlood flood-opacity="0" result="BackgroundImageFix"/>
<feBlend mode="normal" in="SourceGraphic" in2="BackgroundImageFix" result="shape"/>
<feGaussianBlur stdDeviation="6.42709" result="effect1_foregroundBlur_27_1010"/>
</filter>
<filter id="filter1_i_27_1010" x="9.5647" y="6.74634" width="10.0957" height="10.348" filterUnits="userSpaceOnUse" color-interpolation-filters="sRGB">
<feFlood flood-opacity="0" result="BackgroundImageFix"/>
<feBlend mode="normal" in="SourceGraphic" in2="BackgroundImageFix" result="shape"/>
<feColorMatrix in="SourceAlpha" type="matrix" values="0 0 0 0 0 0 0 0 0 0 0 0 0 0 0 0 0 0 127 0" result="hardAlpha"/>
<feOffset dy="0.25239"/>
<feGaussianBlur stdDeviation="0.504781"/>
<feComposite in2="hardAlpha" operator="arithmetic" k2="-1" k3="1"/>
<feColorMatrix type="matrix" values="0 0 0 0 0 0 0 0 0 0 0 0 0 0 0 0 0 0 0.15 0"/>
<feBlend mode="normal" in2="shape" result="effect1_innerShadow_27_1010"/>
</filter>
</defs>
</svg>
