<svg width="102" height="50" viewBox="0 0 102 50" fill="none" xmlns="http://www.w3.org/2000/svg">
<g filter="url(#filter0_f_27_1022)">
<path fill-rule="evenodd" clip-rule="evenodd" d="M18.3126 27.5647C20.8128 27.5647 22.8584 29.6103 22.8584 32.1105C22.8584 34.6107 20.8128 36.6563 18.3126 36.6563C15.8124 36.6563 13.7668 34.6107 13.7668 32.1105C13.7668 29.6103 15.8124 27.5647 18.3126 27.5647Z" fill="#D83AFF"/>
</g>
<path fill-rule="evenodd" clip-rule="evenodd" d="M19.0166 27.5647C21.9039 27.5647 24.2663 29.9271 24.2663 32.8144C24.2663 35.7018 21.9039 38.0641 19.0166 38.0641C16.1292 38.0641 13.7668 35.7018 13.7668 32.8144C13.7668 29.9271 16.1292 27.5647 19.0166 27.5647Z" fill="#D83AFF"/>
<path fill-rule="evenodd" clip-rule="evenodd" d="M40.6367 0.19519C34.5035 0.19519 29.5315 5.16715 29.5315 11.3004C29.5315 12.673 29.7805 13.9874 30.2359 15.201C30.1868 15.2907 30.1465 15.388 30.1165 15.4926L28.3156 21.773C28.0196 22.8053 28.9521 23.7709 29.9941 23.5111L36.3335 21.9305C36.5065 21.8874 36.6609 21.8159 36.7948 21.723C37.992 22.1645 39.2862 22.4055 40.6367 22.4055H90.1052C96.2385 22.4055 101.21 17.4336 101.21 11.3004C101.21 5.16715 96.2385 0.19519 90.1052 0.19519L40.6367 0.19519Z" fill="#F8F8F8"/>
<g filter="url(#filter1_i_27_1022)">
<path d="M47.1986 9.78591C47.1986 9.65203 47.1454 9.52364 47.0507 9.42897C46.9561 9.33431 46.8277 9.28113 46.6938 9.28113H42.1508C42.0169 9.28113 41.8885 9.33431 41.7938 9.42897C41.6992 9.52364 41.646 9.65203 41.646 9.78591V16.3481H47.1986V9.78591ZM43.6651 15.3385H42.6556V14.3289H43.6651V15.3385ZM43.6651 13.3194H42.6556V12.3098H43.6651V13.3194ZM43.6651 11.3002H42.6556V10.2907H43.6651V11.3002ZM46.189 15.3385H44.6747V14.3289H46.189V15.3385ZM46.189 13.3194H44.6747V12.3098H46.189V13.3194ZM46.189 11.3002H44.6747V10.2907H46.189V11.3002ZM47.9558 8.27156H43.6651V6.75722C43.6651 6.62335 43.7183 6.49495 43.813 6.40029C43.9076 6.30562 44.036 6.25244 44.1699 6.25244L49.2177 6.25244C49.3516 6.25244 49.48 6.30562 49.5746 6.40029C49.6693 6.49495 49.7225 6.62335 49.7225 6.75722V10.2907H48.2081V8.52396C48.2081 8.45702 48.1816 8.39282 48.1342 8.34549C48.0869 8.29816 48.0227 8.27156 47.9558 8.27156ZM51.7416 11.805V16.3481H50.4797V14.3289H49.4701V16.3481H48.2081V11.805C48.2081 11.6712 48.2613 11.5428 48.356 11.4481C48.4507 11.3534 48.5791 11.3002 48.7129 11.3002H51.2368C51.3707 11.3002 51.4991 11.3534 51.5938 11.4481C51.6884 11.5428 51.7416 11.6712 51.7416 11.805Z" fill="#D83AFF"/>
</g>
<path d="M82.5171 9.83521H84.2891L85.6334 13.6033L86.9879 9.83521H88.7549V15.243H87.5379V11.6836L86.219 15.243H84.9969L83.7392 11.6836V15.243H82.5171V9.83521Z" fill="#2E2E2E"/>
<path d="M75.9128 12.4626C75.9128 11.9873 76.03 11.5274 76.2642 11.0827C76.4984 10.638 76.8294 10.2985 77.2571 10.0642C77.6883 9.83001 78.1686 9.71289 78.6982 9.71289C79.5163 9.71289 80.1868 9.97938 80.7096 10.5123C81.2324 11.0419 81.4938 11.7124 81.4938 12.5237C81.4938 13.3418 81.229 14.0208 80.6994 14.5605C80.1732 15.0969 79.5095 15.3651 78.7084 15.3651C78.2128 15.3651 77.7392 15.2531 77.2877 15.029C76.8396 14.805 76.4984 14.4774 76.2642 14.0462C76.03 13.6117 75.9128 13.0838 75.9128 12.4626ZM77.3794 12.539C77.3794 13.0754 77.5067 13.4861 77.7613 13.7713C78.0159 14.0564 78.3299 14.199 78.7033 14.199C79.0767 14.199 79.389 14.0564 79.6402 13.7713C79.8948 13.4861 80.0221 13.072 80.0221 12.5288C80.0221 11.9992 79.8948 11.5919 79.6402 11.3067C79.389 11.0216 79.0767 10.879 78.7033 10.879C78.3299 10.879 78.0159 11.0216 77.7613 11.3067C77.5067 11.5919 77.3794 12.0026 77.3794 12.539Z" fill="#2E2E2E"/>
<path d="M69.8276 9.8351H71.1618V10.6295C71.3349 10.3579 71.5691 10.1372 71.8645 9.96749C72.1598 9.79776 72.4874 9.71289 72.8472 9.71289C73.4753 9.71289 74.0082 9.95901 74.4461 10.4512C74.8841 10.9435 75.103 11.6292 75.103 12.5084C75.103 13.4114 74.8824 14.1141 74.4411 14.6166C73.9997 15.1156 73.4651 15.3651 72.8371 15.3651C72.5383 15.3651 72.2667 15.3057 72.0223 15.1869C71.7813 15.0681 71.5267 14.8644 71.2585 14.5758V17.3001H69.8276V9.8351ZM71.2432 12.4473C71.2432 13.055 71.3637 13.5048 71.6048 13.7967C71.8458 14.0853 72.1394 14.2296 72.4857 14.2296C72.8184 14.2296 73.095 14.0972 73.3157 13.8324C73.5364 13.5642 73.6467 13.1263 73.6467 12.5186C73.6467 11.9517 73.533 11.5308 73.3055 11.2558C73.0781 10.9808 72.7963 10.8433 72.4602 10.8433C72.1106 10.8433 71.8203 10.9791 71.5895 11.2507C71.3587 11.5189 71.2432 11.9178 71.2432 12.4473Z" fill="#2E2E2E"/>
<path d="M63.5288 9.83521H65.0513L66.3447 13.6746L67.6076 9.83521H69.0894L67.1798 15.0393L66.8387 15.9813C66.7131 16.297 66.5925 16.5381 66.4771 16.7044C66.3651 16.8708 66.2344 17.0048 66.085 17.1067C65.9391 17.2119 65.7574 17.2934 65.5402 17.3511C65.3263 17.4088 65.0836 17.4377 64.812 17.4377C64.537 17.4377 64.2672 17.4088 64.0024 17.3511L63.8751 16.2308C64.0991 16.275 64.3011 16.297 64.481 16.297C64.8137 16.297 65.0598 16.1986 65.2194 16.0017C65.3789 15.8082 65.5011 15.5604 65.586 15.2583L63.5288 9.83521Z" fill="#2E2E2E"/>
<path d="M55.5088 15.2429V7.77795H57.7646L59.1191 12.87L60.4583 7.77795L62.7192 7.77795V15.2429H61.3188V9.36668L59.8371 15.2429H58.3858L56.9091 9.36668V15.2429H55.5088Z" fill="#2E2E2E"/>
<defs>
<filter id="filter0_f_27_1022" x="0.912674" y="14.7105" width="34.7999" height="34.7999" filterUnits="userSpaceOnUse" color-interpolation-filters="sRGB">
<feFlood flood-opacity="0" result="BackgroundImageFix"/>
<feBlend mode="normal" in="SourceGraphic" in2="BackgroundImageFix" result="shape"/>
<feGaussianBlur stdDeviation="6.42709" result="effect1_foregroundBlur_27_1022"/>
</filter>
<filter id="filter1_i_27_1022" x="41.646" y="6.25244" width="10.0957" height="10.348" filterUnits="userSpaceOnUse" color-interpolation-filters="sRGB">
<feFlood flood-opacity="0" result="BackgroundImageFix"/>
<feBlend mode="normal" in="SourceGraphic" in2="BackgroundImageFix" result="shape"/>
<feColorMatrix in="SourceAlpha" type="matrix" values="0 0 0 0 0 0 0 0 0 0 0 0 0 0 0 0 0 0 127 0" result="hardAlpha"/>
<feOffset dy="0.25239"/>
<feGaussianBlur stdDeviation="0.504781"/>
<feComposite in2="hardAlpha" operator="arithmetic" k2="-1" k3="1"/>
<feColorMatrix type="matrix" values="0 0 0 0 0 0 0 0 0 0 0 0 0 0 0 0 0 0 0.15 0"/>
<feBlend mode="normal" in2="shape" result="effect1_innerShadow_27_1022"/>
</filter>
</defs>
</svg>
