<svg width="59" height="60" viewBox="0 0 59 60" fill="none" xmlns="http://www.w3.org/2000/svg">
<g style="mix-blend-mode:darken" opacity="0.33">
<path d="M13.1797 25.6884L20.8803 22.9542L39.3453 52.2231L30.4735 53.7717L13.1797 25.6884Z" fill="black"/>
</g>
<g clip-path="url(#clip0_27_1427)">
<path opacity="0.3" d="M37.8135 50.0328L33.5758 50.76L16.602 23.5721L16.3571 24.1316L14.3692 24.5231L13.8888 25.4698L14.348 26.2067L31.0643 53.027L32.4994 53.6093L38.2832 52.5065L38.7636 51.5598L37.8135 50.0328Z" fill="black"/>
<path d="M15.9354 23.7118L15.4251 23.8087L15.5835 23.4466L16.0939 23.3497L15.9354 23.7118Z" fill="#0F1F7A"/>
<path d="M14.1338 24.9103L14.6141 23.9637L15.7614 22.5245L15.5284 23.233L14.5229 24.8388L14.1338 24.9103Z" fill="#3F5DFF"/>
<path d="M14.8326 25.6018L14.5926 25.6471L15.0696 24.2806L15.5625 23.4309L15.8025 23.3856L14.8326 25.6018Z" fill="#1F259C"/>
<path d="M14.5928 25.6472L14.1336 24.9103L15.4081 23.1804L15.5627 23.4311L14.5928 25.6472Z" fill="#1B39E3"/>
<path d="M16.9601 25.3823C17.3352 25.9844 17.3759 27.0611 17.0566 27.7907C16.8957 28.1582 16.672 28.3675 16.4437 28.4113L16.0736 28.452L15.9586 25.042L16.3896 24.9627C16.5966 24.9552 16.7919 25.1126 16.9601 25.3823Z" fill="#858580"/>
<path d="M16.6179 25.4222C16.2429 24.8201 15.6836 24.9283 15.3619 25.6633C15.0402 26.3984 15.0435 27.4133 15.414 28.0133C15.789 28.6154 16.3903 28.5711 16.712 27.836C17.0313 27.1064 16.9884 26.0222 16.6155 25.4276L16.6179 25.4222Z" fill="#ACACA7"/>
<path d="M16.0966 25.8083C15.9416 25.76 15.7703 25.8746 15.6575 26.1325C15.487 26.5219 15.507 27.0928 15.7094 27.4101C15.8184 27.5886 15.964 27.6458 16.0973 27.593C16.0185 27.5716 15.9428 27.5057 15.8745 27.3974C15.6768 27.0821 15.6522 26.5093 15.8227 26.1198C15.8971 25.9497 15.9915 25.8472 16.0966 25.8083Z" fill="#989893"/>
<path d="M16.3191 26.0039C16.2509 25.8956 16.1751 25.8298 16.0964 25.8084C15.9959 25.8494 15.8969 25.9498 15.8225 26.1199C15.652 26.5094 15.6719 27.0802 15.8743 27.3976C15.9379 27.5038 16.0183 27.5717 16.097 27.5931C16.2021 27.5541 16.2989 27.4461 16.371 27.2816C16.539 26.8976 16.5145 26.3247 16.3213 26.0114L16.3191 26.0039Z" fill="#C0C0BC"/>
<path d="M16.1892 26.4895C16.1278 26.3908 16.0369 26.4098 15.9865 26.525C15.9361 26.6402 15.943 26.8132 16.0043 26.9119C16.0657 27.0107 16.1566 26.9916 16.207 26.8764C16.2575 26.7612 16.253 26.5828 16.1892 26.4895Z" fill="#121214"/>
<path d="M19.2787 29.1031C19.6537 29.7052 19.6944 30.7819 19.3727 31.5169C19.2119 31.8845 18.9882 32.0938 18.7552 32.1356L18.3851 32.1762L18.2701 28.7663L18.7011 28.6869C18.9081 28.6795 19.1034 28.8368 19.2717 29.1066L19.2787 29.1031Z" fill="#858580"/>
<path d="M18.9365 29.1429C18.5615 28.5408 18.0022 28.649 17.6805 29.384C17.3588 30.1191 17.4041 31.1978 17.7746 31.7979C18.1496 32.3999 18.7089 32.2918 19.0306 31.5567C19.3499 30.8271 19.307 29.7429 18.9341 29.1483L18.9365 29.1429Z" fill="#ACACA7"/>
<path d="M18.4152 29.5292C18.2602 29.481 18.0889 29.5956 17.9761 29.8534C17.8057 30.2429 17.8256 30.8137 18.0233 31.129C18.1324 31.3075 18.278 31.3647 18.4112 31.3119C18.3325 31.2905 18.2567 31.2247 18.1861 31.1219C17.9883 30.8065 17.9638 30.2337 18.1389 29.8462C18.2133 29.6762 18.3077 29.5737 18.4128 29.5347L18.4152 29.5292Z" fill="#989893"/>
<path d="M18.638 29.7246C18.5744 29.6183 18.494 29.5505 18.4152 29.5291C18.3147 29.5701 18.2157 29.6705 18.1413 29.8406C17.9708 30.2301 17.9908 30.8009 18.1885 31.1162C18.2521 31.2225 18.3325 31.2904 18.4136 31.3063C18.5188 31.2673 18.6156 31.1593 18.6876 30.9948C18.8556 30.6108 18.8311 30.0379 18.638 29.7246Z" fill="#C0C0BC"/>
<path d="M18.5105 30.2047C18.4491 30.106 18.3582 30.125 18.3078 30.2402C18.2574 30.3554 18.2643 30.5284 18.3256 30.6271C18.387 30.7259 18.4779 30.7068 18.5283 30.5916C18.5787 30.4765 18.5743 30.298 18.5105 30.2047Z" fill="#121214"/>
<path d="M19.2284 28.8785L16.6962 24.8159L16.1596 24.6333L15.866 24.6878L15.8379 25.3684L16.363 26.2061L16.0321 27.9306L17.5164 30.3124L17.457 30.7374L17.7506 30.6829L18.5817 29.7524L18.8022 30.1039L18.3485 31.1406L18.6467 31.0881L19.1069 30.5901L19.4286 29.8551L19.2425 28.8716L19.2284 28.8785ZM17.6257 29.8112L16.4937 27.9954L17.1131 26.5801L18.2451 28.3959L17.6257 29.8112Z" fill="#121214"/>
<path d="M15.8234 26.5712L15.5298 26.6257L15.8539 25.8852L16.1475 25.8306L15.8234 26.5712Z" fill="#121214"/>
<path d="M16.2458 26.9393C16.3178 26.7747 16.3072 26.5347 16.2231 26.3999C16.1822 26.3297 16.1268 26.3055 16.0732 26.3147L15.6654 26.3911L15.7083 27.1485L16.1161 27.072C16.1651 27.0608 16.2122 27.0161 16.2458 26.9393Z" fill="#121214"/>
<path d="M15.82 26.4782C15.7359 26.3434 15.6101 26.3667 15.5381 26.5313C15.4661 26.6959 15.4766 26.9358 15.5608 27.0707C15.6449 27.2055 15.7707 27.1822 15.8427 27.0176C15.9147 26.853 15.9041 26.6131 15.82 26.4782Z" fill="#313330"/>
<path d="M18.9349 28.9329L16.4027 24.8703L15.866 24.6877L15.5443 25.4227L15.3707 26.3729L15.5321 26.6331L15.849 25.909L16.0717 26.268L15.7408 27.9925L17.4593 30.7448L18.2904 29.8143L18.511 30.1657L18.1941 30.8898L18.3554 31.15L18.8156 30.652L19.1373 29.9169L18.9512 28.9335L18.9349 28.9329ZM17.3322 29.8655L16.2002 28.0498L16.8196 26.6345L17.9516 28.4503L17.3322 29.8655Z" fill="#313330"/>
<path d="M16.9835 26.8893L16.9004 26.8529L16.257 28.323C16.2282 28.3889 16.2409 28.4729 16.2908 28.5601C16.3999 28.7385 16.654 28.8498 16.8591 28.8088C16.9616 28.7883 17.0344 28.7352 17.0634 28.6564L17.4836 27.6964L16.9835 26.8893Z" fill="#989893"/>
<path d="M17.2833 27.3736C17.1373 27.3424 16.9968 27.2483 16.9172 27.1284C16.8626 27.0392 16.8545 26.9572 16.8833 26.8914L16.8545 26.9572C16.8257 27.023 16.8385 27.107 16.8884 27.1942C16.9747 27.3366 17.1523 27.4339 17.3287 27.4458L17.2833 27.3736Z" fill="#565953"/>
<path d="M17.3675 27.5083C17.1768 27.5164 16.9645 27.4104 16.8691 27.251C16.8145 27.1617 16.8064 27.0797 16.8352 27.0139L16.8064 27.0797C16.7776 27.1456 16.7904 27.2296 16.8403 27.3168C16.9517 27.4898 17.1988 27.6044 17.4039 27.5635L17.3675 27.5083Z" fill="#565953"/>
<path d="M17.4289 27.6072C17.4289 27.6072 17.3962 27.619 17.38 27.6184C17.1749 27.6594 16.9208 27.5482 16.8117 27.3697C16.7572 27.2805 16.749 27.1985 16.7778 27.1327L16.749 27.1985C16.7202 27.2643 16.733 27.3484 16.7829 27.4356C16.892 27.614 17.146 27.7252 17.3511 27.6843C17.3885 27.6745 17.4258 27.6647 17.4492 27.6488L17.4219 27.6107L17.4289 27.6072Z" fill="#565953"/>
<path d="M17.4723 27.6718C17.437 27.7021 17.3878 27.7264 17.3272 27.7391C17.1221 27.78 16.868 27.6688 16.759 27.4904C16.7044 27.4011 16.6963 27.3191 16.7251 27.2533L16.6963 27.3191C16.6675 27.385 16.6802 27.469 16.7302 27.5562C16.8392 27.7346 17.0933 27.8458 17.2984 27.8049C17.3823 27.7893 17.4433 27.7506 17.4789 27.6943L17.4652 27.6753L17.4723 27.6718Z" fill="#565953"/>
<path d="M17.2742 27.8598C17.0691 27.9007 16.8151 27.7895 16.706 27.6111C16.6491 27.5273 16.6433 27.4399 16.6721 27.374L16.6433 27.4398C16.6145 27.5057 16.6273 27.5897 16.6772 27.6769C16.7862 27.8554 17.0403 27.9666 17.2454 27.9256C17.348 27.9051 17.4208 27.852 17.4498 27.7732L17.4714 27.7238C17.4426 27.7896 17.3698 27.8428 17.2742 27.8598Z" fill="#565953"/>
<path d="M17.2215 27.9805C17.0164 28.0215 16.7623 27.9103 16.6533 27.7318C16.5963 27.6481 16.5906 27.5606 16.6194 27.4948L16.5906 27.5606C16.5618 27.6264 16.5745 27.7104 16.6244 27.7976C16.7335 27.9761 16.9876 28.0873 17.1927 28.0463C17.2952 28.0258 17.368 27.9727 17.397 27.8939L17.4186 27.8445C17.3898 27.9104 17.317 27.9635 17.2215 27.9805Z" fill="#565953"/>
<path d="M17.1707 28.0956C16.9656 28.1366 16.7115 28.0254 16.6025 27.8469C16.5479 27.7577 16.5398 27.6757 16.5686 27.6099L16.5398 27.6757C16.511 27.7415 16.5238 27.8255 16.5737 27.9127C16.6827 28.0912 16.9368 28.2024 17.1419 28.1614C17.2445 28.141 17.3172 28.0878 17.3462 28.009L17.3678 27.9597C17.339 28.0255 17.2662 28.0786 17.1707 28.0956Z" fill="#565953"/>
<path d="M17.1182 28.2163C16.9131 28.2573 16.659 28.1461 16.55 27.9676C16.4931 27.8839 16.4873 27.7964 16.5161 27.7306L16.4873 27.7964C16.4585 27.8622 16.4713 27.9463 16.5212 28.0335C16.6302 28.2119 16.8843 28.3231 17.0894 28.2822C17.192 28.2617 17.2648 28.2086 17.2938 28.1298L17.3154 28.0804C17.2841 28.1517 17.2138 28.1993 17.1182 28.2163Z" fill="#565953"/>
<path d="M17.0655 28.3371C16.8604 28.378 16.6063 28.2668 16.4972 28.0884C16.4427 27.9991 16.4346 27.9171 16.4634 27.8513L16.4346 27.9171C16.4058 27.983 16.4185 28.067 16.4684 28.1542C16.5775 28.3327 16.8316 28.4439 17.0367 28.4029C17.1392 28.3824 17.212 28.3293 17.241 28.2505L17.2626 28.2011C17.2338 28.2669 17.161 28.3201 17.0655 28.3371Z" fill="#565953"/>
<path d="M17.0125 28.4578C16.8074 28.4988 16.5533 28.3876 16.4443 28.2091C16.3873 28.1254 16.3816 28.0379 16.4104 27.972L16.3816 28.0379C16.3528 28.1037 16.3656 28.1877 16.4155 28.2749C16.5245 28.4534 16.7786 28.5646 16.9837 28.5236C17.0863 28.5031 17.159 28.45 17.188 28.3712L17.2096 28.3218C17.1784 28.3932 17.108 28.4408 17.0125 28.4578Z" fill="#565953"/>
<path d="M16.9598 28.5783C16.7547 28.6192 16.5006 28.508 16.3915 28.3296C16.337 28.2404 16.3289 28.1584 16.3577 28.0925L16.3289 28.1584C16.3 28.2242 16.3128 28.3082 16.3627 28.3954C16.4718 28.5739 16.7259 28.6851 16.931 28.6441C17.0335 28.6236 17.1063 28.5705 17.1353 28.4917L17.1569 28.4423C17.1257 28.5136 17.0553 28.5613 16.9574 28.5838L16.9598 28.5783Z" fill="#565953"/>
<path d="M16.9071 28.699C16.702 28.74 16.4479 28.6288 16.3388 28.4503C16.2843 28.3611 16.2761 28.2791 16.3049 28.2133L16.2761 28.2791C16.2473 28.3449 16.2601 28.4289 16.31 28.5161C16.4191 28.6946 16.6731 28.8058 16.8782 28.7648C16.9808 28.7444 17.0536 28.6912 17.0826 28.6124L17.1042 28.5631C17.0754 28.6289 17.0026 28.682 16.9071 28.699Z" fill="#565953"/>
<path d="M16.9307 26.8074C16.8692 26.885 16.8678 26.989 16.936 27.0973C17.0042 27.2055 17.1262 27.2916 17.2535 27.3277L16.9307 26.8074Z" fill="#C0C0BC"/>
<path d="M17.9541 28.4449L17.5063 27.7326L17.4231 27.6962L16.7797 29.1663C16.7509 29.2321 16.7636 29.3161 16.816 29.3979C16.925 29.5763 17.1791 29.6875 17.3842 29.6466C17.4029 29.6417 17.4145 29.6402 17.4332 29.6353L17.9541 28.4449Z" fill="#989893"/>
<path d="M17.8106 28.2187C17.6646 28.1875 17.5242 28.0933 17.4445 27.9735C17.39 27.8843 17.3818 27.8023 17.4106 27.7365L17.3818 27.8023C17.353 27.8681 17.3658 27.9521 17.4181 28.0338C17.5044 28.1762 17.682 28.2735 17.8561 28.2909L17.8106 28.2187Z" fill="#565953"/>
<path d="M17.8926 28.3461C17.7019 28.3541 17.4896 28.2481 17.3918 28.0942C17.3373 28.005 17.3291 27.923 17.3579 27.8572L17.3291 27.923C17.3003 27.9888 17.3131 28.0729 17.363 28.1601C17.4744 28.333 17.7215 28.4477 17.9266 28.4067L17.8902 28.3516L17.8926 28.3461Z" fill="#565953"/>
<path d="M17.9514 28.4503C17.9514 28.4503 17.9211 28.4567 17.9024 28.4616C17.6973 28.5026 17.4432 28.3913 17.3342 28.2129C17.2772 28.1291 17.2715 28.0417 17.3003 27.9758L17.2715 28.0417C17.2427 28.1075 17.2554 28.1915 17.3078 28.2732C17.4168 28.4517 17.6709 28.5629 17.876 28.5219C17.8947 28.517 17.9063 28.5156 17.925 28.5107L17.9514 28.4503Z" fill="#565953"/>
<path d="M17.8989 28.5711C17.8989 28.5711 17.8686 28.5774 17.8499 28.5823C17.6448 28.6233 17.3907 28.5121 17.2817 28.3336C17.2271 28.2444 17.219 28.1624 17.2478 28.0966L17.219 28.1624C17.1902 28.2282 17.203 28.3122 17.2529 28.3994C17.3619 28.5779 17.616 28.6891 17.8211 28.6481C17.8398 28.6432 17.8514 28.6418 17.8701 28.6369L17.8965 28.5765L17.8989 28.5711Z" fill="#565953"/>
<path d="M17.8483 28.6862C17.8483 28.6862 17.818 28.6925 17.7994 28.6974C17.5943 28.7384 17.3402 28.6272 17.2311 28.4487C17.1766 28.3595 17.1685 28.2775 17.1973 28.2117L17.1685 28.2775C17.1396 28.3433 17.1524 28.4273 17.2023 28.5146C17.3114 28.693 17.5655 28.8042 17.7706 28.7633C17.7892 28.7583 17.8009 28.7569 17.8195 28.752L17.8459 28.6917L17.8483 28.6862Z" fill="#565953"/>
<path d="M17.7954 28.8069C17.7954 28.8069 17.7651 28.8132 17.7464 28.8182C17.5437 28.8536 17.2896 28.7424 17.1782 28.5695C17.1236 28.4802 17.1155 28.3982 17.1443 28.3324L17.1155 28.3982C17.0867 28.4641 17.0994 28.5481 17.1493 28.6353C17.2584 28.8137 17.5125 28.9249 17.7176 28.884C17.7363 28.8791 17.7479 28.8776 17.7666 28.8727L17.793 28.8124L17.7954 28.8069Z" fill="#565953"/>
<path d="M17.7426 28.9276C17.7426 28.9276 17.7123 28.934 17.6937 28.9389C17.4886 28.9798 17.2345 28.8686 17.1254 28.6902C17.0685 28.6064 17.0627 28.519 17.0916 28.4531L17.0627 28.519C17.0339 28.5848 17.0467 28.6688 17.099 28.7505C17.2081 28.929 17.4622 29.0402 17.6673 28.9992C17.6859 28.9943 17.6976 28.9929 17.7162 28.988L17.7426 28.9276Z" fill="#565953"/>
<path d="M17.6899 29.0484C17.6899 29.0484 17.6596 29.0547 17.6409 29.0596C17.4358 29.1006 17.1817 28.9894 17.0727 28.8109C17.0158 28.7272 17.01 28.6397 17.0388 28.5739L17.01 28.6397C16.9812 28.7055 16.994 28.7895 17.0439 28.8767C17.1529 29.0552 17.407 29.1664 17.6121 29.1254C17.6308 29.1205 17.6424 29.1191 17.6611 29.1142L17.6875 29.0538L17.6899 29.0484Z" fill="#565953"/>
<path d="M17.6372 29.169C17.6372 29.169 17.6069 29.1753 17.5882 29.1802C17.3855 29.2157 17.1314 29.1045 17.02 28.9315C16.9654 28.8423 16.9573 28.7603 16.9861 28.6945L16.9573 28.7603C16.9285 28.8261 16.9412 28.9101 16.9911 28.9973C17.1002 29.1758 17.3543 29.287 17.5594 29.246C17.5781 29.2411 17.5897 29.2397 17.6084 29.2348L17.6348 29.1744L17.6372 29.169Z" fill="#565953"/>
<path d="M17.5844 29.2896C17.5844 29.2896 17.5541 29.2959 17.5355 29.3008C17.3304 29.3418 17.0763 29.2306 16.9672 29.0521C16.9127 28.9629 16.9045 28.8809 16.9333 28.8151L16.9045 28.8809C16.8757 28.9467 16.8885 29.0307 16.9384 29.1179C17.0475 29.2964 17.3016 29.4076 17.5067 29.3666C17.5253 29.3617 17.537 29.3603 17.5556 29.3554L17.582 29.2951L17.5844 29.2896Z" fill="#565953"/>
<path d="M17.5315 29.4102C17.5315 29.4102 17.5012 29.4165 17.4825 29.4214C17.2774 29.4624 17.0233 29.3512 16.9142 29.1727C16.8597 29.0835 16.8516 29.0015 16.8804 28.9357L16.8516 29.0015C16.8228 29.0673 16.8355 29.1513 16.8878 29.2331C16.9969 29.4115 17.251 29.5227 17.4561 29.4818C17.4747 29.4769 17.4864 29.4754 17.505 29.4705L17.5315 29.4102Z" fill="#565953"/>
<path d="M17.4787 29.531C17.4787 29.531 17.4484 29.5374 17.4298 29.5423C17.2247 29.5832 16.9706 29.472 16.8615 29.2936C16.8046 29.2098 16.7988 29.1223 16.8276 29.0565L16.7988 29.1223C16.77 29.1882 16.7828 29.2722 16.8327 29.3594C16.9418 29.5379 17.1959 29.6491 17.4009 29.6081C17.4196 29.6032 17.4312 29.6018 17.4499 29.5968L17.4763 29.5365L17.4787 29.531Z" fill="#565953"/>
<path d="M17.4561 27.6451C17.3946 27.7228 17.3932 27.8267 17.4614 27.935C17.5296 28.0433 17.6516 28.1294 17.7789 28.1655L17.4561 27.6451Z" fill="#C0C0BC"/>
<path d="M18.5019 30.162L18.4247 30.0366C18.4247 30.0366 18.4038 30.034 18.3968 30.0375L17.989 30.1139L18.0318 30.8713L18.2066 30.8367L18.5043 30.1565L18.5019 30.162Z" fill="#121214"/>
<path d="M18.1386 30.1991C18.0545 30.0642 17.9287 30.0876 17.8567 30.2521C17.7847 30.4167 17.7953 30.6566 17.8794 30.7915C17.9635 30.9264 18.0893 30.903 18.1613 30.7384C18.2333 30.5739 18.2227 30.3339 18.1386 30.1991Z" fill="#313330"/>
<path d="M20.9493 31.789C21.3244 32.3911 21.3651 33.4678 21.0434 34.2028C20.8825 34.5704 20.6588 34.7797 20.4258 34.8215L20.0557 34.8621L19.9407 31.4522L20.3718 31.3728C20.5787 31.3654 20.7741 31.5228 20.9423 31.7925L20.9493 31.789Z" fill="#858580"/>
<path d="M20.6072 31.8287C20.2321 31.2266 19.6729 31.3348 19.3511 32.0698C19.0294 32.8049 19.0748 33.8836 19.4452 34.4837C19.8203 35.0857 20.3796 34.9776 20.7013 34.2425C21.0206 33.5129 20.9776 32.4287 20.6048 31.8341L20.6072 31.8287Z" fill="#ACACA7"/>
<path d="M20.0859 32.2149C19.9262 32.1646 19.7596 32.2813 19.6468 32.5391C19.4763 32.9285 19.4962 33.4994 19.6986 33.8167C19.8077 33.9952 19.9533 34.0524 20.0865 33.9996C20.0078 33.9782 19.932 33.9123 19.8638 33.8041C19.666 33.4887 19.6415 32.9159 19.8166 32.5284C19.891 32.3584 19.9854 32.2559 20.0905 32.2169L20.0859 32.2149Z" fill="#989893"/>
<path d="M20.3084 32.4104C20.2448 32.3041 20.1644 32.2363 20.0857 32.2149C19.9852 32.2559 19.8861 32.3563 19.8117 32.5264C19.6413 32.9159 19.6612 33.4867 19.8589 33.802C19.9225 33.9083 20.0029 33.9762 20.0817 33.9975C20.1868 33.9586 20.2836 33.8506 20.3556 33.686C20.5237 33.302 20.4991 32.7292 20.306 32.4159L20.3084 32.4104Z" fill="#C0C0BC"/>
<path d="M20.1809 32.8905C20.1195 32.7918 20.0286 32.8108 19.9782 32.926C19.9278 33.0412 19.9347 33.2142 19.996 33.3129C20.0574 33.4117 20.1483 33.3926 20.1987 33.2774C20.2492 33.1622 20.2423 32.9893 20.1855 32.8926L20.1809 32.8905Z" fill="#121214"/>
<path d="M23.2703 35.504C23.6454 36.1061 23.6861 37.1828 23.3644 37.9178C23.2035 38.2854 22.9798 38.4947 22.7468 38.5365L22.3767 38.5771L22.2617 35.1672L22.6928 35.0878C22.8997 35.0804 23.0951 35.2378 23.2657 35.502L23.2703 35.504Z" fill="#858580"/>
<path d="M22.9258 35.5494C22.5507 34.9473 21.9915 35.0555 21.6697 35.7905C21.348 36.5256 21.3934 37.6043 21.7662 38.1989C22.1413 38.801 22.7006 38.6928 23.0223 37.9577C23.3416 37.2281 23.2986 36.1439 22.9258 35.5494Z" fill="#ACACA7"/>
<path d="M22.4045 35.9355C22.2448 35.8852 22.0782 36.0018 21.9654 36.2597C21.7949 36.6491 21.8148 37.22 22.0172 37.5373C22.1263 37.7158 22.2719 37.773 22.4051 37.7201C22.3264 37.6988 22.2506 37.6329 22.18 37.5301C21.9822 37.2148 21.9577 36.6419 22.1328 36.2545C22.2072 36.0844 22.3016 35.9819 22.4067 35.943L22.4045 35.9355Z" fill="#989893"/>
<path d="M22.6272 36.1311C22.5636 36.0248 22.4832 35.957 22.4045 35.9356C22.304 35.9766 22.205 36.077 22.1306 36.2471C21.9601 36.6366 21.98 37.2074 22.1778 37.5227C22.2414 37.629 22.3218 37.6969 22.4029 37.7128C22.508 37.6738 22.6048 37.5658 22.6768 37.4013C22.8449 37.0173 22.8204 36.4444 22.6272 36.1311Z" fill="#C0C0BC"/>
<path d="M22.4995 36.6112C22.4381 36.5125 22.3472 36.5315 22.2968 36.6467C22.2464 36.7619 22.2533 36.9349 22.3146 37.0336C22.376 37.1324 22.4669 37.1133 22.5127 36.9961C22.5631 36.8809 22.5587 36.7025 22.4995 36.6112Z" fill="#121214"/>
<path d="M23.2201 35.2795L20.6879 31.2169L20.1513 31.0343L19.8577 31.0888L19.8296 31.7694L20.3547 32.6071L20.0238 34.3316L21.5081 36.7134L21.4441 37.1364L21.7377 37.0819L22.5688 36.1514L22.7893 36.5028L22.3356 37.5396L22.6338 37.4871L23.094 36.9891L23.4157 36.254L23.2295 35.2706L23.2201 35.2795ZM21.6174 36.2122L20.4854 34.3964L21.1048 32.9811L22.2368 34.7969L21.6174 36.2122Z" fill="#121214"/>
<path d="M19.8125 32.9776L19.5189 33.0321L19.8454 32.286L20.139 32.2315L19.8125 32.9776Z" fill="#121214"/>
<path d="M20.2351 33.3456C20.3071 33.181 20.2965 32.941 20.2124 32.8062C20.1715 32.736 20.1161 32.7118 20.0625 32.721L19.6593 32.7995L19.6998 33.5623L20.1076 33.4859C20.1566 33.4746 20.2037 33.4299 20.2373 33.3531L20.2351 33.3456Z" fill="#121214"/>
<path d="M19.8115 32.8791C19.7274 32.7443 19.6016 32.7676 19.5295 32.9322C19.4575 33.0968 19.4681 33.3367 19.5522 33.4716C19.6363 33.6064 19.7621 33.583 19.8342 33.4185C19.9062 33.2539 19.8956 33.014 19.8115 32.8791Z" fill="#313330"/>
<path d="M22.9264 35.3339L20.3941 31.2713L19.8575 31.0887L19.5358 31.8237L19.3621 32.7739L19.5235 33.0341L19.8404 32.31L20.0585 32.6669L19.7277 34.3915L21.4462 37.1437L22.2749 36.2188L22.4954 36.5702L22.1785 37.2943L22.3399 37.5545L22.8 37.0565L23.1217 36.3214L22.9356 35.3379L22.9264 35.3339ZM21.3236 36.2665L20.1916 34.4508L20.811 33.0355L21.9431 34.8513L21.3236 36.2665Z" fill="#313330"/>
<path d="M20.9723 33.2957L20.8892 33.2593L20.2457 34.7294C20.2169 34.7952 20.2297 34.8793 20.2796 34.9665C20.3887 35.1449 20.6428 35.2561 20.8479 35.2152C20.955 35.1967 21.0232 35.1416 21.0522 35.0627L21.4723 34.1028L20.9723 33.2957Z" fill="#989893"/>
<path d="M21.2792 33.7766C21.1332 33.7454 20.9927 33.6512 20.9131 33.5314C20.8632 33.4442 20.8504 33.3601 20.8816 33.2888L20.8528 33.3546C20.824 33.4205 20.8367 33.5045 20.8867 33.5917C20.973 33.7341 21.1506 33.8314 21.327 33.8433L21.2816 33.7711L21.2792 33.7766Z" fill="#565953"/>
<path d="M21.3587 33.9095C21.168 33.9175 20.9556 33.8115 20.8578 33.6576C20.8079 33.5704 20.7952 33.4864 20.824 33.4205L20.7952 33.4864C20.7664 33.5522 20.7791 33.6362 20.829 33.7234C20.9405 33.8964 21.1876 34.0111 21.3927 33.9701L21.3563 33.9149L21.3587 33.9095Z" fill="#565953"/>
<path d="M21.4201 34.0081C21.4201 34.0081 21.3874 34.0199 21.3712 34.0193C21.1661 34.0603 20.912 33.9491 20.8029 33.7706C20.7506 33.6889 20.7402 33.5994 20.769 33.5336L20.7402 33.5994C20.7114 33.6652 20.7242 33.7492 20.7765 33.831C20.8856 34.0094 21.1397 34.1206 21.3448 34.0797C21.3821 34.0699 21.4148 34.058 21.4429 34.0442L21.4155 34.0061L21.4201 34.0081Z" fill="#565953"/>
<path d="M21.4613 34.0783C21.426 34.1086 21.3768 34.1329 21.3162 34.1455C21.1111 34.1865 20.857 34.0753 20.748 33.8968C20.6957 33.8151 20.6853 33.7256 20.7141 33.6598L20.6853 33.7256C20.6565 33.7914 20.6693 33.8755 20.7192 33.9627C20.8282 34.1411 21.0823 34.2523 21.2874 34.2114C21.3713 34.1958 21.4323 34.1571 21.4679 34.1008L21.4589 34.0838L21.4613 34.0783Z" fill="#565953"/>
<path d="M21.2654 34.2608C21.0604 34.3017 20.8063 34.1905 20.6972 34.0121C20.6449 33.9304 20.6345 33.8409 20.6633 33.775L20.6345 33.8409C20.6057 33.9067 20.6185 33.9907 20.6684 34.0779C20.7775 34.2564 21.0315 34.3676 21.2366 34.3266C21.3438 34.3081 21.412 34.253 21.441 34.1742L21.4626 34.1248C21.4338 34.1906 21.361 34.2438 21.2654 34.2608Z" fill="#565953"/>
<path d="M21.2128 34.3814C21.0077 34.4223 20.7536 34.3111 20.6445 34.1327C20.5946 34.0455 20.5818 33.9614 20.613 33.8901L20.5842 33.956C20.5554 34.0218 20.5682 34.1058 20.6181 34.193C20.7272 34.3715 20.9813 34.4827 21.1863 34.4417C21.2935 34.4233 21.3617 34.3681 21.3907 34.2893L21.4123 34.2399C21.3835 34.3058 21.3107 34.3589 21.2152 34.3759L21.2128 34.3814Z" fill="#565953"/>
<path d="M21.16 34.5021C20.9549 34.5431 20.7008 34.4319 20.5918 34.2534C20.5419 34.1662 20.5291 34.0822 20.5579 34.0164L20.5291 34.0822C20.5003 34.148 20.5131 34.232 20.5654 34.3137C20.6744 34.4922 20.9285 34.6034 21.1336 34.5624C21.2408 34.544 21.3089 34.4888 21.3379 34.41L21.3595 34.3607C21.3307 34.4265 21.2579 34.4796 21.1624 34.4966L21.16 34.5021Z" fill="#565953"/>
<path d="M21.1072 34.6228C20.9046 34.6583 20.6505 34.5471 20.539 34.3741C20.4867 34.2924 20.4763 34.2029 20.5051 34.1371L20.4763 34.2029C20.4475 34.2687 20.4603 34.3528 20.5102 34.44C20.6192 34.6184 20.8733 34.7296 21.0784 34.6887C21.1856 34.6702 21.2538 34.6151 21.2828 34.5362L21.3044 34.4869C21.2732 34.5582 21.2028 34.6058 21.1072 34.6228Z" fill="#565953"/>
<path d="M21.0543 34.7434C20.8492 34.7844 20.5951 34.6732 20.486 34.4947C20.4361 34.4075 20.4233 34.3235 20.4521 34.2577L20.4233 34.3235C20.3945 34.3893 20.4073 34.4734 20.4572 34.5606C20.5663 34.739 20.8204 34.8502 21.0255 34.8093C21.1326 34.7908 21.2008 34.7357 21.2298 34.6569L21.2514 34.6075C21.2202 34.6788 21.1498 34.7264 21.0543 34.7434Z" fill="#565953"/>
<path d="M21.0015 34.8642C20.7964 34.9051 20.5423 34.7939 20.4333 34.6155C20.3834 34.5283 20.3706 34.4442 20.3994 34.3784L20.3706 34.4442C20.3418 34.5101 20.3546 34.5941 20.4045 34.6813C20.5135 34.8598 20.7676 34.971 20.9727 34.93C21.0799 34.9115 21.1481 34.8564 21.1771 34.7776L21.1987 34.7282C21.1698 34.794 21.0971 34.8472 21.0015 34.8642Z" fill="#565953"/>
<path d="M20.951 34.9793C20.7459 35.0203 20.4918 34.909 20.3827 34.7306C20.3328 34.6434 20.3201 34.5594 20.3489 34.4935L20.3201 34.5594C20.2913 34.6252 20.304 34.7092 20.3539 34.7964C20.463 34.9749 20.7171 35.0861 20.9222 35.0451C21.0294 35.0267 21.0975 34.9715 21.1265 34.8927L21.1481 34.8433C21.1193 34.9092 21.0465 34.9623 20.951 34.9793Z" fill="#565953"/>
<path d="M20.8983 35.1C20.6932 35.141 20.4391 35.0298 20.33 34.8513C20.2801 34.7641 20.2673 34.6801 20.2961 34.6143L20.2673 34.6801C20.2385 34.7459 20.2513 34.8299 20.3012 34.9171C20.4103 35.0956 20.6644 35.2068 20.8695 35.1658C20.9766 35.1474 21.0448 35.0922 21.0738 35.0134L21.0954 34.9641C21.0666 35.0299 20.9938 35.083 20.8983 35.1Z" fill="#565953"/>
<path d="M20.9224 33.2085C20.8609 33.2861 20.8595 33.3901 20.9277 33.4984C20.9959 33.6067 21.1179 33.6927 21.2498 33.7309L20.9224 33.2085Z" fill="#C0C0BC"/>
<path d="M21.9432 34.8512L21.4953 34.1388L21.4121 34.1024L20.7687 35.5725C20.7399 35.6384 20.7527 35.7224 20.805 35.8041C20.914 35.9826 21.1681 36.0938 21.3732 36.0528C21.3919 36.0479 21.4035 36.0465 21.4222 36.0416L21.9432 34.8512Z" fill="#989893"/>
<path d="M21.8026 34.6196C21.6566 34.5884 21.5161 34.4942 21.4365 34.3744C21.3795 34.2906 21.3738 34.2032 21.4026 34.1373L21.3738 34.2032C21.345 34.269 21.3577 34.353 21.41 34.4347C21.4964 34.5771 21.674 34.6744 21.8504 34.6863L21.805 34.6141L21.8026 34.6196Z" fill="#565953"/>
<path d="M21.8821 34.7525C21.6914 34.7605 21.4791 34.6545 21.3837 34.4951C21.3292 34.4059 21.321 34.3239 21.3499 34.2581L21.321 34.3239C21.2922 34.3897 21.305 34.4737 21.3549 34.5609C21.4664 34.7339 21.7135 34.8486 21.9185 34.8076L21.8821 34.7525Z" fill="#565953"/>
<path d="M21.9433 34.8512C21.9433 34.8512 21.913 34.8576 21.8944 34.8625C21.6893 34.9034 21.4352 34.7922 21.3261 34.6138C21.2692 34.53 21.2634 34.4425 21.2922 34.3767L21.2634 34.4425C21.2346 34.5084 21.2474 34.5924 21.2973 34.6796C21.4064 34.858 21.6605 34.9693 21.8655 34.9283C21.8842 34.9234 21.8958 34.9219 21.9145 34.917L21.9409 34.8567L21.9433 34.8512Z" fill="#565953"/>
<path d="M21.8906 34.9719C21.8906 34.9719 21.8603 34.9783 21.8417 34.9832C21.6366 35.0242 21.3825 34.9129 21.2734 34.7345C21.2189 34.6453 21.2107 34.5633 21.2419 34.4919L21.2131 34.5578C21.1843 34.6236 21.1971 34.7076 21.247 34.7948C21.3561 34.9733 21.6102 35.0845 21.8153 35.0435C21.8339 35.0386 21.8456 35.0372 21.8642 35.0323L21.8906 34.9719Z" fill="#565953"/>
<path d="M21.8376 35.0925C21.8376 35.0925 21.8073 35.0989 21.7886 35.1038C21.5835 35.1448 21.3295 35.0336 21.2204 34.8551C21.1659 34.7659 21.1577 34.6839 21.1865 34.618L21.1577 34.6839C21.1289 34.7497 21.1417 34.8337 21.194 34.9154C21.303 35.0939 21.5571 35.2051 21.7622 35.1641C21.7809 35.1592 21.7925 35.1578 21.8112 35.1529L21.8376 35.0925Z" fill="#565953"/>
<path d="M21.7846 35.2133C21.7846 35.2133 21.7543 35.2196 21.7357 35.2245C21.5306 35.2655 21.2765 35.1543 21.1674 34.9758C21.1129 34.8866 21.1047 34.8046 21.1335 34.7388L21.1047 34.8046C21.0759 34.8704 21.0887 34.9544 21.1386 35.0417C21.2477 35.2201 21.5018 35.3313 21.7069 35.2904C21.7255 35.2854 21.7372 35.284 21.7558 35.2791L21.7822 35.2188L21.7846 35.2133Z" fill="#565953"/>
<path d="M21.7319 35.3339C21.7319 35.3339 21.7016 35.3402 21.6829 35.3451C21.4778 35.3861 21.2237 35.2749 21.1147 35.0964C21.0577 35.0127 21.052 34.9252 21.0808 34.8594L21.052 34.9252C21.0232 34.991 21.036 35.0751 21.0883 35.1568C21.1973 35.3352 21.4514 35.4464 21.6565 35.4055C21.6752 35.4006 21.6868 35.3991 21.7055 35.3942L21.7319 35.3339Z" fill="#565953"/>
<path d="M21.6792 35.4546C21.6792 35.4546 21.6489 35.461 21.6302 35.4659C21.4251 35.5068 21.171 35.3956 21.0619 35.2172C21.0074 35.1279 20.9993 35.0459 21.0281 34.9801L20.9993 35.0459C20.9705 35.1118 20.9832 35.1958 21.0331 35.283C21.1422 35.4614 21.3963 35.5726 21.6014 35.5317C21.62 35.5268 21.6317 35.5253 21.6503 35.5204L21.6768 35.4601L21.6792 35.4546Z" fill="#565953"/>
<path d="M21.6286 35.5698C21.6286 35.5698 21.5983 35.5762 21.5797 35.5811C21.3746 35.6221 21.1205 35.5109 21.0114 35.3324C20.9569 35.2432 20.9487 35.1612 20.9775 35.0953L20.9487 35.1612C20.9199 35.227 20.9327 35.311 20.9826 35.3982C21.0917 35.5767 21.3458 35.6879 21.5508 35.6469C21.5695 35.642 21.5812 35.6406 21.5998 35.6357L21.6262 35.5753L21.6286 35.5698Z" fill="#565953"/>
<path d="M21.5759 35.6906C21.5759 35.6906 21.5456 35.6969 21.5269 35.7018C21.3218 35.7428 21.0677 35.6316 20.9587 35.4531C20.9041 35.3639 20.896 35.2819 20.9248 35.2161L20.896 35.2819C20.8672 35.3477 20.88 35.4317 20.9299 35.5189C21.0389 35.6974 21.293 35.8086 21.4981 35.7676C21.5168 35.7627 21.5284 35.7613 21.5471 35.7564L21.5735 35.6961L21.5759 35.6906Z" fill="#565953"/>
<path d="M21.5232 35.8112C21.5232 35.8112 21.4929 35.8175 21.4742 35.8224C21.2691 35.8634 21.015 35.7522 20.9059 35.5737C20.8514 35.4845 20.8433 35.4025 20.8721 35.3367L20.8433 35.4025C20.8145 35.4683 20.8272 35.5523 20.8771 35.6396C20.9862 35.818 21.2403 35.9292 21.4454 35.8883C21.464 35.8833 21.4757 35.8819 21.4943 35.877L21.5208 35.8167L21.5232 35.8112Z" fill="#565953"/>
<path d="M21.4705 35.9319C21.4705 35.9319 21.4402 35.9382 21.4215 35.9431C21.2164 35.9841 20.9623 35.8729 20.8532 35.6944C20.7987 35.6052 20.7906 35.5232 20.8218 35.4519L20.793 35.5177C20.7642 35.5836 20.7769 35.6676 20.8292 35.7493C20.9383 35.9278 21.1924 36.039 21.3975 35.998C21.4161 35.9931 21.4278 35.9917 21.4465 35.9867L21.4729 35.9264L21.4705 35.9319Z" fill="#565953"/>
<path d="M21.4456 34.0517C21.3841 34.1294 21.3827 34.2333 21.4509 34.3416C21.5191 34.4499 21.6411 34.536 21.7684 34.5721L21.441 34.0497L21.4456 34.0517Z" fill="#C0C0BC"/>
<path d="M22.4912 36.5683L22.4139 36.4429C22.4139 36.4429 22.3931 36.4403 22.386 36.4438L21.9829 36.5223L22.0257 37.2796L22.2005 37.245L22.4982 36.5648L22.4912 36.5683Z" fill="#121214"/>
<path d="M22.1325 36.6075C22.0484 36.4727 21.9226 36.496 21.8506 36.6606C21.7786 36.8251 21.7891 37.0651 21.8733 37.1999C21.9574 37.3348 22.0832 37.3114 22.1552 37.1469C22.2272 36.9823 22.2166 36.7424 22.1325 36.6075Z" fill="#313330"/>
<path d="M24.9648 38.1346C25.3398 38.7367 25.3805 39.8134 25.0588 40.5485C24.898 40.916 24.6743 41.1253 24.4459 41.1691L24.0758 41.2098L23.9632 37.7943L24.3943 37.715C24.6012 37.7075 24.7966 37.8649 24.9648 38.1346Z" fill="#858580"/>
<path d="M24.6226 38.1745C24.2475 37.5724 23.6882 37.6806 23.3665 38.4156C23.0448 39.1507 23.0902 40.2294 23.4606 40.8295C23.8357 41.4316 24.3949 41.3234 24.7167 40.5883C25.036 39.8587 24.993 38.7745 24.6202 38.18L24.6226 38.1745Z" fill="#ACACA7"/>
<path d="M24.0986 38.5662C23.9389 38.5159 23.7723 38.6326 23.6595 38.8904C23.489 39.2799 23.5089 39.8507 23.7067 40.166C23.8158 40.3445 23.9614 40.4017 24.0946 40.3489C24.0159 40.3275 23.9401 40.2616 23.8719 40.1534C23.6741 39.838 23.6496 39.2652 23.82 38.8757C23.8945 38.7056 23.9864 38.6086 24.094 38.5642L24.0986 38.5662Z" fill="#989893"/>
<path d="M24.3213 38.7617C24.2577 38.6555 24.1773 38.5876 24.0986 38.5662C23.9981 38.6072 23.8991 38.7077 23.8246 38.8777C23.6542 39.2672 23.6741 39.838 23.8765 40.1554C23.9401 40.2616 24.0205 40.3295 24.0992 40.3509C24.2043 40.3119 24.3011 40.2039 24.3732 40.0394C24.5412 39.6554 24.5167 39.0825 24.3235 38.7692L24.3213 38.7617Z" fill="#C0C0BC"/>
<path d="M24.1894 39.2399C24.1281 39.1411 24.0372 39.1602 23.9868 39.2754C23.9363 39.3906 23.9432 39.5635 24.0046 39.6623C24.066 39.761 24.1569 39.742 24.2073 39.6268C24.2577 39.5116 24.2508 39.3387 24.1894 39.2399Z" fill="#121214"/>
<path d="M27.2833 41.8555C27.6583 42.4576 27.699 43.5343 27.3773 44.2694C27.2165 44.6369 26.9928 44.8462 26.7598 44.888L26.3897 44.9287L26.2747 41.5187L26.7057 41.4394C26.9127 41.4319 27.1104 41.5838 27.2786 41.8535L27.2833 41.8555Z" fill="#858580"/>
<path d="M26.9409 41.8953C26.5659 41.2932 26.0066 41.4014 25.6849 42.1365C25.3632 42.8715 25.4085 43.9503 25.779 44.5503C26.1494 45.1504 26.7133 45.0442 27.035 44.3091C27.3543 43.5796 27.3114 42.4954 26.9385 41.9008L26.9409 41.8953Z" fill="#ACACA7"/>
<path d="M26.4172 42.287C26.2575 42.2368 26.0909 42.3534 25.9781 42.6112C25.8076 43.0007 25.8275 43.5715 26.0253 43.8869C26.1344 44.0653 26.28 44.1225 26.4132 44.0697C26.3345 44.0483 26.2587 43.9825 26.1905 43.8742C25.9927 43.5588 25.9682 42.986 26.1432 42.5985C26.2177 42.4285 26.3121 42.326 26.4172 42.287Z" fill="#989893"/>
<path d="M26.6399 42.4825C26.5763 42.3763 26.4959 42.3084 26.4172 42.287C26.3167 42.328 26.2177 42.4285 26.1433 42.5985C25.9728 42.988 25.9927 43.5588 26.1905 43.8742C26.2541 43.9804 26.3345 44.0483 26.4132 44.0697C26.5183 44.0307 26.6151 43.9227 26.6871 43.7582C26.8552 43.3742 26.8307 42.8013 26.6375 42.488L26.6399 42.4825Z" fill="#C0C0BC"/>
<path d="M26.5078 42.9607C26.4464 42.862 26.3602 42.883 26.3051 42.9962C26.2547 43.1114 26.2592 43.2898 26.3229 43.3831C26.3843 43.4819 26.4752 43.4628 26.5256 43.3476C26.5761 43.2324 26.5692 43.0595 26.5078 42.9607Z" fill="#121214"/>
<path d="M27.2331 41.631L24.7008 37.5683L24.1642 37.3858L23.8706 37.4403L23.8425 38.1208L24.3676 38.9585L24.0368 40.6831L25.5211 43.0648L25.4571 43.4878L25.7507 43.4333L26.5817 42.5028L26.8023 42.8543L26.3485 43.891L26.6467 43.8385L27.1069 43.3406L27.4286 42.6055L27.2425 41.622L27.2331 41.631ZM25.6303 42.5636L24.4983 40.7478L25.1177 39.3326L26.2497 41.1483L25.6303 42.5636Z" fill="#121214"/>
<path d="M23.8256 39.3292L23.5321 39.3838L23.8586 38.6377L24.1522 38.5832L23.8256 39.3292Z" fill="#121214"/>
<path d="M24.2507 39.6916C24.3227 39.5271 24.3121 39.2871 24.228 39.1523C24.1872 39.0821 24.1317 39.0578 24.0781 39.0671L23.675 39.1455L23.7178 39.9029L24.1256 39.8264C24.1746 39.8152 24.2217 39.7704 24.2553 39.6936L24.2507 39.6916Z" fill="#121214"/>
<path d="M23.8247 39.2308C23.7406 39.0959 23.6147 39.1193 23.5427 39.2839C23.4707 39.4484 23.4813 39.6884 23.5654 39.8232C23.6495 39.9581 23.7753 39.9347 23.8473 39.7702C23.9194 39.6056 23.9088 39.3657 23.8247 39.2308Z" fill="#313330"/>
<path d="M26.9395 41.6855L24.4073 37.6228L23.8707 37.4402L23.549 38.1753L23.3753 39.1255L23.5367 39.3857L23.8536 38.6616L24.0717 39.0185L23.7408 40.7431L25.4594 43.4953L26.2881 42.5703L26.5086 42.9218L26.1917 43.6458L26.353 43.906L26.8132 43.408L27.1349 42.673L26.9488 41.6895L26.9395 41.6855ZM25.3368 42.6181L24.2094 40.8044L24.8289 39.3891L25.9562 41.2028L25.3368 42.6181Z" fill="#313330"/>
<path d="M24.9879 39.6417L24.9048 39.6053L24.2614 41.0755C24.2326 41.1413 24.2453 41.2253 24.2952 41.3125C24.4043 41.491 24.6584 41.6022 24.8635 41.5612C24.966 41.5407 25.0388 41.4876 25.0678 41.4088L25.488 40.4488L24.9879 39.6417Z" fill="#989893"/>
<path d="M25.2882 40.1259C25.1422 40.0947 25.0017 40.0006 24.9221 39.8807C24.8675 39.7915 24.8594 39.7095 24.8882 39.6437L24.8594 39.7095C24.8306 39.7753 24.8433 39.8594 24.8932 39.9466C24.9796 40.0889 25.1572 40.1863 25.3336 40.1981L25.2882 40.1259Z" fill="#565953"/>
<path d="M25.3721 40.2608C25.1814 40.2688 24.9691 40.1628 24.8737 40.0034C24.8192 39.9142 24.811 39.8322 24.8398 39.7664L24.811 39.8322C24.7822 39.898 24.795 39.982 24.8449 40.0692C24.9564 40.2422 25.2034 40.3569 25.4085 40.3159L25.3721 40.2608Z" fill="#565953"/>
<path d="M25.4336 40.3596C25.4336 40.3596 25.4008 40.3715 25.3846 40.3709C25.1795 40.4119 24.9254 40.3006 24.8163 40.1222C24.7618 40.033 24.7537 39.951 24.7825 39.8851L24.7537 39.951C24.7249 40.0168 24.7376 40.1008 24.7899 40.1825C24.899 40.361 25.1531 40.4722 25.3582 40.4312C25.3955 40.4214 25.4328 40.4116 25.4563 40.3957L25.4289 40.3576L25.4336 40.3596Z" fill="#565953"/>
<path d="M25.4744 40.4297C25.4392 40.46 25.39 40.4843 25.3294 40.497C25.1243 40.538 24.8702 40.4267 24.7612 40.2483C24.7066 40.1591 24.6985 40.0771 24.7273 40.0112L24.6985 40.0771C24.6697 40.1429 24.6824 40.2269 24.7324 40.3141C24.8438 40.4871 25.0979 40.5983 25.3006 40.5628C25.3845 40.5472 25.4455 40.5086 25.4811 40.4523L25.4674 40.4332L25.4744 40.4297Z" fill="#565953"/>
<path d="M25.2789 40.6123C25.0738 40.6533 24.8197 40.5421 24.7106 40.3636C24.6537 40.2799 24.6479 40.1924 24.6768 40.1266L24.6479 40.1924C24.6191 40.2582 24.6319 40.3423 24.6818 40.4295C24.7909 40.6079 25.045 40.7191 25.2501 40.6782C25.3526 40.6577 25.4254 40.6046 25.4544 40.5257L25.476 40.4764C25.4472 40.5422 25.3744 40.5953 25.2789 40.6123Z" fill="#565953"/>
<path d="M25.2262 40.7329C25.0211 40.7739 24.767 40.6627 24.6579 40.4842C24.6034 40.395 24.5953 40.313 24.6265 40.2417L24.5977 40.3075C24.5688 40.3734 24.5816 40.4574 24.6315 40.5446C24.7406 40.723 24.9947 40.8342 25.1998 40.7933C25.3023 40.7728 25.3751 40.7197 25.4041 40.6409L25.4257 40.5915C25.3969 40.6573 25.3241 40.7104 25.2286 40.7275L25.2262 40.7329Z" fill="#565953"/>
<path d="M25.1732 40.8536C24.9681 40.8945 24.714 40.7833 24.6049 40.6049C24.548 40.5211 24.5422 40.4336 24.571 40.3678L24.5422 40.4336C24.5134 40.4995 24.5262 40.5835 24.5761 40.6707C24.6852 40.8491 24.9393 40.9603 25.1444 40.9194C25.2469 40.8989 25.3197 40.8458 25.3487 40.767L25.3703 40.7176C25.3391 40.7889 25.2687 40.8365 25.1732 40.8536Z" fill="#565953"/>
<path d="M25.1207 40.9743C24.9156 41.0152 24.6615 40.904 24.5524 40.7256C24.4979 40.6364 24.4897 40.5544 24.5186 40.4885L24.4897 40.5544C24.4609 40.6202 24.4737 40.7042 24.5236 40.7914C24.6327 40.9699 24.8868 41.0811 25.0919 41.0401C25.1944 41.0196 25.2672 40.9665 25.2962 40.8877L25.3178 40.8383C25.289 40.9041 25.2162 40.9573 25.1207 40.9743Z" fill="#565953"/>
<path d="M25.0677 41.095C24.8626 41.136 24.6085 41.0248 24.4995 40.8463C24.445 40.7571 24.4368 40.6751 24.4656 40.6092L24.4368 40.6751C24.408 40.7409 24.4208 40.8249 24.4731 40.9066C24.5821 41.0851 24.8362 41.1963 25.0413 41.1553C25.1439 41.1349 25.2167 41.0817 25.2457 41.0029L25.2673 40.9536C25.2385 41.0194 25.1657 41.0725 25.0701 41.0895L25.0677 41.095Z" fill="#565953"/>
<path d="M25.0172 41.2101C24.8121 41.2511 24.558 41.1399 24.4489 40.9614C24.3944 40.8722 24.3862 40.7902 24.415 40.7244L24.3862 40.7902C24.3574 40.856 24.3702 40.94 24.4201 41.0273C24.5292 41.2057 24.7833 41.3169 24.9883 41.2759C25.0909 41.2555 25.1637 41.2023 25.1927 41.1235L25.2143 41.0742C25.1855 41.14 25.1127 41.1931 25.0172 41.2101Z" fill="#565953"/>
<path d="M24.9642 41.3308C24.7591 41.3718 24.505 41.2606 24.3959 41.0822C24.339 40.9984 24.3333 40.9109 24.3621 40.8451L24.3333 40.9109C24.3044 40.9767 24.3172 41.0608 24.3671 41.148C24.4762 41.3264 24.7303 41.4376 24.9354 41.3967C25.0379 41.3762 25.1107 41.3231 25.1397 41.2443L25.1613 41.1949C25.1325 41.2607 25.0597 41.3138 24.9642 41.3308Z" fill="#565953"/>
<path d="M24.9114 41.4515C24.7064 41.4924 24.4523 41.3812 24.3432 41.2028C24.2863 41.119 24.2805 41.0315 24.3093 40.9657L24.2805 41.0315C24.2517 41.0974 24.2645 41.1814 24.3144 41.2686C24.4234 41.447 24.6775 41.5582 24.8826 41.5173C24.9852 41.4968 25.058 41.4437 25.087 41.3649L25.1086 41.3155C25.0774 41.3868 25.007 41.4344 24.9114 41.4515Z" fill="#565953"/>
<path d="M24.9356 39.56C24.8741 39.6377 24.8727 39.7416 24.9409 39.8499C25.0091 39.9582 25.131 40.0443 25.2584 40.0804L24.9356 39.56Z" fill="#C0C0BC"/>
<path d="M25.9561 41.203L25.5106 40.4851L25.4275 40.4487L24.7841 41.9189C24.7553 41.9847 24.768 42.0687 24.8179 42.1559C24.927 42.3344 25.1811 42.4456 25.3862 42.4046C25.4049 42.3997 25.4165 42.3983 25.4305 42.3913L25.9515 41.201L25.9561 41.203Z" fill="#989893"/>
<path d="M25.8153 40.9713C25.6693 40.9401 25.5288 40.8459 25.4492 40.7261C25.3968 40.6443 25.3865 40.5548 25.4153 40.489L25.3865 40.5548C25.3577 40.6207 25.3704 40.7047 25.4203 40.7919C25.5067 40.9343 25.6843 41.0316 25.8607 41.0435L25.8153 40.9713Z" fill="#565953"/>
<path d="M25.8948 41.1041C25.7041 41.1122 25.4918 41.0062 25.3964 40.8468C25.3465 40.7596 25.3337 40.6756 25.3625 40.6097L25.3337 40.6756C25.3049 40.7414 25.3177 40.8254 25.3676 40.9126C25.4791 41.0856 25.7261 41.2003 25.9312 41.1593L25.8948 41.1041Z" fill="#565953"/>
<path d="M25.9563 41.2029C25.9563 41.2029 25.926 41.2093 25.9119 41.2162C25.7068 41.2572 25.4527 41.146 25.3437 40.9675C25.2938 40.8803 25.281 40.7963 25.3098 40.7305L25.281 40.7963C25.2522 40.8621 25.265 40.9461 25.3149 41.0334C25.4239 41.2118 25.678 41.323 25.8831 41.2821C25.9018 41.2771 25.9134 41.2757 25.9275 41.2688L25.9539 41.2084L25.9563 41.2029Z" fill="#565953"/>
<path d="M25.9033 41.3237C25.9033 41.3237 25.873 41.33 25.859 41.337C25.6539 41.3779 25.3998 41.2667 25.2907 41.0883C25.2408 41.001 25.228 40.917 25.2568 40.8512L25.228 40.917C25.1992 40.9828 25.212 41.0669 25.2619 41.1541C25.371 41.3325 25.6251 41.4437 25.8301 41.4028C25.8488 41.3979 25.8604 41.3964 25.8745 41.3895L25.9009 41.3292L25.9033 41.3237Z" fill="#565953"/>
<path d="M25.8506 41.4443C25.8506 41.4443 25.8203 41.4506 25.8062 41.4576C25.6011 41.4985 25.347 41.3873 25.238 41.2089C25.1857 41.1271 25.1753 41.0376 25.2041 40.9718L25.1753 41.0376C25.1465 41.1035 25.1593 41.1875 25.2092 41.2747C25.3182 41.4531 25.5723 41.5643 25.7774 41.5234C25.7961 41.5185 25.8077 41.517 25.8218 41.5101L25.8482 41.4498L25.8506 41.4443Z" fill="#565953"/>
<path d="M25.7976 41.565C25.7976 41.565 25.7673 41.5714 25.7532 41.5783C25.5481 41.6192 25.2941 41.508 25.185 41.3296C25.1327 41.2479 25.1223 41.1584 25.1511 41.0925L25.1223 41.1584C25.0935 41.2242 25.1063 41.3082 25.1562 41.3954C25.2652 41.5739 25.5193 41.6851 25.7244 41.6441C25.7431 41.6392 25.7547 41.6378 25.7688 41.6308L25.7952 41.5705L25.7976 41.565Z" fill="#565953"/>
<path d="M25.7449 41.6857C25.7449 41.6857 25.7145 41.6921 25.7005 41.699C25.4954 41.74 25.2413 41.6288 25.1323 41.4503C25.0823 41.3631 25.0696 41.2791 25.0984 41.2133L25.0696 41.2791C25.0408 41.3449 25.0535 41.4289 25.1035 41.5161C25.2125 41.6946 25.4666 41.8058 25.6717 41.7648C25.6904 41.7599 25.702 41.7585 25.716 41.7516L25.7424 41.6912L25.7449 41.6857Z" fill="#565953"/>
<path d="M25.6943 41.801C25.6943 41.801 25.664 41.8073 25.65 41.8142C25.4473 41.8497 25.1932 41.7385 25.0817 41.5655C25.0318 41.4783 25.019 41.3943 25.0479 41.3285L25.019 41.3943C24.9902 41.4601 25.003 41.5442 25.0529 41.6314C25.1644 41.8043 25.4185 41.9156 25.6212 41.8801C25.6398 41.8752 25.6515 41.8737 25.6655 41.8668L25.6919 41.8065L25.6943 41.801Z" fill="#565953"/>
<path d="M25.6416 41.9216C25.6416 41.9216 25.6113 41.9279 25.5972 41.9349C25.3921 41.9758 25.138 41.8646 25.029 41.6862C24.9791 41.5989 24.9663 41.5149 24.9951 41.4491L24.9663 41.5149C24.9375 41.5807 24.9503 41.6648 25.0002 41.752C25.1092 41.9304 25.3633 42.0416 25.5684 42.0007C25.5871 41.9958 25.5987 41.9943 25.6128 41.9874L25.6392 41.9271L25.6416 41.9216Z" fill="#565953"/>
<path d="M25.5886 42.0422C25.5886 42.0422 25.5583 42.0485 25.5443 42.0555C25.3392 42.0964 25.0851 41.9852 24.976 41.8068C24.9261 41.7196 24.9133 41.6355 24.9421 41.5697L24.9133 41.6355C24.8845 41.7014 24.8973 41.7854 24.9472 41.8726C25.0563 42.051 25.3104 42.1622 25.5154 42.1213C25.5341 42.1164 25.5457 42.1149 25.5598 42.108L25.5862 42.0477L25.5886 42.0422Z" fill="#565953"/>
<path d="M25.5361 42.1629C25.5361 42.1629 25.5058 42.1693 25.4918 42.1762C25.2867 42.2171 25.0326 42.1059 24.9235 41.9275C24.8712 41.8458 24.8608 41.7563 24.8896 41.6904L24.8608 41.7563C24.832 41.8221 24.8448 41.9061 24.8947 41.9933C25.0038 42.1718 25.2579 42.283 25.463 42.242C25.4816 42.2371 25.4933 42.2357 25.5073 42.2287L25.5337 42.1684L25.5361 42.1629Z" fill="#565953"/>
<path d="M25.4832 42.2835C25.4832 42.2835 25.4529 42.2899 25.4388 42.2968C25.2361 42.3323 24.982 42.2211 24.8706 42.0481C24.8207 41.9609 24.8079 41.8769 24.8391 41.8055L24.8103 41.8714C24.7815 41.9372 24.7943 42.0212 24.8442 42.1084C24.9532 42.2869 25.2073 42.3981 25.4124 42.3571C25.4311 42.3522 25.4427 42.3508 25.4568 42.3438L25.4832 42.2835Z" fill="#565953"/>
<path d="M25.4583 40.4033C25.3968 40.481 25.3954 40.5849 25.4636 40.6932C25.5318 40.8015 25.6537 40.8875 25.7811 40.9237L25.4583 40.4033Z" fill="#C0C0BC"/>
<path d="M26.5041 42.9194L26.4269 42.7941C26.4269 42.7941 26.406 42.7915 26.399 42.7949L25.9912 42.8714L26.034 43.6287L26.2088 43.5941L26.5065 42.9139L26.5041 42.9194Z" fill="#121214"/>
<path d="M26.1433 42.9513C26.0592 42.8164 25.9333 42.8398 25.8613 43.0043C25.7893 43.1689 25.7999 43.4088 25.884 43.5437C25.9681 43.6786 26.0939 43.6552 26.166 43.4906C26.238 43.3261 26.2274 43.0861 26.1433 42.9513Z" fill="#313330"/>
<path d="M28.9539 44.5411C29.329 45.1432 29.3697 46.2199 29.048 46.9549C28.8871 47.3224 28.6634 47.5317 28.4304 47.5736L28.0603 47.6142L27.9453 44.2042L28.3764 44.1249C28.5833 44.1174 28.7811 44.2693 28.9493 44.5391L28.9539 44.5411Z" fill="#858580"/>
<path d="M28.6118 44.5807C28.2368 43.9787 27.6775 44.0868 27.3558 44.8219C27.0341 45.557 27.0794 46.6357 27.4523 47.2302C27.8227 47.8303 28.3866 47.7241 28.7083 46.9891C29.0276 46.2595 28.9847 45.1753 28.6118 44.5807Z" fill="#ACACA7"/>
<path d="M28.0905 44.967C27.9309 44.9167 27.7642 45.0333 27.6514 45.2911C27.4809 45.6806 27.5009 46.2515 27.6986 46.5668C27.8077 46.7452 27.9533 46.8024 28.0865 46.7496C28.0078 46.7282 27.932 46.6624 27.8638 46.5541C27.666 46.2388 27.6415 45.6659 27.812 45.2764C27.8864 45.1064 27.9808 45.0039 28.0859 44.965L28.0905 44.967Z" fill="#989893"/>
<path d="M28.3132 45.1625C28.2497 45.0562 28.1693 44.9883 28.0905 44.967C27.99 45.0079 27.891 45.1084 27.8166 45.2785C27.6461 45.6679 27.666 46.2388 27.8685 46.5561C27.932 46.6624 28.0124 46.7303 28.0912 46.7516C28.1963 46.7127 28.2931 46.6047 28.3651 46.4401C28.5332 46.0561 28.5086 45.4833 28.3155 45.17L28.3132 45.1625Z" fill="#C0C0BC"/>
<path d="M28.1858 45.6427C28.1244 45.544 28.0381 45.565 27.9831 45.6782C27.9327 45.7934 27.9396 45.9664 28.0009 46.0651C28.0623 46.1639 28.1532 46.1448 28.2036 46.0296C28.254 45.9144 28.2496 45.736 28.1858 45.6427Z" fill="#121214"/>
<path d="M31.2728 48.2618C31.6478 48.8639 31.6885 49.9406 31.3668 50.6756C31.206 51.0432 30.9823 51.2524 30.7493 51.2943L30.3792 51.3349L30.2642 47.9249L30.6952 47.8456C30.9022 47.8381 31.0999 47.9901 31.2681 48.2598L31.2728 48.2618Z" fill="#858580"/>
<path d="M30.9302 48.3016C30.5551 47.6995 29.9958 47.8077 29.6741 48.5427C29.3524 49.2778 29.3978 50.3565 29.7706 50.9511C30.1411 51.5511 30.705 51.445 31.0267 50.7099C31.346 49.9803 31.303 48.8961 30.9302 48.3016Z" fill="#ACACA7"/>
<path d="M30.4091 48.6878C30.2495 48.6375 30.0828 48.7542 29.97 49.012C29.7995 49.4014 29.8195 49.9723 30.0172 50.2876C30.1263 50.4661 30.2719 50.5233 30.4051 50.4704C30.3264 50.4491 30.2506 50.3832 30.1824 50.2749C29.9846 49.9596 29.9601 49.3867 30.1306 48.9973C30.205 48.8272 30.2994 48.7247 30.4045 48.6858L30.4091 48.6878Z" fill="#989893"/>
<path d="M30.6316 48.8833C30.568 48.777 30.4876 48.7092 30.4089 48.6878C30.3084 48.7288 30.2094 48.8292 30.135 48.9993C29.9645 49.3888 29.9844 49.9596 30.1868 50.2769C30.2504 50.3832 30.3308 50.4511 30.4095 50.4725C30.5146 50.4335 30.6114 50.3255 30.6835 50.161C30.8515 49.777 30.827 49.2041 30.6338 48.8908L30.6316 48.8833Z" fill="#C0C0BC"/>
<path d="M30.5017 49.3689C30.4403 49.2702 30.3494 49.2892 30.299 49.4044C30.2486 49.5196 30.2555 49.6926 30.3168 49.7913C30.3782 49.8901 30.4691 49.871 30.5195 49.7558C30.57 49.6406 30.5631 49.4677 30.5017 49.3689Z" fill="#121214"/>
<path d="M31.2223 48.037L28.6901 43.9743L28.1535 43.7918L27.8599 43.8463L27.8318 44.5268L28.3569 45.3645L28.026 47.0891L29.5103 49.4708L29.4509 49.8958L29.7445 49.8413L30.5756 48.9109L30.7961 49.2623L30.3424 50.2991L30.6406 50.2466L31.1008 49.7486L31.4225 49.0135L31.2364 48.0301L31.2223 48.037ZM29.6196 48.9696L28.4876 47.1538L29.107 45.7386L30.239 47.5543L29.6196 48.9696Z" fill="#121214"/>
<path d="M27.8171 45.7296L27.5235 45.7842L27.8476 45.0436L28.1412 44.9891L27.8171 45.7296Z" fill="#121214"/>
<path d="M28.2399 46.0974C28.312 45.9328 28.3014 45.6929 28.2173 45.558C28.1764 45.4879 28.121 45.4636 28.0674 45.4728L27.6642 45.5513L27.7071 46.3086L28.1149 46.2322C28.1638 46.221 28.2109 46.1762 28.2446 46.0994L28.2399 46.0974Z" fill="#121214"/>
<path d="M27.8139 45.6364C27.7298 45.5016 27.604 45.5249 27.532 45.6895C27.46 45.8541 27.4705 46.094 27.5547 46.2289C27.6388 46.3637 27.7646 46.3404 27.8366 46.1758C27.9086 46.0112 27.898 45.7713 27.8139 45.6364Z" fill="#313330"/>
<path d="M30.9286 48.0913L28.3963 44.0287L27.8597 43.8461L27.538 44.5812L27.3643 45.5314L27.5257 45.7916L27.8426 45.0675L28.0607 45.4244L27.7298 47.1489L29.4484 49.9012L30.2795 48.9707L30.5 49.3222L30.1831 50.0462L30.3445 50.3064L30.8046 49.8084L31.1263 49.0734L30.9402 48.0899L30.9286 48.0913ZM29.3258 49.024L28.1938 47.2082L28.8132 45.7929L29.9452 47.6087L29.3258 49.024Z" fill="#313330"/>
<path d="M28.977 46.0477L28.8938 46.0114L28.2504 47.4815C28.2216 47.5473 28.2343 47.6313 28.2843 47.7185C28.3933 47.897 28.6474 48.0082 28.8525 47.9672C28.9551 47.9468 29.0278 47.8936 29.0568 47.8148L29.477 46.8548L28.977 46.0477Z" fill="#989893"/>
<path d="M29.2772 46.5321C29.1312 46.5009 28.9907 46.4067 28.9111 46.2869C28.8612 46.1997 28.8484 46.1156 28.8772 46.0498L28.8484 46.1156C28.8196 46.1815 28.8323 46.2655 28.8823 46.3527C28.9686 46.495 29.1462 46.5924 29.3226 46.6043L29.2772 46.5321Z" fill="#565953"/>
<path d="M29.3636 46.6614C29.1729 46.6694 28.9606 46.5634 28.8652 46.404C28.8129 46.3223 28.8025 46.2328 28.8313 46.167L28.8025 46.2328C28.7737 46.2986 28.7864 46.3827 28.8364 46.4699C28.9478 46.6428 29.1949 46.7575 29.4 46.7166L29.3636 46.6614Z" fill="#565953"/>
<path d="M29.4228 46.7656C29.4228 46.7656 29.3901 46.7775 29.3738 46.7769C29.1688 46.8179 28.9147 46.7067 28.8056 46.5282C28.7557 46.441 28.7429 46.357 28.7717 46.2911L28.7429 46.357C28.7141 46.4228 28.7269 46.5068 28.7768 46.594C28.8859 46.7725 29.1399 46.8837 29.345 46.8427C29.3824 46.8329 29.4151 46.8211 29.4431 46.8072L29.4158 46.7691L29.4228 46.7656Z" fill="#565953"/>
<path d="M29.4662 46.8304C29.4309 46.8607 29.3818 46.8849 29.3212 46.8976C29.1185 46.9331 28.8644 46.8219 28.7529 46.6489C28.703 46.5617 28.6902 46.4777 28.7214 46.4064L28.6926 46.4722C28.6638 46.538 28.6766 46.622 28.7289 46.7038C28.838 46.8822 29.0921 46.9934 29.2971 46.9525C29.381 46.9369 29.442 46.8982 29.4776 46.8419L29.464 46.8229L29.4662 46.8304Z" fill="#565953"/>
<path d="M29.2679 47.0183C29.0628 47.0593 28.8087 46.9481 28.6996 46.7697C28.6497 46.6824 28.637 46.5984 28.6658 46.5326L28.637 46.5984C28.6082 46.6642 28.6209 46.7483 28.6708 46.8355C28.7799 47.0139 29.034 47.1251 29.2391 47.0842C29.3416 47.0637 29.4144 47.0106 29.4434 46.9318L29.465 46.8824C29.4338 46.9537 29.3634 47.0013 29.2679 47.0183Z" fill="#565953"/>
<path d="M29.2176 47.1335C29.0125 47.1744 28.7584 47.0632 28.6493 46.8848C28.5994 46.7976 28.5867 46.7135 28.6155 46.6477L28.5867 46.7135C28.5579 46.7794 28.5706 46.8634 28.6205 46.9506C28.7296 47.129 28.9837 47.2403 29.1888 47.1993C29.2913 47.1788 29.3641 47.1257 29.3931 47.0469L29.4147 46.9975C29.3859 47.0633 29.3131 47.1164 29.2176 47.1335Z" fill="#565953"/>
<path d="M29.1649 47.2542C28.9598 47.2952 28.7057 47.1839 28.5966 47.0055C28.5443 46.9238 28.5339 46.8343 28.5627 46.7684L28.5339 46.8343C28.5051 46.9001 28.5179 46.9841 28.5678 47.0713C28.6769 47.2498 28.931 47.361 29.1361 47.32C29.2386 47.2995 29.3114 47.2464 29.3404 47.1676L29.362 47.1182C29.3332 47.1841 29.2604 47.2372 29.1649 47.2542Z" fill="#565953"/>
<path d="M29.1121 47.3748C28.907 47.4158 28.6529 47.3046 28.5439 47.1261C28.494 47.0389 28.4812 46.9549 28.51 46.889L28.4812 46.9549C28.4524 47.0207 28.4652 47.1047 28.5151 47.1919C28.6241 47.3704 28.8782 47.4816 29.0833 47.4406C29.1859 47.4201 29.2587 47.367 29.2876 47.2882L29.3093 47.2388C29.2804 47.3047 29.2077 47.3578 29.1121 47.3748Z" fill="#565953"/>
<path d="M29.0592 47.4954C28.8541 47.5364 28.6 47.4251 28.4909 47.2467C28.441 47.1595 28.4283 47.0755 28.4571 47.0096L28.4283 47.0755C28.3995 47.1413 28.4122 47.2253 28.4645 47.307C28.5736 47.4855 28.8277 47.5967 29.0328 47.5557C29.1353 47.5352 29.2081 47.4821 29.2371 47.4033L29.2587 47.3539C29.2299 47.4198 29.1571 47.4729 29.0616 47.4899L29.0592 47.4954Z" fill="#565953"/>
<path d="M29.0062 47.616C28.8011 47.657 28.547 47.5458 28.4379 47.3673C28.3856 47.2856 28.3752 47.1961 28.4041 47.1302L28.3752 47.1961C28.3464 47.2619 28.3592 47.3459 28.4091 47.4331C28.5182 47.6116 28.7723 47.7228 28.9774 47.6818C29.0799 47.6613 29.1527 47.6082 29.1817 47.5294L29.2033 47.48C29.1721 47.5514 29.1017 47.599 29.0062 47.616Z" fill="#565953"/>
<path d="M28.9534 47.7367C28.7483 47.7777 28.4942 47.6665 28.3852 47.488C28.3353 47.4008 28.3225 47.3168 28.3513 47.251L28.3225 47.3168C28.2937 47.3826 28.3065 47.4667 28.3564 47.5539C28.4678 47.7268 28.7219 47.838 28.9246 47.8026C29.0272 47.7821 29.1 47.729 29.129 47.6501L29.1506 47.6008C29.1218 47.6666 29.049 47.7197 28.9534 47.7367Z" fill="#565953"/>
<path d="M28.9007 47.8575C28.6956 47.8984 28.4415 47.7872 28.3325 47.6088C28.2801 47.527 28.2698 47.4375 28.2986 47.3717L28.2698 47.4375C28.241 47.5034 28.2537 47.5874 28.3036 47.6746C28.4127 47.853 28.6668 47.9643 28.8719 47.9233C28.9744 47.9028 29.0472 47.8497 29.0762 47.7709L29.0978 47.7215C29.069 47.7873 28.9962 47.8404 28.9007 47.8575Z" fill="#565953"/>
<path d="M28.9273 45.9604C28.8658 46.0381 28.8644 46.142 28.9326 46.2503C29.0008 46.3586 29.1227 46.4447 29.2547 46.4828L28.9273 45.9604Z" fill="#C0C0BC"/>
<path d="M29.9478 47.6031L29.5023 46.8853L29.4192 46.8489L28.7758 48.319C28.747 48.3848 28.7597 48.4689 28.8096 48.5561C28.9187 48.7345 29.1728 48.8457 29.3779 48.8048C29.3966 48.7999 29.4082 48.7984 29.4269 48.7935L29.9478 47.6031Z" fill="#989893"/>
<path d="M29.8067 47.3718C29.6607 47.3406 29.5203 47.2464 29.4406 47.1266C29.3861 47.0374 29.3779 46.9554 29.4067 46.8895L29.3779 46.9554C29.3491 47.0212 29.3619 47.1052 29.4118 47.1924C29.4981 47.3348 29.6757 47.4321 29.8522 47.444L29.8067 47.3718Z" fill="#565953"/>
<path d="M29.8863 47.5045C29.6956 47.5126 29.4833 47.4066 29.3879 47.2472C29.3333 47.158 29.3252 47.076 29.354 47.0101L29.3252 47.076C29.2964 47.1418 29.3092 47.2258 29.3591 47.313C29.4705 47.486 29.7176 47.6007 29.9227 47.5597L29.8863 47.5045Z" fill="#565953"/>
<path d="M29.9451 47.6088C29.9451 47.6088 29.9148 47.6151 29.8961 47.62C29.691 47.661 29.4369 47.5498 29.3279 47.3713C29.2733 47.2821 29.2652 47.2001 29.2964 47.1288L29.2676 47.1946C29.2388 47.2604 29.2515 47.3445 29.3014 47.4317C29.4105 47.6101 29.6646 47.7213 29.8697 47.6804C29.8884 47.6755 29.9 47.674 29.9187 47.6691L29.9451 47.6088Z" fill="#565953"/>
<path d="M29.8947 47.7241C29.8947 47.7241 29.8644 47.7305 29.8458 47.7354C29.6407 47.7764 29.3866 47.6651 29.2775 47.4867C29.2206 47.4029 29.2148 47.3155 29.2437 47.2496L29.2148 47.3155C29.186 47.3813 29.1988 47.4653 29.2487 47.5525C29.3578 47.731 29.6119 47.8422 29.817 47.8012C29.8356 47.7963 29.8473 47.7949 29.8659 47.79L29.8923 47.7296L29.8947 47.7241Z" fill="#565953"/>
<path d="M29.8422 47.8446C29.8422 47.8446 29.8119 47.851 29.7933 47.8559C29.5882 47.8968 29.3341 47.7856 29.225 47.6072C29.1681 47.5234 29.1624 47.4359 29.1912 47.3701L29.1624 47.4359C29.1335 47.5018 29.1463 47.5858 29.1962 47.673C29.3053 47.8515 29.5594 47.9627 29.7645 47.9217C29.7831 47.9168 29.7948 47.9154 29.8134 47.9104L29.8398 47.8501L29.8422 47.8446Z" fill="#565953"/>
<path d="M29.7893 47.9653C29.7893 47.9653 29.759 47.9717 29.7403 47.9766C29.5352 48.0176 29.2811 47.9064 29.1721 47.7279C29.1175 47.6387 29.1094 47.5567 29.1382 47.4908L29.1094 47.5567C29.0806 47.6225 29.0933 47.7065 29.1432 47.7937C29.2523 47.9722 29.5064 48.0834 29.7115 48.0424C29.7302 48.0375 29.7418 48.0361 29.7605 48.0312L29.7869 47.9708L29.7893 47.9653Z" fill="#565953"/>
<path d="M29.7365 48.0861C29.7365 48.0861 29.7062 48.0924 29.6876 48.0973C29.4825 48.1383 29.2284 48.0271 29.1193 47.8486C29.0648 47.7594 29.0566 47.6774 29.0854 47.6116L29.0566 47.6774C29.0278 47.7432 29.0406 47.8272 29.0905 47.9145C29.1996 48.0929 29.4537 48.2041 29.6588 48.1632C29.6774 48.1582 29.6891 48.1568 29.7077 48.1519L29.7341 48.0916L29.7365 48.0861Z" fill="#565953"/>
<path d="M29.6836 48.2068C29.6836 48.2068 29.6533 48.2131 29.6346 48.2181C29.4295 48.259 29.1754 48.1478 29.0663 47.9694C29.0118 47.8801 29.0037 47.7981 29.0325 47.7323L29.0037 47.7981C28.9749 47.864 28.9876 47.948 29.0375 48.0352C29.1466 48.2136 29.4007 48.3248 29.6058 48.2839C29.6244 48.279 29.6361 48.2775 29.6547 48.2726L29.6812 48.2123L29.6836 48.2068Z" fill="#565953"/>
<path d="M29.6308 48.3275C29.6308 48.3275 29.6005 48.3339 29.5819 48.3388C29.3768 48.3797 29.1227 48.2685 29.0136 48.0901C28.9567 48.0063 28.9509 47.9189 28.9797 47.853L28.9509 47.9189C28.9221 47.9847 28.9349 48.0687 28.9848 48.1559C29.0939 48.3344 29.348 48.4456 29.553 48.4046C29.5717 48.3997 29.5833 48.3983 29.602 48.3934L29.6284 48.333L29.6308 48.3275Z" fill="#565953"/>
<path d="M29.5778 48.448C29.5778 48.448 29.5475 48.4544 29.5289 48.4593C29.3238 48.5002 29.0697 48.389 28.9606 48.2106C28.9061 48.1213 28.8979 48.0393 28.9268 47.9735L28.8979 48.0393C28.8691 48.1052 28.8819 48.1892 28.9318 48.2764C29.0409 48.4549 29.295 48.5661 29.5001 48.5251C29.5187 48.5202 29.5304 48.5187 29.549 48.5138L29.5754 48.4535L29.5778 48.448Z" fill="#565953"/>
<path d="M29.5251 48.5687C29.5251 48.5687 29.4948 48.5751 29.4761 48.58C29.271 48.621 29.017 48.5098 28.9079 48.3313C28.8534 48.2421 28.8452 48.1601 28.874 48.0942L28.8452 48.1601C28.8164 48.2259 28.8292 48.3099 28.8791 48.3971C28.9881 48.5756 29.2422 48.6868 29.4473 48.6458C29.466 48.6409 29.4776 48.6395 29.4963 48.6346L29.5227 48.5742L29.5251 48.5687Z" fill="#565953"/>
<path d="M29.4721 48.6895C29.4721 48.6895 29.4418 48.6958 29.4232 48.7007C29.2181 48.7417 28.964 48.6305 28.8549 48.452C28.8004 48.3628 28.7922 48.2808 28.821 48.215L28.7922 48.2808C28.7634 48.3466 28.7762 48.4306 28.8261 48.5178C28.9352 48.6963 29.1893 48.8075 29.3944 48.7665C29.413 48.7616 29.4247 48.7602 29.4433 48.7553L29.4697 48.695L29.4721 48.6895Z" fill="#565953"/>
<path d="M29.4495 46.8036C29.388 46.8812 29.3866 46.9852 29.4548 47.0935C29.523 47.2018 29.645 47.2878 29.7769 47.326L29.4542 46.8056L29.4495 46.8036Z" fill="#C0C0BC"/>
<path d="M30.4956 49.3203L30.4183 49.195C30.4183 49.195 30.4021 49.1944 30.3904 49.1959L29.9873 49.2743L30.0277 50.0372L30.2025 50.0026L30.5002 49.3224L30.4956 49.3203Z" fill="#121214"/>
<path d="M30.1325 49.3576C30.0484 49.2228 29.9226 49.2461 29.8506 49.4107C29.7786 49.5753 29.7891 49.8152 29.8733 49.9501C29.9574 50.0849 30.0832 50.0616 30.1552 49.897C30.2272 49.7324 30.2166 49.4925 30.1325 49.3576Z" fill="#313330"/>
<path d="M31.3067 52.4728L30.8475 51.7359L31.7766 49.4496L31.9311 49.7002L31.3067 52.4728Z" fill="#1B39E3"/>
<path d="M39.0084 51.0002L38.528 51.9469L38.5381 50.729L39.1501 49.1798L39.6328 48.2276L39.0084 51.0002Z" fill="#1F259C"/>
<path d="M32.7416 53.0552L31.3065 52.4729L31.9309 49.7003L33.3661 50.2826L33.3945 51.903L32.7416 53.0552Z" fill="#3F5DFF"/>
<path d="M38.5279 51.9469L32.7416 53.0552L33.3661 50.2826L39.1499 49.1798L38.5279 51.9469Z" fill="#1B39E3"/>
<path d="M35.9597 40.4955L19.4344 13.9811L27.1337 12.5139L43.659 39.0283L35.9597 40.4955Z" fill="#1B39E3"/>
<path d="M26.6944 24.7109L19.1033 13.0687L18.4899 13.8499L25.8648 25.1645L26.6944 24.7109Z" fill="#ACACA7"/>
<path d="M19.1035 13.0687L35.7718 39.5923L43.4711 38.1251L27.1117 11.8728L19.1035 13.0687Z" fill="#C0C0BC"/>
<path d="M39.5069 49.2705L33.1894 50.4732L32.3706 48.6965L39.9438 48.2722L39.5069 49.2705Z" fill="#121214"/>
<path d="M39.9437 48.2722L33.6263 49.4748L31.8454 48.8523L32.3705 48.6965L40.0698 47.2293L39.9437 48.2722Z" fill="#565953"/>
<path d="M42.6201 42.1948L38.9057 43.7262L34.8951 43.6703L35.9597 40.4956L43.659 39.0284L42.6201 42.1948Z" fill="#252CBD"/>
<path d="M42.4929 41.9823L39.1536 42.619L39.2627 42.2941L43.0847 39.3849L43.362 39.3298L42.4929 41.9823Z" fill="#33340F"/>
<path d="M42.3201 41.7104L39.2628 42.294L40.046 39.9635L43.0847 39.3848L42.3201 41.7104Z" fill="#4E4D1D"/>
<path d="M38.5991 42.729L35.2598 43.3657L35.3713 43.0354L39.1933 40.1261L39.4682 40.0765L38.5991 42.729Z" fill="#33340F"/>
<path d="M38.4285 42.4518L35.3712 43.0354L36.1474 40.7083L39.1931 40.1262L38.4285 42.4518Z" fill="#4E4D1D"/>
<path d="M40.1797 44.8525L34.4034 46.2527L34.481 44.5284L34.895 43.6704L42.62 42.1948L42.1873 43.0578L40.1797 44.8525Z" fill="#1F259C"/>
<path d="M41.7594 43.8966L34.0577 45.3693L34.4808 44.5283L42.1872 43.0576L41.7594 43.8966Z" fill="#E8E8E6"/>
<path d="M40.0698 47.2293L32.3705 48.6965L34.0579 45.3694L41.7596 43.8968L40.0698 47.2293Z" fill="#7700BA"/>
<path d="M38.3262 45.2896C38.2139 45.5085 37.7501 45.763 37.2934 45.8507C36.8366 45.9384 36.5547 45.8281 36.6693 45.6038C36.7816 45.3849 37.2454 45.1303 37.7021 45.0426C38.1589 44.9549 38.4409 45.0653 38.3262 45.2896Z" fill="#E8E8E6"/>
<path d="M32.8085 45.2932L17.3692 20.8882L16.5805 17.0862L17.4586 15.5657L18.49 13.8499L35.9597 40.4956L34.9207 43.662L34.4809 44.5284L32.8085 45.2932Z" fill="#1B39E3"/>
<path d="M16.3159 17.8253L15.8451 22.1819L32.3705 48.6964L33.6672 45.0626L16.3159 17.8253Z" fill="#A400FF"/>
<path d="M16.3159 17.8254L16.5806 17.0862L34.4809 44.5284L34.0578 45.3694L16.3159 17.8254Z" fill="white"/>
<path d="M34.8442 43.1578L33.8417 41.5491L34.8765 39.1848L35.0036 39.3973L34.0817 41.5038L34.9365 42.8714L34.8442 43.1578Z" fill="#4E4D1D"/>
<path d="M34.9365 42.8714L34.0818 41.5038L35.0037 39.3973L35.7061 40.5218L34.9365 42.8714Z" fill="#68662A"/>
<path d="M19.3295 17.8309L19.2166 18.0887L18.2166 16.4745L19.4308 14.4045L19.5399 14.5829L18.4566 16.4292L19.3295 17.8309Z" fill="#4E4D1D"/>
<path d="M20.2628 15.7359L19.3294 17.8309L18.4566 16.4292L19.5398 14.5829L20.2628 15.7359Z" fill="#68662A"/>
<path d="M30.9024 40.328C30.6143 40.9863 30.1016 41.0887 29.7675 40.5438L20.4592 25.6132C20.1227 25.0738 20.0854 24.09 20.3735 23.4318L21.353 21.1937C21.6411 20.5354 22.1538 20.433 22.4878 20.9779L31.7916 35.9065C32.128 36.4459 32.17 37.4317 31.8819 38.0899L30.9024 40.328Z" fill="white"/>
<path d="M28.9141 29.9259L35.9599 40.4956L36.3006 39.4028L29.654 28.7418L29.239 28.9981L28.9141 29.9259Z" fill="#ACACA7"/>
<path d="M29.7047 28.0843L26.6248 23.1349L34.8345 21.5707L37.9168 26.5147L29.7047 28.0843Z" fill="#D4D4D1"/>
<path d="M29.032 30.1626L28.5939 30.2454L28.774 29.1673L29.7048 28.0844L37.9169 26.5148L37.4895 27.4912L37.3531 27.2747L29.6538 28.7419L29.032 30.1626Z" fill="#989893"/>
<path d="M29.7048 28.0844L26.6249 23.1349L25.507 25.2994L28.5939 30.2454L29.7048 28.0844Z" fill="#ACACA7"/>
<path d="M28.012 25.6636L26.6277 23.4432L25.6959 25.2578L27.0756 27.4761L28.012 25.6636Z" fill="#565953"/>
<path d="M26.3623 23.9611L26.3026 24.0722L27.6869 26.2925L27.7444 26.1739L26.3623 23.9611Z" fill="#ACACA7"/>
<path d="M26.2502 24.1799L26.1881 24.2966L27.5725 26.5169L27.6299 26.3982L26.2502 24.1799Z" fill="#ACACA7"/>
<path d="M26.4773 23.7369L26.4222 23.8501L27.8019 26.0684L27.864 25.9517L26.4773 23.7369Z" fill="#ACACA7"/>
<path d="M25.9013 24.851L25.8439 24.9697L27.2236 27.188L27.2857 27.0713L25.9013 24.851Z" fill="#ACACA7"/>
<path d="M26.5915 23.5125L26.5365 23.6257L27.9162 25.844L27.9783 25.7274L26.5915 23.5125Z" fill="#ACACA7"/>
<path d="M26.1352 24.4043L26.0732 24.521L27.4575 26.7413L27.5149 26.6226L26.1352 24.4043Z" fill="#ACACA7"/>
<path d="M25.7866 25.0751L25.7292 25.1938L27.1089 27.4121L27.1709 27.2955L25.7866 25.0751Z" fill="#ACACA7"/>
<path d="M26.0207 24.6286L25.9587 24.7452L27.3384 26.9635L27.4004 26.8469L26.0207 24.6286Z" fill="#ACACA7"/>
<path d="M29.5328 28.1005L28.1485 25.8801L27.2143 27.7002L28.594 29.9185L29.5328 28.1005Z" fill="#565953"/>
<path d="M27.8833 26.3979L27.8282 26.5111L29.2079 28.7294L29.2676 28.6182L27.8833 26.3979Z" fill="#ACACA7"/>
<path d="M27.7683 26.6223L27.7086 26.7335L29.0929 28.9538L29.148 28.8406L27.7683 26.6223Z" fill="#ACACA7"/>
<path d="M27.9978 26.1738L27.9403 26.2924L29.3225 28.5052L29.3821 28.3941L27.9978 26.1738Z" fill="#ACACA7"/>
<path d="M27.4197 27.2933L27.3646 27.4065L28.7443 29.6248L28.8064 29.5081L27.4197 27.2933Z" fill="#ACACA7"/>
<path d="M28.1125 25.9494L28.0551 26.0681L29.4372 28.2809L29.4969 28.1697L28.1125 25.9494Z" fill="#ACACA7"/>
<path d="M27.6538 26.8467L27.5941 26.9578L28.9784 29.1782L29.0335 29.065L27.6538 26.8467Z" fill="#ACACA7"/>
<path d="M27.3049 27.5176L27.2499 27.6308L28.6296 29.8491L28.6916 29.7325L27.3049 27.5176Z" fill="#ACACA7"/>
<path d="M27.5344 27.069L27.4794 27.1822L28.8591 29.4005L28.9211 29.2839L27.5344 27.069Z" fill="#ACACA7"/>
<path d="M30.7125 27.1271L30.7909 27.1744L30.864 27.0953L28.1453 22.7419L28.0008 22.7702L28.3061 23.7077L30.7125 27.1271Z" fill="#C0C0BC"/>
<path d="M30.5562 27.6861L30.7007 27.6578L30.7799 27.4768L30.8642 27.0954L30.7127 27.1271L30.5786 27.4083L30.5562 27.6861Z" fill="#989893"/>
<path d="M27.8166 22.9901L28.0009 22.7701L30.7126 27.127L30.6283 27.5084L30.5561 27.686L27.7397 23.1657L27.8166 22.9901Z" fill="#ACACA7"/>
<path d="M30.4615 27.1735L30.5329 27.2243L30.606 27.1452L27.8943 22.7883L27.7452 22.8146L28.0527 23.7597L30.4615 27.1735Z" fill="#C0C0BC"/>
<path d="M30.2979 27.736L30.4494 27.7043L30.5262 27.5287L30.6059 27.1453L30.4614 27.1736L30.3227 27.4527L30.2979 27.736Z" fill="#989893"/>
<path d="M27.5653 23.0365L27.7451 22.8145L30.4614 27.1734L30.3771 27.5548L30.2978 27.7359L27.4861 23.2175L27.5653 23.0365Z" fill="#ACACA7"/>
<path d="M37.0724 25.9162L37.1437 25.967L37.2169 25.8879L34.5051 21.531L34.356 21.5573L34.6659 22.4969L37.0724 25.9162Z" fill="#C0C0BC"/>
<path d="M36.9111 26.4732L37.0602 26.4469L37.1394 26.2659L37.2168 25.888L37.0723 25.9162L36.9336 26.1954L36.9111 26.4732Z" fill="#989893"/>
<path d="M34.1762 21.7793L34.3559 21.5573L37.0723 25.9162L36.9879 26.2976L36.9111 26.4732L34.097 21.9603L34.1762 21.7793Z" fill="#ACACA7"/>
<path d="M36.8163 25.9607L36.8922 26.0135L36.9654 25.9344L34.2537 21.5775L34.1022 21.6093L34.4121 22.5489L36.8163 25.9607Z" fill="#C0C0BC"/>
<path d="M36.6575 26.5252L36.809 26.4934L36.8858 26.3179L36.9656 25.9345L36.8164 25.9607L36.68 26.2474L36.6575 26.5252Z" fill="#989893"/>
<path d="M33.9223 21.8313L34.102 21.6093L36.8161 25.9607L36.7364 26.3441L36.6572 26.5252L33.8455 22.0069L33.9223 21.8313Z" fill="#ACACA7"/>
<path d="M32.3864 24.9767L32.201 24.9348L31.2612 23.1705L33.144 22.818L34.2692 24.6242L32.9558 25.3109L32.3864 24.9767Z" fill="#C0C0BC"/>
<path d="M31.7392 26.04L30.6141 24.2338L30.7797 23.8553L31.2611 23.1705L32.3863 24.9767L32.1425 25.6217L31.7392 26.04Z" fill="#ACACA7"/>
<path d="M34.1885 25.2229L34.2689 24.6241L32.3861 24.9766L31.9071 25.6559L31.7391 26.0399L34.0204 25.6069L34.1885 25.2229Z" fill="#989893"/>
<path d="M31.9312 49.7005L15.4083 23.1805L15.8452 22.1821L32.3706 48.6966L31.9312 49.7005Z" fill="#313330"/>
<path d="M43.659 39.0284L35.9597 40.4956L36.3003 39.4028L43.9996 37.9356L43.659 39.0284Z" fill="#989893"/>
<path d="M39.3938 37.8938L39.3266 38.0474L39.7654 38.7427L39.4248 39.8355L39.4748 39.9098L39.9622 38.7962L39.3938 37.8938Z" fill="#ACACA7"/>
<path d="M40.4534 39.7237L39.4747 39.9097L39.9621 38.7962L40.9408 38.6101L40.4534 39.7237Z" fill="#989893"/>
<path d="M40.7363 38.7885L40.3834 39.5949L39.675 39.7293L39.7326 39.5977L40.3198 39.4886L40.6151 38.8139L40.7363 38.7885Z" fill="#33340F"/>
<path d="M40.6151 38.8139L40.3198 39.4886L39.7326 39.5976L40.0255 38.9284L40.6151 38.8139Z" fill="#68662A"/>
<path d="M39.9622 38.7962L39.3938 37.8938L40.3749 37.7023L40.9409 38.6101L39.9622 38.7962Z" fill="#D4D4D1"/>
<path d="M33.1896 50.4733L31.9315 49.7004L32.3708 48.6965L33.6266 49.4749L33.1896 50.4733Z" fill="#313330"/>
<path d="M35.5351 46.748L33.6919 47.0982L33.6078 46.9634L35.451 46.6132L35.5351 46.748Z" fill="#D4D4D1"/>
<path d="M35.0479 47.8615L33.2046 48.2117L33.692 47.0981L35.5353 46.7479L35.0479 47.8615Z" fill="#989893"/>
<path d="M34.979 47.8052L33.9746 47.9997L34.3923 47.0452L35.3943 46.8562L34.979 47.8052Z" fill="#D199B2"/>
<path d="M33.8602 48.0217L33.3569 48.1151L33.7722 47.1661L34.2755 47.0727L33.8602 48.0217Z" fill="#7700BA"/>
<path d="M33.2047 48.2117L33.0773 48.0122L33.6079 46.9633L33.692 47.0981L33.2047 48.2117Z" fill="#ACACA7"/>
<path d="M40.615 45.7816L38.7718 46.1318L38.6876 45.9969L40.5333 45.6412L40.615 45.7816Z" fill="#D4D4D1"/>
<path d="M40.1277 46.8952L38.2845 47.2454L38.7718 46.1318L40.6151 45.7816L40.1277 46.8952Z" fill="#989893"/>
<path d="M39.439 46.9596L38.437 47.1486L38.8523 46.1996L39.8567 46.0051L39.439 46.9596Z" fill="#D199B2"/>
<path d="M40.0589 46.8389L39.5556 46.9324L39.9709 45.9834L40.4743 45.8899L40.0589 46.8389Z" fill="#7700BA"/>
<path d="M38.2845 47.2454L38.1549 47.0383L38.6877 45.9969L38.7718 46.1318L38.2845 47.2454Z" fill="#ACACA7"/>
<path d="M30.1057 35.8222C30.0305 35.8808 29.9494 35.8649 29.8858 35.7587L29.0242 34.3815C28.9333 34.2372 28.923 33.9712 29.0045 33.7977L29.2902 33.1449C29.343 33.0242 29.425 32.9752 29.5013 33.002C29.4685 33.0269 29.44 33.0667 29.416 33.1216L29.1303 33.7743C29.0535 33.9499 29.0661 34.2103 29.15 34.3582L30.0116 35.7353C30.0366 35.7789 30.0687 35.806 30.1057 35.8222Z" fill="#4E4D1D"/>
<path d="M30.4743 35.0555L30.1886 35.7083C30.1646 35.7631 30.1361 35.803 30.1032 35.8278C30.0709 35.8136 30.0388 35.7865 30.0092 35.7409L29.1476 34.3637C29.0567 34.2194 29.0511 33.9555 29.1279 33.7799L29.4136 33.1271C29.4376 33.0723 29.466 33.0324 29.4989 33.0076C29.5312 33.0218 29.5634 33.0489 29.593 33.0945L30.4522 34.4772C30.5431 34.6215 30.5511 34.88 30.4719 35.061L30.4743 35.0555Z" fill="#68662A"/>
<path d="M31.4378 37.961C31.3626 38.0196 31.2815 38.0037 31.2179 37.8974L30.3587 36.5148C30.2678 36.3704 30.2598 36.112 30.3366 35.9364L30.6223 35.2837C30.6751 35.163 30.7572 35.1139 30.8335 35.1408C30.8006 35.1656 30.7721 35.2054 30.7481 35.2603L30.4624 35.9131C30.3856 36.0886 30.3982 36.3491 30.4868 36.4989L31.346 37.8815C31.3709 37.9251 31.4031 37.9523 31.4354 37.9664L31.4378 37.961Z" fill="#4E4D1D"/>
<path d="M31.8064 37.1943L31.5207 37.8471C31.4967 37.9019 31.4682 37.9418 31.4353 37.9666C31.403 37.9524 31.3708 37.9253 31.3459 37.8817L30.4867 36.4991C30.3958 36.3547 30.3831 36.0942 30.4624 35.9132L30.748 35.2604C30.7721 35.2056 30.8005 35.1657 30.8334 35.1409C30.8657 35.1551 30.8979 35.1822 30.9275 35.2278L31.7866 36.6104C31.8776 36.7548 31.8856 37.0133 31.8088 37.1888L31.8064 37.1943Z" fill="#68662A"/>
<path d="M22.618 23.8128C22.5428 23.8714 22.4617 23.8555 22.3981 23.7492L21.539 22.3666C21.448 22.2222 21.44 21.9638 21.5192 21.7828L21.8049 21.13C21.8577 21.0093 21.9422 20.9547 22.0161 20.9871C21.9832 21.0119 21.9548 21.0518 21.9308 21.1066L21.6451 21.7594C21.5682 21.9349 21.5809 22.1954 21.6694 22.3452L22.5286 23.7278C22.5535 23.7715 22.5903 23.8006 22.6227 23.8148L22.618 23.8128Z" fill="#4E4D1D"/>
<path d="M22.989 23.0405L22.7033 23.6933C22.6792 23.7482 22.6508 23.788 22.6179 23.8128C22.5856 23.7987 22.5534 23.7715 22.5238 23.7259L21.6647 22.3433C21.5737 22.1989 21.5611 21.9385 21.6403 21.7575L21.926 21.1047C21.95 21.0498 21.9785 21.01 22.0114 20.9852C22.0437 20.9993 22.0759 21.0265 22.1054 21.0721L22.9646 22.4547C23.0556 22.5991 23.0636 22.8575 22.9843 23.0385L22.989 23.0405Z" fill="#68662A"/>
<path d="M23.9498 25.9514C23.8746 26.01 23.7935 25.9941 23.7299 25.8878L22.8707 24.5052C22.7798 24.3608 22.7672 24.1004 22.8464 23.9194L23.1321 23.2666C23.1849 23.1459 23.2669 23.0968 23.3432 23.1237C23.3104 23.1485 23.2819 23.1884 23.2579 23.2432L22.9722 23.896C22.8954 24.0715 22.908 24.332 22.9943 24.4743L23.8535 25.8569C23.8831 25.9026 23.9106 25.9277 23.9476 25.9439L23.9498 25.9514Z" fill="#4E4D1D"/>
<path d="M24.3211 25.1791L24.0354 25.8319C24.0114 25.8867 23.983 25.9266 23.9501 25.9514C23.9177 25.9372 23.8856 25.9101 23.856 25.8645L22.9968 24.4819C22.9059 24.3375 22.8933 24.077 22.9747 23.9035L23.2604 23.2507C23.2844 23.1959 23.3129 23.156 23.3457 23.1312C23.3781 23.1454 23.4102 23.1725 23.4398 23.2181L24.299 24.6007C24.3899 24.7451 24.4026 25.0056 24.3257 25.1811L24.3211 25.1791Z" fill="#68662A"/>
<path d="M26.3547 29.8145C26.2842 29.8751 26.1984 29.8572 26.1348 29.751L25.2757 28.3684C25.1847 28.224 25.1721 27.9635 25.256 27.7845L25.5416 27.1317C25.5945 27.0111 25.6765 26.962 25.7528 26.9889C25.7199 27.0137 25.6915 27.0535 25.6675 27.1084L25.3818 27.7612C25.305 27.9367 25.3176 28.1971 25.4061 28.347L26.2653 29.7296C26.2903 29.7732 26.3224 29.8004 26.3594 29.8165L26.3547 29.8145Z" fill="#4E4D1D"/>
<path d="M26.726 29.0422L26.4403 29.695C26.4163 29.7499 26.3879 29.7897 26.355 29.8145C26.3226 29.8004 26.2905 29.7732 26.2609 29.7276L25.4017 28.345C25.3108 28.2006 25.2982 27.9402 25.3774 27.7592L25.6631 27.1064C25.6871 27.0515 25.7155 27.0117 25.7484 26.9869C25.7808 27.001 25.8129 27.0282 25.8425 27.0738L26.7017 28.4564C26.7926 28.6008 26.8052 28.8612 26.726 29.0422Z" fill="#68662A"/>
<path d="M27.6892 31.9478C27.6187 32.0084 27.5329 31.9905 27.4669 31.8897L26.6078 30.5071C26.5168 30.3627 26.5088 30.1043 26.5856 29.9288L26.8713 29.276C26.9242 29.1553 27.0062 29.1062 27.0825 29.1331C27.0496 29.1579 27.0212 29.1977 26.9972 29.2526L26.7115 29.9054C26.6346 30.0809 26.6473 30.3414 26.7358 30.4912L27.595 31.8738C27.6199 31.9174 27.6521 31.9446 27.6891 31.9608L27.6892 31.9478Z" fill="#4E4D1D"/>
<path d="M28.0578 31.181L27.7721 31.8338C27.7481 31.8887 27.7197 31.9285 27.6868 31.9533C27.6544 31.9392 27.6223 31.912 27.5927 31.8664L26.7335 30.4838C26.6426 30.3394 26.63 30.079 26.7092 29.898L26.9949 29.2452C27.0189 29.1903 27.0473 29.1505 27.0802 29.1257C27.1125 29.1398 27.1447 29.167 27.1743 29.2126L28.0335 30.5952C28.1244 30.7396 28.1324 30.998 28.0532 31.179L28.0578 31.181Z" fill="#68662A"/>
<path d="M33.9357 32.3152L33.2743 31.2479L33.4399 30.8694L34.1013 31.9367L33.9357 32.3152Z" fill="#ACACA7"/>
<path d="M38.8708 28.9256C39.0508 28.5142 39.0267 27.9153 38.8176 27.5754C38.7154 27.4065 38.5838 27.3424 38.458 27.3658L31.2923 28.7331L31.3958 30.6348L38.5312 29.2737C38.5312 29.2737 38.5312 29.2737 38.5359 29.2757C38.6595 29.2449 38.7819 29.1285 38.8708 28.9256Z" fill="#D4D4D1"/>
<path d="M32.0829 30.21L32.257 29.8875L38.9614 28.6058L38.9193 28.79L38.6162 29.1933L32.2696 30.4878L32.0829 30.21Z" fill="#ACACA7"/>
<path d="M31.6751 28.9402C31.4636 28.6058 31.1514 28.6652 30.9737 29.0712C30.7961 29.4771 30.8178 30.0814 31.0269 30.4213C31.2383 30.7557 31.5506 30.6963 31.7307 30.2848C31.9107 29.8734 31.8866 29.2746 31.6775 28.9347L31.6751 28.9402Z" fill="#ACACA7"/>
<path d="M39.714 30.2818C39.8941 29.8704 39.8699 29.2715 39.6609 28.9316C39.5586 28.7627 39.4271 28.6986 39.3012 28.722L32.1355 30.0893L32.2391 31.991L39.3745 30.6299C39.3745 30.6299 39.3745 30.6299 39.3791 30.6319C39.5027 30.6011 39.6252 30.4847 39.714 30.2818Z" fill="#D4D4D1"/>
<path d="M32.5184 30.2962C32.3069 29.9618 31.9946 30.0212 31.817 30.4271C31.6393 30.833 31.6611 31.4374 31.8701 31.7773C32.0816 32.1116 32.3939 32.0522 32.5739 31.6408C32.754 31.2294 32.7298 30.6305 32.5208 30.2907L32.5184 30.2962Z" fill="#ACACA7"/>
<path d="M34.5851 31.2593L34.3951 31.2154L34.4146 30.9821L38.0708 30.288L38.2391 30.5577L36.3279 31.4403L34.5851 31.2593Z" fill="#C0C0BC"/>
<path d="M34.1018 31.9366L33.88 31.8396L33.9359 31.6614L34.4149 30.9821L34.5853 31.2593L34.4437 31.583L34.1018 31.9366Z" fill="#ACACA7"/>
<path d="M38.1564 31.162L38.2392 30.5577L34.5852 31.2593L34.1016 31.9366L33.936 32.3151L37.9907 31.5405L38.1564 31.162Z" fill="#989893"/>
<path d="M27.7919 22.4559L27.1305 21.3886L27.2961 21.0101L27.9599 22.0719L27.7919 22.4559Z" fill="#ACACA7"/>
<path d="M32.7267 19.0663C32.9068 18.6549 32.8826 18.0561 32.6736 17.7162C32.5713 17.5473 32.4398 17.4831 32.3139 17.5065L25.1482 18.8739L25.2518 20.7755L32.3872 19.4145C32.3872 19.4145 32.3872 19.4145 32.3918 19.4165C32.5154 19.3856 32.6355 19.2748 32.7243 19.0718L32.7267 19.0663Z" fill="#D4D4D1"/>
<path d="M25.9361 20.3431L26.1103 20.0207L32.8168 18.7465L32.7747 18.9307L32.4694 19.3265L26.1204 20.6264L25.9361 20.3431Z" fill="#ACACA7"/>
<path d="M25.5264 19.0787C25.3149 18.7444 25.0027 18.8038 24.825 19.2097C24.645 19.6211 24.6691 20.22 24.8782 20.5598C25.0897 20.8942 25.4019 20.8348 25.582 20.4234C25.762 20.012 25.7379 19.4131 25.5288 19.0733L25.5264 19.0787Z" fill="#ACACA7"/>
<path d="M33.5724 20.4169C33.7525 20.0055 33.7283 19.4066 33.5193 19.0668C33.417 18.8978 33.2855 18.8337 33.1596 18.8571L25.9939 20.2245L26.0975 22.1261L33.2329 20.7651C33.2329 20.7651 33.2329 20.7651 33.2375 20.7671C33.3611 20.7362 33.4812 20.6254 33.57 20.4224L33.5724 20.4169Z" fill="#D4D4D1"/>
<path d="M26.3768 20.4313C26.1653 20.0969 25.853 20.1563 25.6754 20.5622C25.4977 20.9682 25.5171 21.578 25.7285 21.9124C25.94 22.2468 26.2523 22.1873 26.4323 21.7759C26.6124 21.3645 26.5882 20.7657 26.3792 20.4258L26.3768 20.4313Z" fill="#ACACA7"/>
<path d="M28.4386 21.3926L28.2486 21.3487L28.2704 21.1229L31.9219 20.4268L32.0948 20.6986L30.1814 21.5737L28.4386 21.3926Z" fill="#C0C0BC"/>
<path d="M27.9596 22.0719L27.7379 21.9748L27.7914 21.8022L28.2704 21.1229L28.4386 21.3926L28.2945 21.7217L27.9596 22.0719Z" fill="#ACACA7"/>
<path d="M32.0121 21.3028L32.0949 20.6985L28.4387 21.3925L27.9597 22.0719L27.7917 22.4558L31.8464 21.6813L32.0121 21.3028Z" fill="#989893"/>
<path d="M31.9685 44.7098L31.9109 44.8414L30.8926 43.2061L31.0222 42.9099L31.0904 43.0182L31.9685 44.7098Z" fill="#650094"/>
<path d="M32.0431 44.5397L31.9687 44.7097L31.0186 43.1828L31.0906 43.0182L32.0431 44.5397Z" fill="#7700BA"/>
<path d="M31.6182 45.5108L31.563 45.637L30.5422 44.0072L30.6719 43.7109L30.7401 43.8192L31.6182 45.5108Z" fill="#650094"/>
<path d="M31.6925 45.3406L31.6181 45.5107L30.668 43.9837L30.74 43.8191L31.6925 45.3406Z" fill="#7700BA"/>
<path d="M31.27 46.3062L31.2124 46.4378L30.1917 44.8081L30.3237 44.5063L30.3919 44.6146L31.27 46.3062Z" fill="#650094"/>
<path d="M31.342 46.1415L31.2699 46.3061L30.3174 44.7846L30.3918 44.6145L31.342 46.1415Z" fill="#7700BA"/>
<path d="M32.3389 44.0025C32.243 44.0455 32.1343 44.0045 32.0524 43.8771L31.3591 42.7697C31.2204 42.5456 31.2006 42.1382 31.3206 41.8639L33.1428 37.7004C33.2124 37.5413 33.3135 37.4614 33.4157 37.4669C33.3479 37.496 33.2771 37.5696 33.2267 37.6848L31.4045 41.8484C31.2845 42.1226 31.3043 42.53 31.443 42.7541L32.1363 43.8615C32.1955 43.9528 32.2668 44.0036 32.3365 44.008L32.3389 44.0025Z" fill="#0F1F7A"/>
<path d="M34.3475 39.6264L32.5253 43.7899C32.4749 43.9051 32.4088 43.9808 32.3363 44.0079C32.2667 44.0036 32.1929 43.9582 32.1362 43.8615L31.4428 42.7541C31.3042 42.53 31.2843 42.1226 31.4044 41.8483L33.2266 37.6848C33.277 37.5696 33.3431 37.4939 33.4155 37.4668C33.4852 37.4711 33.5589 37.5165 33.6157 37.6132L34.309 38.7206C34.4477 38.9447 34.4675 39.3521 34.3475 39.6264Z" fill="#1F259C"/>
<path d="M33.6296 40.7893C33.5499 40.8329 33.462 40.8075 33.3938 40.6992L32.7982 39.7457C32.6913 39.5748 32.677 39.2678 32.7729 39.0614L33.109 38.2934C33.1666 38.1618 33.2535 38.1017 33.3346 38.1176C33.2901 38.1439 33.2452 38.1962 33.2116 38.273L32.8754 39.0409C32.7842 39.2494 32.7985 39.5563 32.9054 39.7273L33.5009 40.6808C33.5396 40.7434 33.5856 40.7766 33.6342 40.7914L33.6296 40.7893Z" fill="#4E4D1D"/>
<path d="M34.0884 39.866L33.7523 40.634C33.7186 40.7108 33.6738 40.7631 33.6292 40.7893C33.5828 40.7821 33.5322 40.7469 33.496 40.6787L32.9004 39.7252C32.7936 39.5543 32.7793 39.2474 32.8705 39.0389L33.2066 38.2709C33.2402 38.1941 33.2851 38.1419 33.3296 38.1156C33.376 38.1228 33.4266 38.1581 33.4583 38.2242L34.0538 39.1777C34.1607 39.3486 34.175 39.6556 34.0837 39.864L34.0884 39.866Z" fill="#68662A"/>
<path d="M28.4757 48.2008L28.5574 48.3411L30.0267 44.984L29.9426 44.8491L28.4757 48.2008Z" fill="#A400FF"/>
<path d="M29.9424 44.8493L30.0265 44.9842L30.2781 44.9374L30.194 44.8026L29.9424 44.8493Z" fill="#C226FF"/>
<path d="M30.2783 44.9373L30.0266 44.9841L28.5573 48.3412L28.8114 48.289L30.2783 44.9373Z" fill="#7700BA"/>
<path d="M28.8564 47.7205L29.7065 49.0861L29.9609 48.8445L29.1084 47.4844L28.8732 47.6821L28.8564 47.7205Z" fill="#7700BA"/>
<path d="M28.8733 47.6821L29.7258 49.0422L29.9778 48.806L29.1277 47.4405L28.8733 47.6821Z" fill="#C226FF"/>
<path d="M29.2475 46.8265L30.0976 48.1921L30.352 47.9504L29.4995 46.5904L29.2643 46.7881L29.2475 46.8265Z" fill="#7700BA"/>
<path d="M29.2644 46.788L30.1169 48.1481L30.3689 47.912L29.5188 46.5464L29.2644 46.788Z" fill="#C226FF"/>
<path d="M29.6582 45.8884L30.5083 47.254L30.7627 47.0123L29.9101 45.6522L29.675 45.85L29.6582 45.8884Z" fill="#7700BA"/>
<path d="M29.675 45.8499L30.5276 47.21L30.7795 46.9739L29.9294 45.6083L29.675 45.8499Z" fill="#C226FF"/>
<path d="M29.4096 49.7013L29.4959 49.8436L30.9628 46.492L30.8765 46.3496L29.4096 49.7013Z" fill="#A400FF"/>
<path d="M30.8765 46.3497L30.9628 46.492L31.2168 46.4398L31.1281 46.3029L30.8765 46.3497Z" fill="#C226FF"/>
<path d="M31.2167 46.4399L30.9627 46.4921L29.4958 49.8438L29.7499 49.7916L31.2167 46.4399Z" fill="#7700BA"/>
<path d="M19.0005 23.9028L18.9429 24.0344L17.9246 22.3991L18.0542 22.1029L18.1224 22.2112L19.0005 23.9028Z" fill="#650094"/>
<path d="M19.0751 23.7327L19.0007 23.9027L18.0505 22.3757L18.1226 22.2112L19.0751 23.7327Z" fill="#7700BA"/>
<path d="M18.6523 24.6982L18.5947 24.8298L17.574 23.2L17.7036 22.9038L17.7742 23.0066L18.6523 24.6982Z" fill="#650094"/>
<path d="M18.7243 24.5336L18.6523 24.6982L17.6997 23.1766L17.7742 23.0066L18.7243 24.5336Z" fill="#7700BA"/>
<path d="M18.3018 25.4991L18.2442 25.6307L17.2234 24.0009L17.3555 23.6992L17.4237 23.8075L18.3018 25.4991Z" fill="#650094"/>
<path d="M18.3739 25.3345L18.3019 25.4991L17.3494 23.9775L17.4238 23.8075L18.3739 25.3345Z" fill="#7700BA"/>
<path d="M19.3706 23.1953C19.2747 23.2383 19.1661 23.1973 19.0842 23.07L18.3908 21.9626C18.2522 21.7385 18.2323 21.3311 18.3524 21.0568L20.1746 16.8933C20.2442 16.7342 20.3452 16.6542 20.4474 16.6597C20.3796 16.6889 20.3089 16.7625 20.2584 16.8777L18.4362 21.0412C18.3162 21.3155 18.3314 21.7209 18.4747 21.947L19.1681 23.0544C19.2248 23.1511 19.2986 23.1965 19.3682 23.2008L19.3706 23.1953Z" fill="#0F1F7A"/>
<path d="M21.3792 18.8195L19.557 22.9831C19.5066 23.0983 19.4405 23.1739 19.3681 23.201C19.2984 23.1967 19.2247 23.1513 19.1679 23.0546L18.4746 21.9472C18.3359 21.7231 18.316 21.3157 18.4361 21.0414L20.2583 16.8779C20.3087 16.7627 20.3748 16.687 20.4473 16.6599C20.5169 16.6643 20.5907 16.7096 20.6474 16.8063L21.3408 17.9138C21.4794 18.1378 21.4993 18.5452 21.3792 18.8195Z" fill="#1F259C"/>
<path d="M20.6613 19.9823C20.5817 20.0259 20.4937 20.0005 20.4255 19.8922L19.8299 18.9387C19.7231 18.7678 19.7088 18.4608 19.8046 18.2544L20.1407 17.4864C20.1984 17.3548 20.2852 17.2947 20.3663 17.3106C20.3218 17.3369 20.2769 17.3891 20.2433 17.4659L19.9072 18.2339C19.816 18.4424 19.8303 18.7493 19.9325 18.9182L20.5303 19.8792C20.5689 19.9419 20.6149 19.9751 20.6635 19.9898L20.6613 19.9823Z" fill="#4E4D1D"/>
<path d="M21.1204 19.0592L20.7843 19.8271C20.7507 19.9039 20.7058 19.9562 20.6613 19.9825C20.6149 19.9752 20.5642 19.94 20.528 19.8718L19.9302 18.9108C19.8234 18.7399 19.8137 18.435 19.9049 18.2265L20.241 17.4585C20.2746 17.3818 20.3195 17.3295 20.364 17.3032C20.4104 17.3105 20.4611 17.3457 20.4973 17.4138L21.0929 18.3673C21.1997 18.5383 21.214 18.8452 21.1228 19.0537L21.1204 19.0592Z" fill="#68662A"/>
<path d="M15.5028 27.3918L15.5869 27.5267L17.0538 24.175L16.9697 24.0402L15.5028 27.3918Z" fill="#A400FF"/>
<path d="M16.9697 24.0401L17.0538 24.175L17.3101 24.1302L17.2214 23.9934L16.9697 24.0401Z" fill="#C226FF"/>
<path d="M17.31 24.1304L17.0537 24.1751L15.5868 27.5268L15.8431 27.4821L17.31 24.1304Z" fill="#7700BA"/>
<path d="M15.8835 26.9112L16.7337 28.2768L16.988 28.0352L16.1379 26.6696L15.9003 26.8728L15.8835 26.9112Z" fill="#7700BA"/>
<path d="M15.9006 26.8731L16.7531 28.2332L17.0051 27.9971L16.155 26.6315L15.9006 26.8731Z" fill="#C226FF"/>
<path d="M16.2751 26.0172L17.1253 27.3827L17.3796 27.1411L16.5295 25.7755L16.2919 25.9788L16.2751 26.0172Z" fill="#7700BA"/>
<path d="M16.2917 25.9788L17.1443 27.3389L17.3986 27.0973L16.5461 25.7372L16.2917 25.9788Z" fill="#C226FF"/>
<path d="M16.6857 25.0792L17.5359 26.4448L17.7902 26.2031L16.9377 24.843L16.7026 25.0408L16.6857 25.0792Z" fill="#7700BA"/>
<path d="M16.7026 25.0408L17.5551 26.4009L17.8071 26.1648L16.957 24.7992L16.7026 25.0408Z" fill="#C226FF"/>
<path d="M16.4369 28.8921L16.5232 29.0344L17.9925 25.6773L17.9038 25.5404L16.4369 28.8921Z" fill="#A400FF"/>
<path d="M17.9038 25.5406L17.9925 25.6775L18.2442 25.6307L18.1555 25.4939L17.9038 25.5406Z" fill="#C226FF"/>
<path d="M18.2441 25.6306L17.9924 25.6773L16.5231 29.0345L16.7772 28.9822L18.2441 25.6306Z" fill="#7700BA"/>
</g>
<defs>
<clipPath id="clip0_27_1427">
<rect width="34.454" height="40.8915" fill="white" transform="translate(21.8186 4.34436) rotate(23.6369)"/>
</clipPath>
</defs>
</svg>
