<svg width="126" height="132" viewBox="0 0 126 132" fill="none" xmlns="http://www.w3.org/2000/svg">
<g style="mix-blend-mode:darken" opacity="0.33">
<path d="M24.5112 49.6322L44.3853 45.4918L79.9929 123.746L57.6346 124.574L24.5112 49.6322Z" fill="black"/>
</g>
<g clip-path="url(#clip0_18_2498)">
<path opacity="0.3" d="M76.9591 117.839L66.2836 118.204L33.6468 45.574L32.8559 46.8689L27.831 47.1639L26.3302 49.3326L27.2126 51.3009L59.3393 122.94L62.6759 124.856L77.2834 124.086L78.7842 121.917L76.9591 117.839Z" fill="black"/>
<path d="M31.9593 45.6935L30.6705 45.7605L31.1823 44.9226L32.471 44.8556L31.9593 45.6935Z" fill="#0F1F7A"/>
<path d="M27.1214 48.0377L28.6222 45.869L31.9302 42.7125L31.1184 44.3781L28.1032 47.9925L27.1214 48.0377Z" fill="#3F5DFF"/>
<path d="M28.6098 49.9753L28.0037 50.006L29.6373 46.8028L31.1365 44.8772L31.7425 44.8465L28.6098 49.9753Z" fill="#1F259C"/>
<path d="M28.0036 50.0061L27.1212 48.0377L30.8402 44.2083L31.1363 44.8773L28.0036 50.0061Z" fill="#1B39E3"/>
<path d="M33.9197 50.1507C34.6404 51.7589 34.3786 54.4228 33.3472 56.1112C32.8277 56.9618 32.2067 57.4017 31.6298 57.4329L30.7051 57.4085L31.5688 48.9763L32.6566 48.926C33.1685 48.9772 33.5964 49.4303 33.9197 50.1507Z" fill="#858580"/>
<path d="M33.064 50.1336C32.3433 48.5254 30.9303 48.6036 29.8912 50.3048C28.8521 52.0059 28.5191 54.5052 29.2291 56.1068C29.9498 57.7149 31.4447 57.8079 32.4838 56.1068C33.5151 54.4183 33.774 51.7352 33.0563 50.1463L33.064 50.1336Z" fill="#ACACA7"/>
<path d="M31.6508 50.9089C31.2854 50.7381 30.8253 50.9625 30.4609 51.5592C29.9103 52.4606 29.7674 53.8723 30.1589 54.7216C30.3673 55.1975 30.7065 55.3872 31.0521 55.302C30.8656 55.2229 30.7012 55.0354 30.5697 54.7459C30.1889 53.9032 30.3212 52.4849 30.8718 51.5836C31.1121 51.19 31.379 50.9695 31.6508 50.9089Z" fill="#989893"/>
<path d="M32.1334 51.4651C32.0019 51.1756 31.8375 50.9881 31.6509 50.909C31.3898 50.9761 31.1122 51.1901 30.8719 51.5836C30.3213 52.4849 30.1783 53.8967 30.5698 54.7459C30.6906 55.0289 30.8657 55.223 31.0522 55.3021C31.3241 55.2415 31.5987 55.0083 31.8313 54.6275C32.3741 53.7388 32.5064 52.3205 32.1363 51.4844L32.1334 51.4651Z" fill="#C0C0BC"/>
<path d="M31.6499 52.6167C31.5321 52.353 31.3019 52.3693 31.1391 52.6359C30.9762 52.9025 30.935 53.3305 31.0528 53.5943C31.1707 53.858 31.4009 53.8417 31.5637 53.5751C31.7265 53.3085 31.7755 52.8678 31.6499 52.6167Z" fill="#121214"/>
<path d="M38.3752 60.0889C39.0959 61.697 38.834 64.361 37.7949 66.0621C37.2754 66.9127 36.6544 67.3526 36.0668 67.3772L35.1421 67.3528L36.0059 58.9206L37.0936 58.8703C37.6055 58.9215 38.0334 59.3747 38.3567 60.0951L38.3752 60.0889Z" fill="#858580"/>
<path d="M37.5193 60.0718C36.7986 58.4636 35.3856 58.5418 34.3465 60.243C33.3074 61.9441 33.0563 64.6146 33.7663 66.2162C34.487 67.8243 35.9001 67.7461 36.9391 66.045C37.9704 64.3565 38.2294 61.6734 37.5116 60.0845L37.5193 60.0718Z" fill="#ACACA7"/>
<path d="M36.1064 60.8472C35.741 60.6763 35.2809 60.9008 34.9165 61.4974C34.3659 62.3988 34.2229 63.8106 34.6037 64.6532C34.8122 65.1292 35.1514 65.3189 35.497 65.2337C35.3104 65.1546 35.1461 64.9671 35.0068 64.6903C34.6261 63.8476 34.7583 62.4293 35.3196 61.5345C35.56 61.1409 35.8268 60.9204 36.0987 60.8599L36.1064 60.8472Z" fill="#989893"/>
<path d="M36.5889 61.4033C36.4681 61.1203 36.2931 60.9263 36.1065 60.8472C35.8453 60.9142 35.5678 61.1282 35.3274 61.5218C34.7769 62.4231 34.6339 63.8349 35.0147 64.6776C35.1355 64.9605 35.3105 65.1546 35.5049 65.221C35.7767 65.1605 36.0513 64.9273 36.2839 64.5464C36.8267 63.6578 36.959 62.2395 36.5889 61.4033Z" fill="#C0C0BC"/>
<path d="M36.1133 62.5423C35.9955 62.2785 35.7653 62.2948 35.6024 62.5614C35.4396 62.828 35.3984 63.256 35.5162 63.5198C35.6341 63.7835 35.8642 63.7672 36.0271 63.5006C36.1899 63.234 36.2389 62.7933 36.1133 62.5423Z" fill="#121214"/>
<path d="M38.3271 59.519L33.4604 48.6674L32.2009 48.0376L31.4599 48.073L31.1618 49.7387L32.1727 51.9773L30.7783 56.1109L33.6309 62.4726L33.3417 63.4988L34.0827 63.4633L36.4413 61.4526L36.866 62.3918L35.4004 64.7911L36.1521 64.7622L37.4523 63.6912L38.4913 61.99L38.3639 59.5067L38.3271 59.519ZM34.0684 61.2756L31.8927 56.4255L33.8933 53.1502L36.069 58.0003L34.0684 61.2756Z" fill="#121214"/>
<path d="M30.7215 52.6946L29.9804 52.7301L31.0273 51.0162L31.7683 50.9808L30.7215 52.6946Z" fill="#121214"/>
<path d="M31.6377 53.7423C31.8703 53.3615 31.9249 52.7673 31.7633 52.4071C31.6863 52.2206 31.558 52.1423 31.423 52.147L30.3936 52.198L30.2444 54.0766L31.2738 54.0256C31.3981 54.0143 31.5291 53.92 31.6377 53.7423Z" fill="#121214"/>
<path d="M30.7447 52.4646C30.583 52.1044 30.2654 52.1196 30.0328 52.5005C29.8002 52.8813 29.7455 53.4755 29.9072 53.8357C30.0689 54.1959 30.3865 54.1807 30.6191 53.7999C30.8517 53.419 30.9063 52.8249 30.7447 52.4646Z" fill="#313330"/>
<path d="M37.5861 59.5545L32.7194 48.7029L31.4599 48.073L30.4209 49.7741L29.6739 52.0546L29.9836 52.7493L31.0072 51.0736L31.4347 52.032L30.0403 56.1656L33.3447 63.518L35.7034 61.5073L36.128 62.4464L35.1044 64.1222L35.4141 64.8169L36.7143 63.7459L37.7533 62.0447L37.6259 59.5614L37.5861 59.5545ZM33.3275 61.3111L31.1517 56.461L33.1523 53.1857L35.3281 58.0358L33.3275 61.3111Z" fill="#313330"/>
<path d="M33.4698 53.8677L33.2773 53.7502L31.1992 57.1524C31.1062 57.3048 31.1093 57.5159 31.2029 57.7473C31.4113 58.2233 31.9993 58.5825 32.5179 58.5506C32.7772 58.5347 32.9743 58.4284 33.0721 58.2441L34.4291 56.0225L33.4698 53.8677Z" fill="#989893"/>
<path d="M34.0452 55.1606C33.6964 55.0346 33.3823 54.7557 33.2265 54.4339C33.1223 54.1959 33.1298 53.9913 33.2229 53.839L33.1299 53.9913C33.0368 54.1437 33.04 54.3548 33.1335 54.5862C33.2981 54.9657 33.7025 55.265 34.1329 55.3535L34.0452 55.1606Z" fill="#565953"/>
<path d="M34.2069 55.5208C33.7348 55.4765 33.2478 55.1442 33.0666 54.7197C32.9624 54.4818 32.9699 54.2772 33.063 54.1248L32.9699 54.2772C32.8769 54.4295 32.8801 54.6406 32.9736 54.8721C33.1898 55.3353 33.7594 55.7007 34.278 55.6688L34.2069 55.5208Z" fill="#565953"/>
<path d="M34.3249 55.7845C34.3249 55.7845 34.2404 55.8027 34.2006 55.7958C33.682 55.8276 33.0939 55.4685 32.8855 54.9925C32.7813 54.7545 32.7888 54.55 32.8818 54.3976L32.7888 54.55C32.6957 54.7023 32.6989 54.9134 32.7924 55.1448C33.0009 55.6208 33.5889 55.98 34.1075 55.9481C34.2027 55.9365 34.2978 55.9249 34.3609 55.8937L34.3064 55.7907L34.3249 55.7845Z" fill="#565953"/>
<path d="M34.4095 55.9583C34.3125 56.021 34.1833 56.0642 34.0299 56.075C33.5113 56.1069 32.9233 55.7477 32.7148 55.2718C32.6106 55.0338 32.6181 54.8292 32.7112 54.6769L32.6181 54.8292C32.5251 54.9816 32.5283 55.1927 32.6218 55.4241C32.8302 55.9001 33.4183 56.2592 33.9369 56.2274C34.1486 56.2173 34.3116 56.1426 34.4183 56.016L34.3911 55.9645L34.4095 55.9583Z" fill="#565953"/>
<path d="M33.8593 56.3543C33.3407 56.3862 32.7526 56.027 32.5442 55.5511C32.4322 55.3258 32.4475 55.1085 32.5405 54.9562L32.4475 55.1085C32.3544 55.2608 32.3576 55.472 32.4511 55.7034C32.6596 56.1793 33.2476 56.5385 33.7662 56.5067C34.0255 56.4907 34.2225 56.3845 34.3204 56.2002L34.3902 56.086C34.2971 56.2383 34.1001 56.3446 33.8593 56.3543Z" fill="#565953"/>
<path d="M33.6888 56.6336C33.1702 56.6655 32.5822 56.3063 32.3738 55.8304C32.2618 55.6051 32.2771 55.3878 32.3701 55.2355L32.2771 55.3878C32.184 55.5401 32.1872 55.7513 32.2807 55.9827C32.4891 56.4586 33.0772 56.8178 33.5958 56.786C33.8551 56.77 34.0521 56.6638 34.15 56.4795L34.2198 56.3653C34.1267 56.5176 33.9297 56.6239 33.6888 56.6336Z" fill="#565953"/>
<path d="M33.5258 56.9002C33.0072 56.9321 32.4191 56.5729 32.2107 56.097C32.1065 55.859 32.114 55.6544 32.207 55.5021L32.114 55.6544C32.0209 55.8068 32.0241 56.0179 32.1176 56.2493C32.3261 56.7253 32.9141 57.0844 33.4327 57.0526C33.692 57.0366 33.889 56.9304 33.9869 56.7461L34.0567 56.6319C33.9636 56.7842 33.7666 56.8905 33.5258 56.9002Z" fill="#565953"/>
<path d="M33.3551 57.1795C32.8365 57.2114 32.2485 56.8522 32.04 56.3763C31.9281 56.151 31.9433 55.9337 32.0364 55.7814L31.9433 55.9337C31.8503 56.086 31.8534 56.2972 31.947 56.5286C32.1554 57.0045 32.7435 57.3637 33.2621 57.3319C33.5214 57.3159 33.7184 57.2097 33.8163 57.0254L33.886 56.9112C33.7852 57.0762 33.596 57.1698 33.3551 57.1795Z" fill="#565953"/>
<path d="M33.1847 57.4588C32.6661 57.4907 32.078 57.1315 31.8696 56.6555C31.7654 56.4176 31.7729 56.213 31.866 56.0607L31.7729 56.213C31.6799 56.3653 31.683 56.5764 31.7766 56.8079C31.985 57.2838 32.573 57.643 33.0916 57.6112C33.3509 57.5952 33.548 57.489 33.6458 57.3047L33.7156 57.1904C33.6226 57.3428 33.4255 57.449 33.1847 57.4588Z" fill="#565953"/>
<path d="M33.014 57.7381C32.4954 57.77 31.9074 57.4108 31.699 56.9348C31.587 56.7096 31.6023 56.4923 31.6953 56.3399L31.6023 56.4923C31.5092 56.6446 31.5124 56.8557 31.6059 57.0872C31.8143 57.5631 32.4024 57.9223 32.921 57.8904C33.1803 57.8745 33.3773 57.7682 33.4752 57.584L33.545 57.4697C33.4442 57.6348 33.2549 57.7283 33.014 57.7381Z" fill="#565953"/>
<path d="M32.8436 58.0174C32.325 58.0493 31.737 57.6901 31.5286 57.2142C31.4243 56.9762 31.4319 56.7716 31.5249 56.6193L31.4319 56.7716C31.3388 56.9239 31.342 57.1351 31.4355 57.3665C31.6439 57.8424 32.232 58.2016 32.7506 58.1698C33.0099 58.1538 33.2069 58.0476 33.3048 57.8633L33.3746 57.749C33.2738 57.9141 33.0845 58.0076 32.8359 58.0301L32.8436 58.0174Z" fill="#565953"/>
<path d="M32.673 58.2967C32.1544 58.3286 31.5663 57.9694 31.3579 57.4934C31.2537 57.2555 31.2612 57.0509 31.3542 56.8985L31.2612 57.0509C31.1681 57.2032 31.1713 57.4143 31.2648 57.6458C31.4733 58.1217 32.0613 58.4809 32.5799 58.449C32.8392 58.4331 33.0363 58.3268 33.1341 58.1426L33.2039 58.0283C33.1109 58.1807 32.9138 58.2869 32.673 58.2967Z" fill="#565953"/>
<path d="M33.3684 53.6489C33.1909 53.8194 33.1524 54.0748 33.2839 54.3643C33.4153 54.6537 33.6866 54.9066 33.9879 55.0383L33.3684 53.6489Z" fill="#C0C0BC"/>
<path d="M35.3356 58.0231L34.4727 56.1189L34.2803 56.0014L32.2021 59.4037C32.1091 59.556 32.1123 59.7671 32.2135 59.9859C32.422 60.4618 33.01 60.821 33.5286 60.7891C33.5762 60.7833 33.6053 60.7837 33.6529 60.7779L35.3356 58.0231Z" fill="#989893"/>
<path d="M35.0591 57.4184C34.7103 57.2925 34.3963 57.0135 34.2405 56.6917C34.1362 56.4538 34.1438 56.2492 34.2368 56.0968L34.1438 56.2492C34.0507 56.4015 34.0539 56.6126 34.1552 56.8314C34.3198 57.2108 34.7242 57.5101 35.1468 57.6114L35.0591 57.4184Z" fill="#565953"/>
<path d="M35.2178 57.7593C34.7457 57.715 34.2587 57.3827 34.0698 56.971C33.9656 56.733 33.9731 56.5284 34.0662 56.3761L33.9731 56.5284C33.8801 56.6808 33.8832 56.8919 33.9768 57.1233C34.1929 57.5866 34.7625 57.9519 35.2811 57.9201L35.2101 57.772L35.2178 57.7593Z" fill="#565953"/>
<path d="M35.328 58.0358C35.328 58.0358 35.2513 58.0412 35.2037 58.047C34.6851 58.0789 34.0971 57.7197 33.8887 57.2437C33.7767 57.0185 33.792 56.8012 33.885 56.6488L33.792 56.8012C33.6989 56.9535 33.7021 57.1646 33.8034 57.3834C34.0118 57.8593 34.5998 58.2185 35.1184 58.1867C35.166 58.1809 35.1952 58.1812 35.2427 58.1754L35.328 58.0358Z" fill="#565953"/>
<path d="M35.1574 58.3151C35.1574 58.3151 35.0807 58.3206 35.0331 58.3264C34.5145 58.3582 33.9264 57.999 33.718 57.5231C33.6138 57.2851 33.6213 57.0805 33.7144 56.9282L33.6213 57.0805C33.5283 57.2329 33.5314 57.444 33.625 57.6754C33.8334 58.1514 34.4214 58.5106 34.94 58.4787C34.9876 58.4729 35.0168 58.4733 35.0643 58.4675L35.1496 58.3278L35.1574 58.3151Z" fill="#565953"/>
<path d="M34.9945 58.5817C34.9945 58.5817 34.9178 58.5871 34.8702 58.5929C34.3516 58.6248 33.7636 58.2656 33.5552 57.7896C33.4509 57.5517 33.4585 57.3471 33.5515 57.1947L33.4585 57.3471C33.3654 57.4994 33.3686 57.7105 33.4621 57.942C33.6705 58.4179 34.2586 58.7771 34.7772 58.7452C34.8248 58.7394 34.8539 58.7398 34.9015 58.734L34.9868 58.5944L34.9945 58.5817Z" fill="#565953"/>
<path d="M34.8239 58.861C34.8239 58.861 34.7472 58.8664 34.6996 58.8722C34.1887 58.8914 33.6007 58.5322 33.3845 58.0689C33.2803 57.831 33.2878 57.6264 33.3809 57.4741L33.2878 57.6264C33.1948 57.7787 33.1979 57.9898 33.2915 58.2213C33.4999 58.6972 34.0879 59.0564 34.6065 59.0246C34.6541 59.0188 34.6833 59.0191 34.7308 59.0133L34.8161 58.8737L34.8239 58.861Z" fill="#565953"/>
<path d="M34.6532 59.1402C34.6532 59.1402 34.5765 59.1457 34.5289 59.1515C34.0103 59.1833 33.4223 58.8242 33.2139 58.3482C33.1019 58.1229 33.1172 57.9057 33.2102 57.7533L33.1172 57.9057C33.0241 58.058 33.0273 58.2691 33.1286 58.4879C33.337 58.9638 33.925 59.323 34.4436 59.2911C34.4912 59.2853 34.5204 59.2857 34.5679 59.2799L34.6532 59.1402Z" fill="#565953"/>
<path d="M34.4828 59.4196C34.4828 59.4196 34.4061 59.425 34.3585 59.4308C33.8399 59.4627 33.2519 59.1035 33.0434 58.6275C32.9315 58.4023 32.9467 58.185 33.0398 58.0326L32.9467 58.185C32.8537 58.3373 32.8569 58.5484 32.9504 58.7799C33.1588 59.2558 33.7469 59.615 34.2655 59.5831C34.3131 59.5773 34.3422 59.5777 34.3898 59.5719L34.4751 59.4323L34.4828 59.4196Z" fill="#565953"/>
<path d="M34.3122 59.6988C34.3122 59.6988 34.2355 59.7043 34.1879 59.7101C33.677 59.7292 33.089 59.37 32.8728 58.9068C32.7686 58.6688 32.7761 58.4642 32.8691 58.3119L32.7761 58.4642C32.683 58.6166 32.6862 58.8277 32.7797 59.0591C32.9882 59.5351 33.5762 59.8943 34.0948 59.8624C34.1424 59.8566 34.1715 59.857 34.2191 59.8512L34.3044 59.7115L34.3122 59.6988Z" fill="#565953"/>
<path d="M34.1415 59.9781C34.1415 59.9781 34.0648 59.9836 34.0172 59.9894C33.4986 60.0212 32.9106 59.662 32.7021 59.1861C32.5979 58.9481 32.6054 58.7435 32.6985 58.5912L32.6054 58.7435C32.5124 58.8959 32.5156 59.107 32.6091 59.3384C32.8175 59.8144 33.4056 60.1736 33.9242 60.1417C33.9717 60.1359 34.0009 60.1363 34.0485 60.1305L34.1338 59.9908L34.1415 59.9781Z" fill="#565953"/>
<path d="M33.9709 60.2574C33.9709 60.2574 33.8941 60.2628 33.8466 60.2686C33.328 60.3005 32.7399 59.9413 32.5315 59.4654C32.4273 59.2274 32.4348 59.0228 32.5278 58.8705L32.4348 59.0228C32.3417 59.1751 32.3449 59.3863 32.4462 59.605C32.6546 60.081 33.2427 60.4401 33.7613 60.4083C33.8088 60.4025 33.838 60.4028 33.8856 60.397L33.9709 60.2574Z" fill="#565953"/>
<path d="M33.8005 60.5367C33.8005 60.5367 33.7237 60.5421 33.6761 60.5479C33.1575 60.5798 32.5695 60.2206 32.3611 59.7447C32.2491 59.5194 32.2644 59.3021 32.3574 59.1498L32.2644 59.3021C32.1713 59.4545 32.1745 59.6656 32.268 59.897C32.4765 60.373 33.0645 60.7321 33.5831 60.7003C33.6307 60.6945 33.6598 60.6948 33.7074 60.689L33.7927 60.5494L33.8005 60.5367Z" fill="#565953"/>
<path d="M34.3792 55.8874C34.2017 56.0579 34.1631 56.3132 34.2946 56.6027C34.4261 56.8922 34.6974 57.1451 34.9986 57.2768L34.3792 55.8874Z" fill="#C0C0BC"/>
<path d="M36.1068 62.4334L35.9587 62.099C35.9587 62.099 35.9082 62.0855 35.8898 62.0917L34.8603 62.1427L34.7111 64.0213L35.153 63.9949L36.1145 62.4207L36.1068 62.4334Z" fill="#121214"/>
<path d="M35.2005 62.4028C35.0388 62.0426 34.7212 62.0578 34.4886 62.4387C34.256 62.8195 34.2014 63.4137 34.363 63.7739C34.5247 64.1341 34.8423 64.1189 35.0749 63.7381C35.3075 63.3572 35.3622 62.7631 35.2005 62.4028Z" fill="#313330"/>
<path d="M41.5844 67.261C42.3051 68.8691 42.0432 71.5331 41.0042 73.2342C40.4846 74.0848 39.8636 74.5247 39.276 74.5493L38.3514 74.5249L39.2151 66.0927L40.3028 66.0424C40.8147 66.0936 41.2426 66.5467 41.566 67.2672L41.5844 67.261Z" fill="#858580"/>
<path d="M40.7286 67.2439C40.0079 65.6358 38.5948 65.7139 37.5557 67.4151C36.5167 69.1162 36.2655 71.7867 36.9755 73.3883C37.6962 74.9964 39.1093 74.9182 40.1483 73.2171C41.1797 71.5286 41.4386 68.8455 40.7208 67.2566L40.7286 67.2439Z" fill="#ACACA7"/>
<path d="M39.3154 68.0193C38.9393 67.8419 38.4899 68.0729 38.1255 68.6695C37.5749 69.5709 37.4319 70.9827 37.8234 71.8319C38.0318 72.3078 38.371 72.4976 38.7167 72.4124C38.5301 72.3333 38.3658 72.1457 38.2343 71.8562C37.8535 71.0135 37.9858 69.5952 38.547 68.7004C38.7874 68.3069 39.0542 68.0864 39.3261 68.0258L39.3154 68.0193Z" fill="#989893"/>
<path d="M39.7979 68.5754C39.6771 68.2925 39.5021 68.0984 39.3155 68.0193C39.0543 68.0864 38.7768 68.3003 38.5364 68.6939C37.9859 69.5952 37.8429 71.007 38.2237 71.8497C38.3445 72.1326 38.5195 72.3267 38.7061 72.4058C38.978 72.3453 39.2525 72.1121 39.4852 71.7312C40.028 70.8426 40.1603 69.4243 39.7901 68.5881L39.7979 68.5754Z" fill="#C0C0BC"/>
<path d="M39.3225 69.7143C39.2047 69.4506 38.9745 69.4669 38.8117 69.7335C38.6488 70.0001 38.6076 70.4281 38.7255 70.6918C38.8433 70.9556 39.0735 70.9393 39.2363 70.6727C39.3991 70.4061 39.4404 69.9781 39.3332 69.7209L39.3225 69.7143Z" fill="#121214"/>
<path d="M46.0478 77.1865C46.7685 78.7947 46.5067 81.4586 45.4676 83.1597C44.9481 84.0103 44.327 84.4502 43.7394 84.4748L42.8148 84.4504L43.6785 76.0182L44.7662 75.9679C45.2781 76.0192 45.706 76.4723 46.0371 77.18L46.0478 77.1865Z" fill="#858580"/>
<path d="M45.1844 77.1821C44.4637 75.5739 43.0506 75.6521 42.0116 77.3533C40.9725 79.0544 40.7213 81.7249 41.4391 83.3138C42.1598 84.9219 43.5728 84.8437 44.6119 83.1425C45.6432 81.4541 45.9022 78.7709 45.1844 77.1821Z" fill="#ACACA7"/>
<path d="M43.7712 77.9575C43.3951 77.78 42.9457 78.0111 42.5813 78.6077C42.0307 79.5091 41.8877 80.9208 42.2792 81.7701C42.4877 82.246 42.8269 82.4358 43.1725 82.3506C42.9859 82.2715 42.8216 82.0839 42.6823 81.8071C42.3015 80.9644 42.4338 79.5461 42.9951 78.6513C43.2354 78.2578 43.5023 78.0372 43.7741 77.9767L43.7712 77.9575Z" fill="#989893"/>
<path d="M44.2537 78.5136C44.1329 78.2306 43.9579 78.0365 43.7713 77.9574C43.5101 78.0245 43.2326 78.2385 42.9922 78.632C42.4417 79.5334 42.2987 80.9452 42.6795 81.7878C42.8003 82.0708 42.9753 82.2649 43.1697 82.3313C43.4415 82.2707 43.7161 82.0375 43.9487 81.6567C44.4915 80.768 44.6238 79.3497 44.2537 78.5136Z" fill="#C0C0BC"/>
<path d="M43.7783 79.6525C43.6605 79.3888 43.4303 79.4051 43.2675 79.6717C43.1047 79.9383 43.0634 80.3663 43.1813 80.6301C43.2991 80.8938 43.5293 80.8775 43.6814 80.6044C43.8443 80.3378 43.8932 79.897 43.7783 79.6525Z" fill="#121214"/>
<path d="M45.9997 76.6167L41.133 65.765L39.8735 65.1352L39.1325 65.1706L38.8344 66.8363L39.8453 69.0749L38.4509 73.2085L41.3035 79.5703L41.0037 80.5899L41.7447 80.5544L44.1033 78.5437L44.5279 79.4829L43.0623 81.8822L43.814 81.8533L45.1142 80.7823L46.1532 79.0811L46.0259 76.5978L45.9997 76.6167ZM41.741 78.3733L39.5653 73.5232L41.5659 70.2479L43.7416 75.098L41.741 78.3733Z" fill="#121214"/>
<path d="M38.3866 69.805L37.6455 69.8404L38.7001 68.1139L39.4411 68.0784L38.3866 69.805Z" fill="#121214"/>
<path d="M39.303 70.8527C39.5356 70.4718 39.5903 69.8776 39.4286 69.5174C39.3516 69.331 39.2233 69.2526 39.0883 69.2573L38.0696 69.3149L37.9126 71.2062L38.9421 71.1551C39.0664 71.1439 39.1974 71.0496 39.306 70.8719L39.303 70.8527Z" fill="#121214"/>
<path d="M38.4173 69.5623C38.2556 69.2021 37.938 69.2173 37.7054 69.5982C37.4728 69.979 37.4181 70.5732 37.5798 70.9334C37.7415 71.2936 38.0591 71.2784 38.2917 70.8976C38.5243 70.5167 38.5789 69.9225 38.4173 69.5623Z" fill="#313330"/>
<path d="M45.2587 76.6521L40.392 65.8005L39.1325 65.1707L38.0935 66.8718L37.3465 69.1523L37.6562 69.8469L38.6798 68.1712L39.0966 69.1231L37.7022 73.2567L41.0067 80.6091L43.3575 78.6111L43.7821 79.5503L42.7586 81.226L43.0683 81.9207L44.3684 80.8497L45.4075 79.1485L45.2801 76.6652L45.2587 76.6521ZM41.0001 78.4087L38.8243 73.5586L40.8249 70.2833L43.0007 75.1334L41.0001 78.4087Z" fill="#313330"/>
<path d="M41.1346 70.978L40.9421 70.8604L38.864 74.2627C38.7709 74.415 38.7741 74.6261 38.8676 74.8576C39.0761 75.3335 39.6641 75.6927 40.1827 75.6608C40.4527 75.6514 40.6391 75.5386 40.7369 75.3544L42.0939 73.1328L41.1346 70.978Z" fill="#989893"/>
<path d="M41.7286 72.2647C41.3798 72.1388 41.0658 71.8598 40.91 71.538C40.8164 71.3066 40.8133 71.0955 40.9141 70.9305L40.821 71.0828C40.728 71.2351 40.7311 71.4463 40.8247 71.6777C40.9893 72.0571 41.3937 72.3564 41.824 72.445L41.7364 72.252L41.7286 72.2647Z" fill="#565953"/>
<path d="M41.8797 72.6184C41.4076 72.5741 40.9206 72.2418 40.7317 71.8301C40.6382 71.5986 40.635 71.3875 40.728 71.2352L40.635 71.3875C40.5419 71.5398 40.5451 71.751 40.6386 71.9824C40.8548 72.4456 41.4244 72.811 41.943 72.7791L41.8719 72.6311L41.8797 72.6184Z" fill="#565953"/>
<path d="M41.9977 72.8822C41.9977 72.8822 41.9132 72.9003 41.8734 72.8934C41.3548 72.9253 40.7668 72.5661 40.5583 72.0901C40.4571 71.8714 40.4616 71.6476 40.5547 71.4952L40.4616 71.6476C40.3686 71.7999 40.3718 72.011 40.473 72.2298C40.6815 72.7057 41.2695 73.0649 41.7881 73.033C41.8833 73.0214 41.9678 73.0033 42.0415 72.9787L41.987 72.8756L41.9977 72.8822Z" fill="#565953"/>
<path d="M42.0746 73.0686C41.9775 73.1313 41.8484 73.1745 41.6949 73.1854C41.1763 73.2172 40.5883 72.858 40.3799 72.3821C40.2786 72.1634 40.2832 71.9395 40.3762 71.7872L40.2832 71.9395C40.1901 72.0919 40.1933 72.303 40.2868 72.5344C40.4953 73.0104 41.0833 73.3696 41.6019 73.3377C41.8136 73.3276 41.9767 73.2529 42.0834 73.1263L42.0668 73.0813L42.0746 73.0686Z" fill="#565953"/>
<path d="M41.5321 73.4519C41.0135 73.4838 40.4255 73.1246 40.217 72.6487C40.1157 72.4299 40.1203 72.2061 40.2134 72.0538L40.1203 72.2061C40.0273 72.3585 40.0305 72.5696 40.124 72.801C40.3324 73.277 40.9205 73.6361 41.4391 73.6043C41.709 73.5949 41.8954 73.4821 41.9933 73.2978L42.063 73.1836C41.97 73.3359 41.773 73.4422 41.5321 73.4519Z" fill="#565953"/>
<path d="M41.3615 73.7313C40.8429 73.7631 40.2549 73.4039 40.0464 72.928C39.9529 72.6966 39.9497 72.4854 40.0505 72.3204L39.9575 72.4727C39.8644 72.6251 39.8676 72.8362 39.9611 73.0676C40.1696 73.5436 40.7576 73.9028 41.2762 73.8709C41.5462 73.8615 41.7325 73.7487 41.8304 73.5644L41.9002 73.4502C41.8071 73.6025 41.6101 73.7088 41.3693 73.7186L41.3615 73.7313Z" fill="#565953"/>
<path d="M41.1911 74.0105C40.6725 74.0424 40.0845 73.6832 39.876 73.2073C39.7825 72.9758 39.7793 72.7647 39.8724 72.6124L39.7793 72.7647C39.6863 72.9171 39.6894 73.1282 39.7907 73.3469C39.9992 73.8229 40.5872 74.1821 41.1058 74.1502C41.3758 74.1408 41.5621 74.028 41.66 73.8437L41.7298 73.7295C41.6367 73.8818 41.4397 73.9881 41.1989 73.9979L41.1911 74.0105Z" fill="#565953"/>
<path d="M41.0204 74.2899C40.5095 74.309 39.9215 73.9498 39.7053 73.4866C39.604 73.2679 39.6086 73.044 39.7017 72.8917L39.6086 73.044C39.5156 73.1964 39.5187 73.4075 39.6123 73.6389C39.8207 74.1149 40.4087 74.4741 40.9273 74.4422C41.1973 74.4328 41.3837 74.32 41.4815 74.1357L41.5513 74.0215C41.4505 74.1865 41.2612 74.2801 41.0204 74.2899Z" fill="#565953"/>
<path d="M40.8497 74.5691C40.3311 74.601 39.7431 74.2418 39.5347 73.7659C39.4411 73.5344 39.438 73.3233 39.531 73.171L39.438 73.3233C39.3449 73.4756 39.3481 73.6868 39.4416 73.9182C39.65 74.3941 40.2381 74.7533 40.7567 74.7215C41.0267 74.7121 41.213 74.5993 41.3109 74.415L41.3807 74.3008C41.2799 74.4658 41.0906 74.5594 40.8497 74.5691Z" fill="#565953"/>
<path d="M40.6793 74.8484C40.1607 74.8803 39.5727 74.5211 39.3642 74.0452C39.2707 73.8137 39.2675 73.6026 39.3606 73.4503L39.2675 73.6026C39.1745 73.7549 39.1777 73.9661 39.2712 74.1975C39.4796 74.6734 40.0677 75.0326 40.5863 75.0008C40.8563 74.9914 41.0426 74.8786 41.1405 74.6943L41.2103 74.5801C41.1172 74.7324 40.9202 74.8387 40.6793 74.8484Z" fill="#565953"/>
<path d="M40.5162 75.115C39.9976 75.1469 39.4096 74.7877 39.2012 74.3117C39.1076 74.0803 39.1045 73.8692 39.1975 73.7168L39.1045 73.8692C39.0114 74.0215 39.0146 74.2326 39.1081 74.4641C39.3165 74.94 39.9046 75.2992 40.4232 75.2673C40.6932 75.2579 40.8795 75.1451 40.9774 74.9609L41.0472 74.8466C40.9541 74.999 40.7571 75.1052 40.5162 75.115Z" fill="#565953"/>
<path d="M40.3456 75.3943C39.827 75.4262 39.2389 75.067 39.0305 74.591C38.937 74.3596 38.9338 74.1485 39.0269 73.9961L38.9338 74.1485C38.8408 74.3008 38.8439 74.5119 38.9375 74.7434C39.1459 75.2193 39.7339 75.5785 40.2525 75.5466C40.5225 75.5372 40.7089 75.4245 40.8067 75.2402L40.8765 75.1259C40.7835 75.2783 40.5864 75.3845 40.3456 75.3943Z" fill="#565953"/>
<path d="M41.0413 70.7466C40.8638 70.9171 40.8252 71.1725 40.9567 71.462C41.0882 71.7514 41.3595 72.0043 41.6714 72.1425L41.0413 70.7466Z" fill="#C0C0BC"/>
<path d="M43.0006 75.1334L42.1378 73.2293L41.9453 73.1117L39.8672 76.514C39.7741 76.6663 39.7773 76.8775 39.8786 77.0962C40.087 77.5721 40.6751 77.9313 41.1937 77.8995C41.2412 77.8937 41.2704 77.894 41.318 77.8882L43.0006 75.1334Z" fill="#989893"/>
<path d="M42.732 74.516C42.3832 74.3901 42.0691 74.1111 41.9133 73.7893C41.8013 73.5641 41.8166 73.3468 41.9097 73.1944L41.8166 73.3468C41.7236 73.4991 41.7267 73.7102 41.828 73.929C41.9926 74.3084 42.397 74.6077 42.8274 74.6963L42.7397 74.5033L42.732 74.516Z" fill="#565953"/>
<path d="M42.8829 74.8697C42.4108 74.8254 41.9238 74.493 41.7427 74.0686C41.6384 73.8306 41.646 73.6261 41.739 73.4737L41.646 73.6261C41.5529 73.7784 41.5561 73.9895 41.6496 74.221C41.8658 74.6842 42.4354 75.0496 42.954 75.0177L42.8829 74.8697Z" fill="#565953"/>
<path d="M43.0009 75.1334C43.0009 75.1334 42.9242 75.1389 42.8766 75.1447C42.358 75.1765 41.7699 74.8173 41.5615 74.3414C41.4495 74.1161 41.4648 73.8988 41.5579 73.7465L41.4648 73.8988C41.3718 74.0512 41.3749 74.2623 41.4685 74.4937C41.6769 74.9697 42.2649 75.3289 42.7835 75.297C42.8311 75.2912 42.8603 75.2916 42.9078 75.2858L42.9931 75.1461L43.0009 75.1334Z" fill="#565953"/>
<path d="M42.8303 75.4127C42.8303 75.4127 42.7536 75.4181 42.706 75.4239C42.1874 75.4558 41.5993 75.0966 41.3909 74.6207C41.2867 74.3827 41.2942 74.1781 41.395 74.0131L41.302 74.1654C41.2089 74.3178 41.2121 74.5289 41.3056 74.7603C41.514 75.2362 42.1021 75.5954 42.6207 75.5636C42.6683 75.5578 42.6974 75.5581 42.745 75.5523L42.8303 75.4127Z" fill="#565953"/>
<path d="M42.6596 75.692C42.6596 75.692 42.5829 75.6974 42.5353 75.7032C42.0167 75.7351 41.4286 75.3759 41.2202 74.9C41.116 74.662 41.1235 74.4574 41.2166 74.3051L41.1235 74.4574C41.0305 74.6097 41.0336 74.8209 41.1349 75.0396C41.3433 75.5155 41.9314 75.8747 42.45 75.8429C42.4976 75.8371 42.5267 75.8374 42.5743 75.8316L42.6596 75.692Z" fill="#565953"/>
<path d="M42.4889 75.9713C42.4889 75.9713 42.4122 75.9767 42.3646 75.9825C41.846 76.0144 41.258 75.6552 41.0495 75.1793C40.9453 74.9413 40.9528 74.7367 41.0459 74.5844L40.9528 74.7367C40.8598 74.889 40.863 75.1002 40.9565 75.3316C41.1649 75.8075 41.753 76.1667 42.2716 76.1349C42.3192 76.1291 42.3483 76.1294 42.3959 76.1236L42.4812 75.984L42.4889 75.9713Z" fill="#565953"/>
<path d="M42.3185 76.2506C42.3185 76.2506 42.2418 76.256 42.1942 76.2618C41.6756 76.2937 41.0876 75.9345 40.8791 75.4585C40.7672 75.2333 40.7824 75.016 40.8755 74.8636L40.7824 75.016C40.6894 75.1683 40.6926 75.3794 40.7938 75.5982C41.0023 76.0741 41.5903 76.4333 42.1089 76.4014C42.1565 76.3956 42.1856 76.396 42.2332 76.3902L42.3185 76.2506Z" fill="#565953"/>
<path d="M42.1479 76.5299C42.1479 76.5299 42.0711 76.5353 42.0236 76.5411C41.505 76.573 40.9169 76.2138 40.7085 75.7379C40.6043 75.4999 40.6118 75.2953 40.7048 75.143L40.6118 75.2953C40.5187 75.4477 40.5219 75.6588 40.6154 75.8902C40.8239 76.3662 41.4119 76.7253 41.9305 76.6935C41.9781 76.6877 42.0072 76.688 42.0548 76.6823L42.1401 76.5426L42.1479 76.5299Z" fill="#565953"/>
<path d="M41.9848 76.7965C41.9848 76.7965 41.9081 76.8019 41.8605 76.8077C41.3419 76.8396 40.7538 76.4804 40.5454 76.0045C40.4412 75.7665 40.4487 75.5619 40.5417 75.4096L40.4487 75.5619C40.3556 75.7142 40.3588 75.9254 40.4523 76.1568C40.6608 76.6327 41.2488 76.9919 41.7674 76.9601C41.815 76.9543 41.8441 76.9546 41.8917 76.9488L41.977 76.8092L41.9848 76.7965Z" fill="#565953"/>
<path d="M41.8144 77.0758C41.8144 77.0758 41.7376 77.0812 41.6901 77.087C41.1715 77.1188 40.5834 76.7597 40.375 76.2837C40.2708 76.0457 40.2783 75.8412 40.3713 75.6888L40.2783 75.8412C40.1852 75.9935 40.1884 76.2046 40.2819 76.4361C40.4904 76.912 41.0784 77.2712 41.597 77.2393C41.6446 77.2335 41.6737 77.2339 41.7213 77.2281L41.8066 77.0884L41.8144 77.0758Z" fill="#565953"/>
<path d="M41.644 77.3551C41.644 77.3551 41.5672 77.3605 41.5197 77.3663C41.0011 77.3982 40.413 77.039 40.2046 76.563C40.1004 76.3251 40.1079 76.1205 40.2009 75.9681L40.1079 76.1205C40.0148 76.2728 40.018 76.4839 40.1115 76.7154C40.32 77.1913 40.908 77.5505 41.4266 77.5186C41.4742 77.5128 41.5033 77.5132 41.5509 77.5074L41.6362 77.3678L41.644 77.3551Z" fill="#565953"/>
<path d="M41.4731 77.6344C41.4731 77.6344 41.3964 77.6398 41.3488 77.6456C40.8302 77.6775 40.2422 77.3183 40.0337 76.8423C39.9295 76.6044 39.937 76.3998 40.0378 76.2347L39.9448 76.3871C39.8517 76.5394 39.8549 76.7505 39.9562 76.9693C40.1646 77.4452 40.7527 77.8044 41.2713 77.7726C41.3189 77.7668 41.348 77.7671 41.3956 77.7613L41.4809 77.6217L41.4731 77.6344Z" fill="#565953"/>
<path d="M42.0445 72.9979C41.8669 73.1684 41.8284 73.4238 41.9599 73.7133C42.0914 74.0027 42.3627 74.2556 42.6639 74.3873L42.0338 72.9914L42.0445 72.9979Z" fill="#C0C0BC"/>
<path d="M43.7714 79.5437L43.6233 79.2092C43.6233 79.2092 43.5728 79.1958 43.5544 79.2019L42.5356 79.2595L42.3864 81.1381L42.8283 81.1117L43.7898 79.5375L43.7714 79.5437Z" fill="#121214"/>
<path d="M42.8758 79.5197C42.7141 79.1594 42.3965 79.1746 42.1639 79.5555C41.9313 79.9363 41.8766 80.5305 42.0383 80.8907C42.2 81.2509 42.5176 81.2357 42.7502 80.8549C42.9828 80.474 43.0374 79.8799 42.8758 79.5197Z" fill="#313330"/>
<path d="M49.3345 84.2317C50.0552 85.8398 49.7934 88.5038 48.7543 90.2049C48.2347 91.0555 47.6137 91.4954 47.0368 91.5265L46.1122 91.5021L46.9836 83.0573L48.0714 83.007C48.5833 83.0582 49.0112 83.5113 49.3345 84.2317Z" fill="#858580"/>
<path d="M48.4788 84.2146C47.7581 82.6064 46.3451 82.6846 45.306 84.3858C44.2669 86.0869 44.0158 88.7574 44.7258 90.359C45.4465 91.9671 46.8595 91.8889 47.8986 90.1878C48.9299 88.4993 49.1888 85.8161 48.4711 84.2273L48.4788 84.2146Z" fill="#ACACA7"/>
<path d="M47.0578 85.0026C46.6817 84.8252 46.2323 85.0562 45.8679 85.6529C45.3173 86.5542 45.1744 87.966 45.5552 88.8087C45.7636 89.2847 46.1028 89.4744 46.4484 89.3892C46.2619 89.3101 46.0975 89.1225 45.966 88.8331C45.5852 87.9904 45.7175 86.5721 46.2681 85.6707C46.5084 85.2772 46.7675 85.0694 47.0471 84.9961L47.0578 85.0026Z" fill="#989893"/>
<path d="M47.5403 85.5588C47.4196 85.2758 47.2445 85.0817 47.0579 85.0026C46.7967 85.0697 46.5192 85.2837 46.2788 85.6772C45.7283 86.5786 45.5853 87.9904 45.9768 88.8396C46.0976 89.1225 46.2726 89.3166 46.4592 89.3957C46.7311 89.3352 47.0057 89.102 47.2383 88.7211C47.7811 87.8325 47.9134 86.4142 47.5433 85.578L47.5403 85.5588Z" fill="#C0C0BC"/>
<path d="M47.054 86.6912C46.9361 86.4275 46.706 86.4438 46.5431 86.7104C46.3803 86.977 46.3391 87.405 46.4569 87.6687C46.5747 87.9324 46.8049 87.9161 46.9677 87.6495C47.1306 87.383 47.1718 86.9549 47.054 86.6912Z" fill="#121214"/>
<path d="M53.7902 94.1699C54.5109 95.778 54.249 98.442 53.21 100.143C52.6904 100.994 52.0694 101.434 51.4818 101.458L50.5572 101.434L51.4209 93.0016L52.5086 92.9513C53.0205 93.0025 53.4562 93.4429 53.7795 94.1634L53.7902 94.1699Z" fill="#858580"/>
<path d="M52.9346 94.1528C52.2139 92.5447 50.8009 92.6228 49.7618 94.324C48.7227 96.0251 48.4716 98.6956 49.1816 100.297C49.8916 101.899 51.3153 101.827 52.3544 100.126C53.3857 98.4375 53.6446 95.7544 52.9269 94.1655L52.9346 94.1528Z" fill="#ACACA7"/>
<path d="M51.5134 94.9408C51.1373 94.7634 50.6879 94.9944 50.3235 95.5911C49.7729 96.4924 49.6299 97.9042 50.0107 98.7469C50.2192 99.2228 50.5584 99.4126 50.904 99.3274C50.7174 99.2483 50.5531 99.0607 50.4216 98.7712C50.0408 97.9286 50.1731 96.5103 50.7343 95.6154C50.9747 95.2219 51.2415 95.0014 51.5134 94.9408Z" fill="#989893"/>
<path d="M51.9959 95.4969C51.8751 95.214 51.7001 95.0199 51.5135 94.9408C51.2523 95.0079 50.9748 95.2219 50.7344 95.6154C50.1839 96.5168 50.0409 97.9285 50.4217 98.7712C50.5425 99.0542 50.7175 99.2483 50.9041 99.3274C51.176 99.2668 51.4505 99.0336 51.6832 98.6528C52.226 97.7641 52.3582 96.3458 51.9881 95.5096L51.9959 95.4969Z" fill="#C0C0BC"/>
<path d="M51.5098 96.6294C51.3919 96.3657 51.1725 96.3885 50.9989 96.6485C50.8361 96.9151 50.7871 97.3559 50.9127 97.6069C51.0306 97.8706 51.2607 97.8543 51.4236 97.5877C51.5864 97.3211 51.6276 96.8931 51.5098 96.6294Z" fill="#121214"/>
<path d="M53.7418 93.6L48.8752 82.7484L47.6157 82.1185L46.8747 82.154L46.5766 83.8197L47.5875 86.0583L46.1931 90.1919L49.0457 96.5536L48.7458 97.5733L49.4869 97.5378L51.8455 95.527L52.2701 96.4662L50.8045 98.8656L51.5562 98.8367L52.8564 97.7656L53.8954 96.0645L53.768 93.5812L53.7418 93.6ZM49.4832 95.3566L47.3075 90.5065L49.3081 87.2312L51.4838 92.0813L49.4832 95.3566Z" fill="#121214"/>
<path d="M46.1287 86.7883L45.3877 86.8238L46.4423 85.0972L47.1833 85.0618L46.1287 86.7883Z" fill="#121214"/>
<path d="M47.0525 87.8233C47.2852 87.4424 47.3398 86.8482 47.1781 86.488C47.1012 86.3016 46.9729 86.2232 46.8379 86.2279L45.8191 86.2855L45.6699 88.1641L46.6994 88.1131C46.8237 88.1018 46.9547 88.0075 47.0632 87.8298L47.0525 87.8233Z" fill="#121214"/>
<path d="M46.1592 86.5456C45.9976 86.1854 45.68 86.2006 45.4473 86.5814C45.2147 86.9623 45.1601 87.5564 45.3218 87.9167C45.4834 88.2769 45.801 88.2617 46.0336 87.8808C46.2663 87.5 46.3209 86.9058 46.1592 86.5456Z" fill="#313330"/>
<path d="M53.0009 93.6355L48.1342 82.7838L46.8747 82.154L45.8357 83.8551L45.0887 86.1356L45.3984 86.8303L46.422 85.1545L46.8388 86.1064L45.4444 90.24L48.7489 97.5925L51.0997 95.5944L51.5243 96.5336L50.5008 98.2093L50.8105 98.904L52.1106 97.833L53.1497 96.1319L53.0223 93.6485L53.0009 93.6355ZM48.7423 95.3921L46.5772 90.5485L48.5778 87.2732L50.7429 92.1168L48.7423 95.3921Z" fill="#313330"/>
<path d="M48.8846 87.9487L48.6921 87.8311L46.614 91.2334C46.5209 91.3857 46.5241 91.5968 46.6176 91.8283C46.8261 92.3042 47.4141 92.6634 47.9327 92.6315C48.192 92.6156 48.3891 92.5093 48.4869 92.3251L49.8439 90.1034L48.8846 87.9487Z" fill="#989893"/>
<path d="M49.46 89.2415C49.1112 89.1156 48.7971 88.8366 48.6413 88.5149C48.5371 88.2769 48.5446 88.0723 48.6377 87.92L48.5446 88.0723C48.4516 88.2247 48.4548 88.4358 48.5483 88.6672C48.7129 89.0467 49.1173 89.346 49.5477 89.4345L49.46 89.2415Z" fill="#565953"/>
<path d="M49.6217 89.6017C49.1496 89.5574 48.6626 89.2251 48.4814 88.8007C48.3772 88.5627 48.3847 88.3581 48.4778 88.2058L48.3847 88.3581C48.2917 88.5104 48.2949 88.7216 48.3884 88.953C48.6046 89.4162 49.1742 89.7816 49.6928 89.7497L49.6217 89.6017Z" fill="#565953"/>
<path d="M49.7397 89.8655C49.7397 89.8655 49.6552 89.8836 49.6154 89.8767C49.0968 89.9086 48.5087 89.5494 48.3003 89.0734C48.1961 88.8355 48.2036 88.6309 48.2966 88.4786L48.2036 88.6309C48.1105 88.7832 48.1137 88.9944 48.215 89.2131C48.4234 89.689 49.0115 90.0482 49.5301 90.0164C49.6252 90.0048 49.7204 89.9932 49.7835 89.962L49.729 89.859L49.7397 89.8655Z" fill="#565953"/>
<path d="M49.8165 90.0519C49.7195 90.1147 49.5903 90.1578 49.4369 90.1687C48.9183 90.2005 48.3302 89.8414 48.1218 89.3654C48.0176 89.1275 48.0251 88.9229 48.1182 88.7705L48.0251 88.9229C47.9321 89.0752 47.9352 89.2863 48.0288 89.5178C48.2449 89.981 48.833 90.3402 49.3438 90.321C49.5556 90.3109 49.7186 90.2362 49.8253 90.1096L49.7981 90.0581L49.8165 90.0519Z" fill="#565953"/>
<path d="M49.2741 90.4353C48.7554 90.4671 48.1674 90.1079 47.959 89.632C47.847 89.4067 47.8623 89.1894 47.9553 89.0371L47.8623 89.1894C47.7692 89.3418 47.7724 89.5529 47.8659 89.7843C48.0744 90.2603 48.6624 90.6195 49.181 90.5876C49.4403 90.5717 49.6373 90.4654 49.7352 90.2812L49.805 90.1669C49.7119 90.3192 49.5149 90.4255 49.2741 90.4353Z" fill="#565953"/>
<path d="M49.1035 90.7146C48.5849 90.7464 47.9968 90.3873 47.7884 89.9113C47.6842 89.6733 47.6917 89.4688 47.7925 89.3037L47.6994 89.4561C47.6064 89.6084 47.6096 89.8195 47.7031 90.051C47.9115 90.5269 48.4996 90.8861 49.0182 90.8542C49.2775 90.8383 49.4745 90.732 49.5724 90.5478L49.6421 90.4335C49.5491 90.5859 49.3521 90.6921 49.1112 90.7019L49.1035 90.7146Z" fill="#565953"/>
<path d="M48.9327 90.9938C48.4141 91.0257 47.8261 90.6665 47.6177 90.1906C47.5057 89.9653 47.521 89.748 47.614 89.5957L47.521 89.748C47.4279 89.9004 47.4311 90.1115 47.5246 90.3429C47.733 90.8189 48.3211 91.178 48.8397 91.1462C49.099 91.1303 49.296 91.024 49.3939 90.8397L49.4637 90.7255C49.3629 90.8905 49.1736 90.9841 48.9327 90.9938Z" fill="#565953"/>
<path d="M48.7623 91.2732C48.2437 91.305 47.6557 90.9458 47.4473 90.4699C47.343 90.2319 47.3506 90.0273 47.4436 89.875L47.3506 90.0273C47.2575 90.1797 47.2607 90.3908 47.3542 90.6222C47.5626 91.0982 48.1507 91.4574 48.6693 91.4255C48.9286 91.4096 49.1256 91.3033 49.2235 91.119L49.2933 91.0048C49.2002 91.1571 49.0032 91.2634 48.7623 91.2732Z" fill="#565953"/>
<path d="M48.5917 91.5524C48.0731 91.5843 47.4851 91.2251 47.2767 90.7492C47.1724 90.5112 47.18 90.3066 47.273 90.1543L47.18 90.3066C47.0869 90.459 47.0901 90.6701 47.1914 90.8888C47.3998 91.3648 47.9878 91.7239 48.5064 91.6921C48.7657 91.6762 48.9628 91.5699 49.0606 91.3856L49.1304 91.2714C49.0374 91.4237 48.8403 91.53 48.5995 91.5397L48.5917 91.5524Z" fill="#565953"/>
<path d="M48.4288 91.819C47.9102 91.8509 47.3222 91.4917 47.1138 91.0158C47.0095 90.7778 47.0171 90.5732 47.1101 90.4209L47.0171 90.5732C46.924 90.7256 46.9272 90.9367 47.0207 91.1681C47.2291 91.644 47.8172 92.0032 48.3358 91.9714C48.5951 91.9554 48.7921 91.8492 48.89 91.6649L48.9598 91.5507C48.8667 91.703 48.6697 91.8093 48.4288 91.819Z" fill="#565953"/>
<path d="M48.2582 92.0984C47.7396 92.1302 47.1515 91.771 46.9431 91.2951C46.8311 91.0698 46.8464 90.8525 46.9395 90.7002L46.8464 90.8525C46.7534 91.0049 46.7565 91.216 46.8501 91.4474C47.0585 91.9234 47.6465 92.2826 48.1651 92.2507C48.4244 92.2348 48.6215 92.1285 48.7193 91.9442L48.7891 91.83C48.6961 91.9823 48.499 92.0886 48.2582 92.0984Z" fill="#565953"/>
<path d="M48.0878 92.3776C47.5692 92.4095 46.9811 92.0503 46.7727 91.5744C46.6607 91.3491 46.676 91.1318 46.769 90.9795L46.676 91.1318C46.5829 91.2841 46.5861 91.4953 46.6796 91.7267C46.8881 92.2026 47.4761 92.5618 47.9947 92.53C48.254 92.514 48.451 92.4078 48.5489 92.2235L48.6187 92.1093C48.5179 92.2743 48.3286 92.3679 48.0878 92.3776Z" fill="#565953"/>
<path d="M48.783 87.7299C48.6055 87.9003 48.5669 88.1557 48.6984 88.4452C48.8299 88.7347 49.1012 88.9875 49.4024 89.1192L48.783 87.7299Z" fill="#C0C0BC"/>
<path d="M50.7426 92.1168L49.8875 90.1999L49.6951 90.0824L47.6169 93.4847C47.5239 93.637 47.5271 93.8481 47.6206 94.0796C47.829 94.5555 48.4171 94.9147 48.9357 94.8828C48.9832 94.877 49.0124 94.8774 49.0493 94.8651L50.7319 92.1102L50.7426 92.1168Z" fill="#989893"/>
<path d="M50.4737 91.4993C50.1249 91.3734 49.8108 91.0944 49.655 90.7727C49.5537 90.5539 49.5583 90.3301 49.6514 90.1778L49.5583 90.3301C49.4653 90.4824 49.4684 90.6936 49.562 90.925C49.7266 91.3044 50.131 91.6038 50.5613 91.6923L50.4737 91.4993Z" fill="#565953"/>
<path d="M50.6246 91.853C50.1525 91.8087 49.6655 91.4764 49.4844 91.052C49.3908 90.8205 49.3877 90.6094 49.4807 90.4571L49.3877 90.6094C49.2946 90.7617 49.2978 90.9729 49.3913 91.2043C49.6075 91.6675 50.1771 92.0329 50.6957 92.001L50.6246 91.853Z" fill="#565953"/>
<path d="M50.7426 92.1168C50.7426 92.1168 50.6659 92.1222 50.629 92.1346C50.1104 92.1664 49.5224 91.8072 49.314 91.3313C49.2204 91.0999 49.2173 90.8887 49.3103 90.7364L49.2173 90.8887C49.1242 91.0411 49.1274 91.2522 49.2209 91.4836C49.4293 91.9596 50.0174 92.3188 50.536 92.2869C50.5836 92.2811 50.6127 92.2815 50.6496 92.2691L50.7349 92.1295L50.7426 92.1168Z" fill="#565953"/>
<path d="M50.572 92.3961C50.572 92.3961 50.4953 92.4015 50.4584 92.4138C49.9398 92.4457 49.3517 92.0865 49.1433 91.6106C49.0498 91.3791 49.0466 91.168 49.1396 91.0157L49.0466 91.168C48.9535 91.3203 48.9567 91.5315 49.0502 91.7629C49.2587 92.2388 49.8467 92.598 50.3653 92.5662C50.4129 92.5604 50.442 92.5607 50.4789 92.5484L50.5642 92.4087L50.572 92.3961Z" fill="#565953"/>
<path d="M50.4016 92.6754C50.4016 92.6754 50.3249 92.6808 50.288 92.6931C49.7694 92.725 49.1813 92.3658 48.9729 91.8899C48.8716 91.6711 48.8762 91.4473 48.9692 91.295L48.8762 91.4473C48.7831 91.5997 48.7863 91.8108 48.8798 92.0422C49.0883 92.5182 49.6763 92.8773 50.1949 92.8455C50.2425 92.8397 50.2716 92.84 50.3085 92.8277L50.3938 92.6881L50.4016 92.6754Z" fill="#565953"/>
<path d="M50.2309 92.9546C50.2309 92.9546 50.1542 92.9601 50.1173 92.9724C49.5987 93.0043 49.0107 92.6451 48.8022 92.1691C48.701 91.9504 48.7055 91.7266 48.7986 91.5742L48.7055 91.7266C48.6125 91.8789 48.6157 92.09 48.7092 92.3215C48.9176 92.7974 49.5057 93.1566 50.0243 93.1247C50.0718 93.1189 50.101 93.1193 50.1379 93.107L50.2232 92.9673L50.2309 92.9546Z" fill="#565953"/>
<path d="M50.0603 93.2339C50.0603 93.2339 49.9835 93.2393 49.9467 93.2517C49.4281 93.2835 48.84 92.9243 48.6316 92.4484C48.5381 92.217 48.5349 92.0058 48.6279 91.8535L48.5349 92.0058C48.4418 92.1582 48.445 92.3693 48.5385 92.6007C48.747 93.0767 49.335 93.4359 49.8536 93.404C49.9012 93.3982 49.9303 93.3986 49.9672 93.3862L50.0525 93.2466L50.0603 93.2339Z" fill="#565953"/>
<path d="M49.8972 93.5005C49.8972 93.5005 49.8205 93.5059 49.7836 93.5183C49.2727 93.5374 48.6847 93.1782 48.4685 92.715C48.375 92.4836 48.3718 92.2724 48.4648 92.1201L48.3718 92.2724C48.2787 92.4248 48.2819 92.6359 48.3754 92.8673C48.5916 93.3306 49.1797 93.6898 49.6905 93.6706C49.7381 93.6648 49.7672 93.6652 49.8041 93.6528L49.8894 93.5132L49.8972 93.5005Z" fill="#565953"/>
<path d="M49.7268 93.7798C49.7268 93.7798 49.6501 93.7852 49.6132 93.7976C49.0946 93.8294 48.5065 93.4702 48.2981 92.9943C48.2046 92.7629 48.2014 92.5517 48.2944 92.3994L48.2014 92.5517C48.1083 92.7041 48.1115 92.9152 48.205 93.1466C48.4135 93.6226 49.0015 93.9818 49.5201 93.9499C49.5677 93.9441 49.5968 93.9445 49.6337 93.9321L49.719 93.7925L49.7268 93.7798Z" fill="#565953"/>
<path d="M49.5561 94.0591C49.5561 94.0591 49.4794 94.0645 49.4425 94.0768C48.9239 94.1087 48.3359 93.7495 48.1274 93.2736C48.0339 93.0421 48.0307 92.831 48.1238 92.6787L48.0307 92.831C47.9377 92.9834 47.9409 93.1945 48.0344 93.4259C48.2428 93.9019 48.8309 94.261 49.3495 94.2292C49.397 94.2234 49.4262 94.2237 49.4631 94.2114L49.5484 94.0718L49.5561 94.0591Z" fill="#565953"/>
<path d="M49.3857 94.3384C49.3857 94.3384 49.309 94.3438 49.2721 94.3561C48.7535 94.388 48.1655 94.0288 47.957 93.5529C47.8557 93.3341 47.8603 93.1103 47.9534 92.958L47.8603 93.1103C47.7673 93.2627 47.7704 93.4738 47.864 93.7052C48.0724 94.1812 48.6604 94.5404 49.179 94.5085C49.2266 94.5027 49.2558 94.5031 49.2927 94.4907L49.378 94.3511L49.3857 94.3384Z" fill="#565953"/>
<path d="M49.2151 94.6177C49.2151 94.6177 49.1384 94.6231 49.1015 94.6355C48.5907 94.6546 48.0026 94.2954 47.7864 93.8322C47.6929 93.6008 47.6897 93.3896 47.7905 93.2246L47.6975 93.3769C47.6044 93.5293 47.6076 93.7404 47.7011 93.9718C47.9096 94.4478 48.4976 94.807 49.0162 94.7751C49.0638 94.7693 49.0929 94.7697 49.1298 94.7573L49.2151 94.6177Z" fill="#565953"/>
<path d="M49.7862 89.9812C49.6086 90.1517 49.5701 90.407 49.7016 90.6965C49.8331 90.986 50.1043 91.2389 50.4056 91.3706L49.7862 89.9812Z" fill="#C0C0BC"/>
<path d="M51.5135 96.527L51.3655 96.1926C51.3655 96.1926 51.3149 96.1792 51.2965 96.1853L50.267 96.2363L50.1178 98.115L50.5597 98.0885L51.5213 96.5144L51.5135 96.527Z" fill="#121214"/>
<path d="M50.615 96.4838C50.4534 96.1236 50.1358 96.1388 49.9032 96.5196C49.6705 96.9005 49.6159 97.4946 49.7776 97.8548C49.9392 98.2151 50.2568 98.1999 50.4894 97.819C50.7221 97.4382 50.7767 96.844 50.615 96.4838Z" fill="#313330"/>
<path d="M56.9989 101.342C57.7196 102.95 57.4578 105.614 56.4187 107.315C55.8992 108.166 55.2781 108.606 54.6906 108.63L53.7659 108.606L54.6296 100.174L55.7173 100.123C56.2292 100.175 56.6649 100.615 56.9882 101.335L56.9989 101.342Z" fill="#858580"/>
<path d="M56.1431 101.325C55.4224 99.7167 54.0094 99.7949 52.9703 101.496C51.9312 103.197 51.6801 105.868 52.3978 107.457C53.1078 109.058 54.5316 108.986 55.5707 107.285C56.602 105.597 56.8609 102.914 56.1431 101.325Z" fill="#ACACA7"/>
<path d="M54.7299 102.1C54.3539 101.923 53.9045 102.154 53.54 102.75C52.9895 103.652 52.8465 105.064 53.2273 105.906C53.4357 106.382 53.7749 106.572 54.1206 106.487C53.934 106.408 53.7696 106.22 53.6381 105.931C53.2573 105.088 53.3896 103.67 53.9402 102.768C54.1806 102.375 54.4474 102.154 54.7193 102.094L54.7299 102.1Z" fill="#989893"/>
<path d="M55.2125 102.656C55.0917 102.373 54.9166 102.179 54.73 102.1C54.4689 102.167 54.1913 102.381 53.951 102.775C53.4004 103.676 53.2574 105.088 53.6489 105.937C53.7697 106.22 53.9448 106.414 54.1313 106.493C54.4032 106.433 54.6778 106.2 54.9104 105.819C55.4532 104.93 55.5855 103.512 55.2154 102.676L55.2125 102.656Z" fill="#C0C0BC"/>
<path d="M54.7371 103.795C54.6192 103.532 54.3998 103.554 54.2262 103.814C54.0634 104.081 54.0222 104.509 54.14 104.773C54.2578 105.037 54.488 105.02 54.6508 104.754C54.8137 104.487 54.8627 104.046 54.7371 103.795Z" fill="#121214"/>
<path d="M61.4548 111.28C62.1755 112.888 61.9136 115.552 60.8745 117.253C60.355 118.104 59.7339 118.544 59.1464 118.568L58.2217 118.544L59.0854 110.112L60.1732 110.062C60.6851 110.113 61.1207 110.553 61.4441 111.274L61.4548 111.28Z" fill="#858580"/>
<path d="M60.5989 111.263C59.8782 109.655 58.4652 109.733 57.4261 111.434C56.387 113.135 56.1359 115.806 56.8536 117.395C57.5636 118.996 58.9874 118.925 60.0265 117.224C61.0578 115.535 61.3167 112.852 60.5989 111.263Z" fill="#ACACA7"/>
<path d="M59.186 112.038C58.8099 111.861 58.3605 112.092 57.9961 112.689C57.4455 113.59 57.3025 115.002 57.6833 115.844C57.8918 116.32 58.231 116.51 58.5766 116.425C58.39 116.346 58.2257 116.158 58.0942 115.869C57.7134 115.026 57.8457 113.608 58.3962 112.707C58.6366 112.313 58.9034 112.092 59.1753 112.032L59.186 112.038Z" fill="#989893"/>
<path d="M59.6683 112.595C59.5475 112.312 59.3724 112.118 59.1858 112.038C58.9247 112.105 58.6472 112.319 58.4068 112.713C57.8562 113.614 57.7132 115.026 58.1047 115.875C58.2255 116.158 58.4006 116.352 58.5872 116.431C58.859 116.371 59.1336 116.138 59.3662 115.757C59.909 114.868 60.0413 113.45 59.6712 112.614L59.6683 112.595Z" fill="#C0C0BC"/>
<path d="M59.1851 113.746C59.0672 113.482 58.8371 113.499 58.6742 113.765C58.5114 114.032 58.4702 114.46 58.588 114.724C58.7058 114.987 58.936 114.971 59.0988 114.705C59.2617 114.438 59.3029 114.01 59.1851 113.746Z" fill="#121214"/>
<path d="M61.4064 110.71L56.5397 99.8587L55.2802 99.2288L54.5392 99.2643L54.2411 100.93L55.2521 103.169L53.8576 107.302L56.7102 113.664L56.4211 114.69L57.1621 114.655L59.5207 112.644L59.9453 113.583L58.4798 115.982L59.2315 115.953L60.5316 114.882L61.5707 113.181L61.4433 110.698L61.4064 110.71ZM57.1477 112.467L54.972 107.617L56.9726 104.341L59.1483 109.192L57.1477 112.467Z" fill="#121214"/>
<path d="M53.801 103.886L53.06 103.921L54.1069 102.208L54.8479 102.172L53.801 103.886Z" fill="#121214"/>
<path d="M54.7173 104.934C54.95 104.553 55.0046 103.959 54.8429 103.598C54.7659 103.412 54.6376 103.334 54.5027 103.338L53.4839 103.396L53.3347 105.274L54.3641 105.223C54.4885 105.212 54.6195 105.118 54.728 104.94L54.7173 104.934Z" fill="#121214"/>
<path d="M53.8238 103.656C53.6621 103.296 53.3445 103.311 53.1119 103.692C52.8793 104.073 52.8246 104.667 52.9863 105.027C53.148 105.387 53.4656 105.372 53.6982 104.991C53.9308 104.61 53.9854 104.016 53.8238 103.656Z" fill="#313330"/>
<path d="M60.6655 110.746L55.7988 99.8942L54.5393 99.2643L53.5002 100.965L52.7532 103.246L53.0629 103.941L54.0865 102.265L54.5034 103.217L53.1089 107.35L56.4134 114.703L58.772 112.692L59.1966 113.631L58.1731 115.307L58.4828 116.002L59.7829 114.931L60.822 113.229L60.6946 110.746L60.6655 110.746ZM56.4068 112.502L54.2311 107.652L56.2317 104.377L58.4074 109.227L56.4068 112.502Z" fill="#313330"/>
<path d="M56.5491 105.059L56.3567 104.941L54.2786 108.344C54.1855 108.496 54.1887 108.707 54.2822 108.939C54.4906 109.414 55.0787 109.774 55.5973 109.742C55.8566 109.726 56.0536 109.62 56.1515 109.435L57.5085 107.214L56.5491 105.059Z" fill="#989893"/>
<path d="M57.1248 106.352C56.776 106.226 56.4619 105.947 56.3061 105.625C56.2126 105.394 56.2094 105.183 56.3025 105.03L56.2094 105.183C56.1164 105.335 56.1196 105.546 56.2131 105.778C56.3777 106.157 56.7821 106.456 57.2125 106.545L57.1248 106.352Z" fill="#565953"/>
<path d="M57.2943 106.699C56.8222 106.655 56.3352 106.323 56.154 105.898C56.0528 105.68 56.0573 105.456 56.1504 105.303L56.0573 105.456C55.9643 105.608 55.9675 105.819 56.061 106.051C56.2772 106.514 56.8468 106.879 57.3654 106.847L57.2943 106.699Z" fill="#565953"/>
<path d="M57.4045 106.976C57.4045 106.976 57.32 106.994 57.2802 106.987C56.7615 107.019 56.1735 106.66 55.9651 106.184C55.8715 105.952 55.8684 105.741 55.9614 105.589L55.8684 105.741C55.7753 105.894 55.7785 106.105 55.872 106.336C56.0805 106.812 56.6685 107.171 57.1871 107.139C57.2823 107.128 57.3667 107.11 57.4405 107.085L57.386 106.982L57.4045 106.976Z" fill="#565953"/>
<path d="M57.4892 107.15C57.3921 107.212 57.263 107.255 57.1096 107.266C56.5987 107.285 56.0107 106.926 55.7945 106.463C55.701 106.232 55.6978 106.02 55.7986 105.855L55.7055 106.008C55.6125 106.16 55.6157 106.371 55.7169 106.59C55.9254 107.066 56.5134 107.425 57.032 107.393C57.2437 107.383 57.4068 107.308 57.5135 107.182L57.4862 107.13L57.4892 107.15Z" fill="#565953"/>
<path d="M56.9388 107.546C56.4202 107.577 55.8322 107.218 55.6238 106.742C55.5302 106.511 55.5271 106.3 55.6201 106.147L55.5271 106.3C55.434 106.452 55.4372 106.663 55.5307 106.895C55.7391 107.371 56.3272 107.73 56.8458 107.698C57.1051 107.682 57.3021 107.576 57.4 107.391L57.4698 107.277C57.369 107.442 57.1797 107.536 56.9388 107.546Z" fill="#565953"/>
<path d="M56.776 107.812C56.2574 107.844 55.6694 107.485 55.4609 107.009C55.3674 106.777 55.3642 106.566 55.4573 106.414L55.3642 106.566C55.2712 106.719 55.2743 106.93 55.3679 107.161C55.5763 107.637 56.1643 107.996 56.6829 107.965C56.9422 107.949 57.1393 107.842 57.2371 107.658L57.3069 107.544C57.2139 107.696 57.0169 107.802 56.776 107.812Z" fill="#565953"/>
<path d="M56.6053 108.091C56.0867 108.123 55.4987 107.764 55.2903 107.288C55.189 107.069 55.1936 106.846 55.2866 106.693L55.1936 106.846C55.1005 106.998 55.1037 107.209 55.1972 107.441C55.4057 107.917 55.9937 108.276 56.5123 108.244C56.7716 108.228 56.9686 108.122 57.0665 107.937L57.1363 107.823C57.0432 107.975 56.8462 108.082 56.6053 108.091Z" fill="#565953"/>
<path d="M56.4349 108.371C55.9163 108.403 55.3283 108.043 55.1199 107.568C55.0263 107.336 55.0232 107.125 55.1162 106.973L55.0232 107.125C54.9301 107.277 54.9333 107.488 55.0268 107.72C55.2352 108.196 55.8233 108.555 56.3419 108.523C56.6012 108.507 56.7982 108.401 56.8961 108.217L56.9659 108.102C56.8728 108.255 56.6758 108.361 56.4349 108.371Z" fill="#565953"/>
<path d="M56.2641 108.65C55.7455 108.682 55.1575 108.323 54.949 107.847C54.8555 107.615 54.8523 107.404 54.9454 107.252L54.8523 107.404C54.7593 107.557 54.7624 107.768 54.8637 107.986C55.0722 108.462 55.6602 108.822 56.1788 108.79C56.4381 108.774 56.6351 108.668 56.733 108.483L56.8028 108.369C56.7097 108.521 56.5127 108.628 56.2719 108.637L56.2641 108.65Z" fill="#565953"/>
<path d="M56.0936 108.929C55.575 108.961 54.987 108.602 54.7786 108.126C54.6773 107.907 54.6819 107.684 54.7749 107.531L54.6819 107.684C54.5888 107.836 54.592 108.047 54.6855 108.278C54.8939 108.754 55.482 109.114 56.0006 109.082C56.2599 109.066 56.4569 108.959 56.5548 108.775L56.6246 108.661C56.5238 108.826 56.3345 108.92 56.0936 108.929Z" fill="#565953"/>
<path d="M55.9232 109.209C55.4046 109.241 54.8166 108.881 54.6081 108.405C54.5146 108.174 54.5114 107.963 54.6045 107.81L54.5114 107.963C54.4184 108.115 54.4216 108.326 54.5151 108.558C54.7313 109.021 55.3193 109.38 55.8302 109.361C56.0895 109.345 56.2865 109.239 56.3844 109.055L56.4542 108.94C56.3611 109.093 56.1641 109.199 55.9232 109.209Z" fill="#565953"/>
<path d="M55.7523 109.488C55.2337 109.52 54.6457 109.161 54.4372 108.685C54.336 108.466 54.3405 108.242 54.4336 108.09L54.3405 108.242C54.2475 108.394 54.2507 108.606 54.3442 108.837C54.5526 109.313 55.1407 109.672 55.6593 109.64C55.9186 109.624 56.1156 109.518 56.2135 109.334L56.2833 109.22C56.1902 109.372 55.9932 109.478 55.7523 109.488Z" fill="#565953"/>
<path d="M56.4556 104.827C56.2781 104.998 56.2395 105.253 56.371 105.543C56.5025 105.832 56.7738 106.085 57.0857 106.223L56.4556 104.827Z" fill="#C0C0BC"/>
<path d="M58.4152 109.214L57.5601 107.298L57.3677 107.18L55.2895 110.582C55.1965 110.735 55.1997 110.946 55.2932 111.177C55.5016 111.653 56.0897 112.012 56.6083 111.98C56.6558 111.975 56.685 111.975 56.7326 111.969L58.4152 109.214Z" fill="#989893"/>
<path d="M58.1463 108.597C57.7975 108.471 57.4834 108.192 57.3276 107.87C57.2234 107.632 57.2309 107.428 57.324 107.275L57.2309 107.428C57.1379 107.58 57.141 107.791 57.2346 108.023C57.3992 108.402 57.8036 108.701 58.234 108.79L58.1463 108.597Z" fill="#565953"/>
<path d="M58.2972 108.951C57.8251 108.906 57.3381 108.574 57.157 108.15C57.0528 107.912 57.0603 107.707 57.1533 107.555L57.0603 107.707C56.9672 107.859 56.9704 108.07 57.0639 108.302C57.2801 108.765 57.8497 109.13 58.3683 109.099L58.2972 108.951Z" fill="#565953"/>
<path d="M58.4074 109.227C58.4074 109.227 58.3307 109.232 58.2831 109.238C57.7645 109.27 57.1765 108.911 56.9681 108.435C56.8638 108.197 56.8714 107.992 56.9722 107.827L56.8791 107.98C56.7861 108.132 56.7892 108.343 56.8828 108.575C57.0912 109.051 57.6792 109.41 58.1978 109.378C58.2454 109.372 58.2746 109.372 58.3221 109.367L58.4074 109.227Z" fill="#565953"/>
<path d="M58.2445 109.494C58.2445 109.494 58.1678 109.499 58.1202 109.505C57.6016 109.537 57.0136 109.178 56.8052 108.702C56.6932 108.476 56.7085 108.259 56.8015 108.107L56.7085 108.259C56.6154 108.411 56.6186 108.623 56.7121 108.854C56.9205 109.33 57.5086 109.689 58.0272 109.657C58.0748 109.651 58.1039 109.652 58.1515 109.646L58.2368 109.506L58.2445 109.494Z" fill="#565953"/>
<path d="M58.0741 109.773C58.0741 109.773 57.9974 109.778 57.9498 109.784C57.4312 109.816 56.8432 109.457 56.6348 108.981C56.5228 108.756 56.5381 108.538 56.6311 108.386L56.5381 108.538C56.445 108.691 56.4482 108.902 56.5417 109.133C56.7501 109.609 57.3382 109.968 57.8568 109.936C57.9044 109.931 57.9335 109.931 57.9811 109.925L58.0664 109.786L58.0741 109.773Z" fill="#565953"/>
<path d="M57.9035 110.052C57.9035 110.052 57.8268 110.058 57.7792 110.063C57.2606 110.095 56.6725 109.736 56.4641 109.26C56.3599 109.022 56.3674 108.818 56.4604 108.665L56.3674 108.818C56.2743 108.97 56.2775 109.181 56.371 109.413C56.5795 109.888 57.1675 110.248 57.6861 110.216C57.7337 110.21 57.7628 110.21 57.8104 110.205L57.8957 110.065L57.9035 110.052Z" fill="#565953"/>
<path d="M57.7328 110.332C57.7328 110.332 57.6561 110.337 57.6085 110.343C57.0899 110.375 56.5019 110.015 56.2934 109.539C56.1892 109.302 56.1967 109.097 56.2898 108.945L56.1967 109.097C56.1037 109.249 56.1069 109.46 56.2004 109.692C56.4088 110.168 56.9969 110.527 57.5155 110.495C57.5631 110.489 57.5922 110.49 57.6398 110.484L57.7251 110.344L57.7328 110.332Z" fill="#565953"/>
<path d="M57.5622 110.611C57.5622 110.611 57.4854 110.616 57.4379 110.622C56.9193 110.654 56.3312 110.295 56.1228 109.819C56.0186 109.581 56.0261 109.376 56.1191 109.224L56.0261 109.376C55.933 109.529 55.9362 109.74 56.0297 109.971C56.2382 110.447 56.8262 110.806 57.3448 110.774C57.3924 110.769 57.4215 110.769 57.4691 110.763L57.5544 110.623L57.5622 110.611Z" fill="#565953"/>
<path d="M57.3918 110.89C57.3918 110.89 57.315 110.896 57.2675 110.901C56.7489 110.933 56.1608 110.574 55.9524 110.098C55.8404 109.873 55.8557 109.656 55.9487 109.503L55.8557 109.656C55.7626 109.808 55.7658 110.019 55.8593 110.25C56.0678 110.726 56.6558 111.086 57.1744 111.054C57.222 111.048 57.2511 111.048 57.2987 111.042L57.384 110.903L57.3918 110.89Z" fill="#565953"/>
<path d="M57.2211 111.169C57.2211 111.169 57.1444 111.175 57.0968 111.181C56.5782 111.212 55.9902 110.853 55.7817 110.377C55.6775 110.139 55.685 109.935 55.7781 109.782L55.685 109.935C55.592 110.087 55.5951 110.298 55.6887 110.53C55.8971 111.006 56.4851 111.365 57.0038 111.333C57.0513 111.327 57.0805 111.328 57.1281 111.322L57.2134 111.182L57.2211 111.169Z" fill="#565953"/>
<path d="M57.0505 111.449C57.0505 111.449 56.9737 111.454 56.9261 111.46C56.4075 111.492 55.8195 111.133 55.6111 110.657C55.5069 110.419 55.5144 110.214 55.6074 110.062L55.5144 110.214C55.4213 110.366 55.4245 110.578 55.518 110.809C55.7265 111.285 56.3145 111.644 56.8331 111.612C56.8807 111.606 56.9098 111.607 56.9574 111.601L57.0427 111.461L57.0505 111.449Z" fill="#565953"/>
<path d="M56.8798 111.728C56.8798 111.728 56.8031 111.733 56.7555 111.739C56.2369 111.771 55.6488 111.412 55.4404 110.936C55.3362 110.698 55.3437 110.493 55.4368 110.341L55.3437 110.493C55.2507 110.646 55.2538 110.857 55.3474 111.088C55.5558 111.564 56.1438 111.923 56.6624 111.892C56.71 111.886 56.7392 111.886 56.7867 111.88L56.872 111.741L56.8798 111.728Z" fill="#565953"/>
<path d="M57.4588 107.079C57.2813 107.249 57.2427 107.505 57.3742 107.794C57.5057 108.083 57.777 108.336 58.0889 108.475L57.4695 107.085L57.4588 107.079Z" fill="#C0C0BC"/>
<path d="M59.1859 113.625L59.0379 113.29C59.0379 113.29 58.998 113.283 58.9689 113.283L57.9501 113.34L57.7932 115.232L58.2351 115.205L59.1966 113.631L59.1859 113.625Z" fill="#121214"/>
<path d="M58.2798 113.594C58.1182 113.234 57.8006 113.249 57.568 113.63C57.3353 114.011 57.2807 114.605 57.4424 114.965C57.604 115.325 57.9216 115.31 58.1542 114.929C58.3869 114.548 58.4415 113.954 58.2798 113.594Z" fill="#313330"/>
<path d="M60.1225 121.657L59.2401 119.689L62.2959 114.374L62.592 115.043L60.1225 121.657Z" fill="#1B39E3"/>
<path d="M79.5753 120.623L78.0745 122.791L78.5089 119.797L80.5362 116.189L82.0448 114.008L79.5753 120.623Z" fill="#1F259C"/>
<path d="M63.4591 123.573L60.1225 121.657L62.592 115.043L65.9286 116.959L65.4537 120.957L63.4591 123.573Z" fill="#3F5DFF"/>
<path d="M78.0744 122.791L63.4592 123.573L65.9286 116.959L80.5361 116.189L78.0744 122.791Z" fill="#1B39E3"/>
<path d="M75.6037 93.7404L43.8441 22.9188L63.289 21.8966L95.0486 92.7183L75.6037 93.7404Z" fill="#1B39E3"/>
<path d="M58.1062 51.7713L43.3363 20.5616L41.5638 22.2782L55.9115 52.6087L58.1062 51.7713Z" fill="#ACACA7"/>
<path d="M43.3362 20.5616L75.4444 91.4538L94.8893 90.4317L63.4501 20.3112L43.3362 20.5616Z" fill="#C0C0BC"/>
<path d="M81.3835 116.532L65.429 117.368L64.0111 112.719L82.7948 114.222L81.3835 116.532Z" fill="#121214"/>
<path d="M82.7948 114.222L66.8403 115.058L62.6662 112.926L64.0111 112.719L83.456 111.697L82.7948 114.222Z" fill="#565953"/>
<path d="M91.4263 100.163L81.7685 102.683L71.9153 101.197L75.6037 93.7404L95.0485 92.7183L91.4263 100.163Z" fill="#252CBD"/>
<path d="M91.1847 99.5968L82.751 100.041L83.1288 99.2781L93.5148 93.4026L94.216 93.3602L91.1847 99.5968Z" fill="#33340F"/>
<path d="M90.8506 98.8699L83.1288 99.2781L85.8405 93.8051L93.5147 93.4026L90.8506 98.8699Z" fill="#4E4D1D"/>
<path d="M81.3487 100.126L72.9151 100.57L73.3007 99.7943L83.6866 93.9188L84.3801 93.8891L81.3487 100.126Z" fill="#33340F"/>
<path d="M81.0224 99.386L73.3006 99.7943L75.9939 94.3274L83.6866 93.9187L81.0224 99.386Z" fill="#4E4D1D"/>
<path d="M84.5258 105.884L69.8367 107.388L70.6075 103.17L71.9152 101.197L91.4262 100.163L90.0708 102.141L84.5258 105.884Z" fill="#1F259C"/>
<path d="M88.7359 104.063L69.2833 105.097L70.6076 103.17L90.0709 102.141L88.7359 104.063Z" fill="#E8E8E6"/>
<path d="M83.4559 111.697L64.011 112.719L69.2832 105.097L88.7359 104.063L83.4559 111.697Z" fill="#7700BA"/>
<path d="M79.8158 106.336C79.4658 106.837 78.2388 107.308 77.085 107.37C75.9312 107.432 75.2742 107.066 75.632 106.552C75.982 106.052 77.2091 105.581 78.3628 105.519C79.5166 105.456 80.1736 105.823 79.8158 106.336Z" fill="#E8E8E6"/>
<path d="M66.2338 104.49L36.4382 39.2256L35.7755 29.602L38.4481 26.1547L41.5638 22.2782L75.6037 93.7404L71.9814 101.185L70.6076 103.17L66.2338 104.49Z" fill="#1B39E3"/>
<path d="M34.8755 31.3326L32.2515 41.8978L64.011 112.719L68.4249 104.211L34.8755 31.3326Z" fill="#A400FF"/>
<path d="M34.8755 31.3326L35.7756 29.602L70.6076 103.17L69.2833 105.097L34.8755 31.3326Z" fill="white"/>
<path d="M71.9625 99.9182L70.0361 95.6213L73.3782 90.1498L73.6197 90.7157L70.6421 95.5906L72.2861 99.2443L71.9625 99.9182Z" fill="#4E4D1D"/>
<path d="M72.286 99.2443L70.642 95.5906L73.6196 90.7157L74.9704 93.7197L72.286 99.2443Z" fill="#68662A"/>
<path d="M42.2909 32.3593L41.9265 32.9559L40.0078 28.6463L43.6927 23.9594L43.9012 24.4354L40.6138 28.6156L42.2909 32.3593Z" fill="#4E4D1D"/>
<path d="M45.293 27.5167L42.291 32.3593L40.6139 28.6156L43.9013 24.4354L45.293 27.5167Z" fill="#68662A"/>
<path d="M63.2118 91.6274C62.2813 93.1508 60.9848 93.2305 60.3459 91.7769L42.455 51.8954C41.8083 50.4546 42.0472 48.0206 42.9777 46.4972L46.1414 41.3176C47.0719 39.7942 48.3684 39.7146 49.0073 41.1681L66.8875 81.0431C67.5342 82.484 67.3061 84.9245 66.3756 86.4479L63.2118 91.6274Z" fill="white"/>
<path d="M61.8155 65.3543L75.6037 93.7404L76.8097 91.1651L64.0348 62.6884L62.9272 63.1798L61.8155 65.3543Z" fill="#ACACA7"/>
<path d="M64.3813 61.0873L58.4647 47.8687L79.1983 46.7796L85.1227 59.9855L64.3813 61.0873Z" fill="#D4D4D1"/>
<path d="M62.0264 65.9764L60.9202 66.0329L61.726 63.4397L64.3814 61.0873L85.1228 59.9855L83.7426 62.2452L83.4796 61.6663L64.0347 62.6884L62.0264 65.9764Z" fill="#989893"/>
<path d="M64.3813 61.0873L58.4647 47.8687L54.9851 52.8204L60.9201 66.0329L64.3813 61.0873Z" fill="#ACACA7"/>
<path d="M61.0284 54.5594L58.3676 48.6286L55.4639 52.7817L58.1139 58.7059L61.0284 54.5594Z" fill="#565953"/>
<path d="M57.5407 49.8143L57.3564 50.0678L60.0172 55.9986L60.1985 55.7258L57.5407 49.8143Z" fill="#ACACA7"/>
<path d="M57.1906 50.3152L56.9986 50.5814L59.6593 56.5122L59.8406 56.2394L57.1906 50.3152Z" fill="#ACACA7"/>
<path d="M57.8984 49.3007L57.7249 49.5608L60.3749 55.485L60.5669 55.2188L57.8984 49.3007Z" fill="#ACACA7"/>
<path d="M56.1066 51.8495L55.9254 52.1222L58.5754 58.0465L58.7674 57.7802L56.1066 51.8495Z" fill="#ACACA7"/>
<path d="M58.2561 48.7871L58.0825 49.0472L60.7326 54.9714L60.9246 54.7052L58.2561 48.7871Z" fill="#ACACA7"/>
<path d="M56.8329 50.8288L56.6409 51.095L59.3017 57.0258L59.483 56.753L56.8329 50.8288Z" fill="#ACACA7"/>
<path d="M55.749 52.3631L55.5677 52.6358L58.2177 58.56L58.4097 58.2938L55.749 52.3631Z" fill="#ACACA7"/>
<path d="M56.475 51.3424L56.283 51.6086L58.9331 57.5329L59.125 57.2666L56.475 51.3424Z" fill="#ACACA7"/>
<path d="M63.952 61.0691L61.2912 55.1383L58.3797 59.3041L61.0298 65.2283L63.952 61.0691Z" fill="#565953"/>
<path d="M60.4641 56.3241L60.2905 56.5841L62.9406 62.5084L63.1248 62.2548L60.4641 56.3241Z" fill="#ACACA7"/>
<path d="M60.1063 56.8376L59.9221 57.0912L62.5829 63.0219L62.7564 62.7619L60.1063 56.8376Z" fill="#ACACA7"/>
<path d="M60.822 55.8105L60.6407 56.0832L63.2985 61.9948L63.4827 61.7412L60.822 55.8105Z" fill="#ACACA7"/>
<path d="M59.0224 58.3719L58.8489 58.632L61.4989 64.5562L61.6909 64.29L59.0224 58.3719Z" fill="#ACACA7"/>
<path d="M61.1796 55.2969L60.9984 55.5696L63.6562 61.4812L63.8404 61.2276L61.1796 55.2969Z" fill="#ACACA7"/>
<path d="M59.7487 57.3512L59.5645 57.6048L62.2252 63.5355L62.3987 63.2755L59.7487 57.3512Z" fill="#ACACA7"/>
<path d="M58.6647 58.8855L58.4912 59.1456L61.1413 65.0698L61.3332 64.8036L58.6647 58.8855Z" fill="#ACACA7"/>
<path d="M59.3801 57.8583L59.2065 58.1184L61.8566 64.0426L62.0486 63.7764L59.3801 57.8583Z" fill="#ACACA7"/>
<path d="M67.1847 59.0693L67.3616 59.2123L67.5683 59.0422L62.3403 47.4121L61.9752 47.4331L62.4113 49.8435L67.1847 59.0693Z" fill="#C0C0BC"/>
<path d="M66.6113 60.3925L66.9764 60.3715L67.2323 59.9526L67.5682 59.0421L67.1846 59.0693L66.76 59.7164L66.6113 60.3925Z" fill="#989893"/>
<path d="M61.4475 47.9125L61.9753 47.433L67.1848 59.0693L66.8489 59.9797L66.6114 60.3925L61.1994 48.3188L61.4475 47.9125Z" fill="#ACACA7"/>
<path d="M66.5496 59.0997L66.7081 59.2488L66.9148 59.0787L61.7053 47.4425L61.3294 47.4569L61.7685 49.8866L66.5496 59.0997Z" fill="#C0C0BC"/>
<path d="M65.9577 60.4291L66.3413 60.402L66.5894 59.9957L66.9147 59.0787L66.5495 59.0997L66.1142 59.7403L65.9577 60.4291Z" fill="#989893"/>
<path d="M60.8123 47.9429L61.3293 47.4569L66.5495 59.0997L66.2136 60.0102L65.9577 60.4291L60.5564 48.3619L60.8123 47.9429Z" fill="#ACACA7"/>
<path d="M83.2454 58.2286L83.4039 58.3777L83.6106 58.2076L78.4011 46.5713L78.0252 46.5858L78.4721 49.0028L83.2454 58.2286Z" fill="#C0C0BC"/>
<path d="M82.6615 59.5453L83.0374 59.5308L83.2932 59.1119L83.6107 58.2076L83.2455 58.2286L82.8102 58.8691L82.6615 59.5453Z" fill="#989893"/>
<path d="M77.5081 47.0718L78.0251 46.5858L83.2453 58.2286L82.9094 59.139L82.6613 59.5452L77.2522 47.4907L77.5081 47.0718Z" fill="#ACACA7"/>
<path d="M82.5995 58.2524L82.7687 58.408L82.9753 58.2379L77.7658 46.6017L77.3822 46.6288L77.8291 49.0458L82.5995 58.2524Z" fill="#C0C0BC"/>
<path d="M82.0185 59.5884L82.4021 59.5612L82.6502 59.155L82.9754 58.238L82.5996 58.2524L82.1672 58.9122L82.0185 59.5884Z" fill="#989893"/>
<path d="M76.8652 47.1149L77.3823 46.6289L82.5996 58.2524L82.2744 59.1694L82.0185 59.5883L76.6171 47.5211L76.8652 47.1149Z" fill="#ACACA7"/>
<path d="M72.0266 54.3394L71.5845 54.174L69.8645 49.5151L74.6174 49.2806L76.7795 54.1049L73.3157 55.3535L72.0266 54.3394Z" fill="#C0C0BC"/>
<path d="M70.0762 56.7391L67.9141 51.9147L68.4491 51.0388L69.8643 49.515L72.0264 54.3394L71.2095 55.845L70.0762 56.7391Z" fill="#ACACA7"/>
<path d="M76.38 55.5518L76.7794 54.1049L72.0264 54.3394L70.619 55.8504L70.0762 56.739L75.8372 56.4405L76.38 55.5518Z" fill="#989893"/>
<path d="M62.592 115.043L30.8402 44.2083L32.2515 41.8978L64.011 112.719L62.592 115.043Z" fill="#313330"/>
<path d="M95.0486 92.7183L75.6037 93.7404L76.8097 91.1651L96.2546 90.143L95.0486 92.7183Z" fill="#989893"/>
<path d="M84.9316 88.4912L84.7145 88.8466L85.5608 90.7058L84.3548 93.2811L84.4532 93.4806L86.0273 90.9035L84.9316 88.4912Z" fill="#ACACA7"/>
<path d="M86.925 93.3518L84.4533 93.4806L86.0274 90.9036L88.4991 90.7747L86.925 93.3518Z" fill="#989893"/>
<path d="M87.9352 91.145L86.7953 93.0112L85.0064 93.1038L85.1925 92.7991L86.6745 92.7282L87.6283 91.1667L87.9352 91.145Z" fill="#33340F"/>
<path d="M87.6284 91.1668L86.6746 92.7282L85.1926 92.7992L86.1386 91.2504L87.6284 91.1668Z" fill="#68662A"/>
<path d="M86.0274 90.9035L84.9318 88.4912L87.4112 88.3496L88.4991 90.7747L86.0274 90.9035Z" fill="#D4D4D1"/>
<path d="M65.4289 117.368L62.592 115.043L64.011 112.719L66.8402 115.058L65.4289 117.368Z" fill="#313330"/>
<path d="M72.4562 108.988L67.8014 109.23L67.6397 108.87L72.2946 108.628L72.4562 108.988Z" fill="#D4D4D1"/>
<path d="M70.8821 111.565L66.2272 111.807L67.8013 109.23L72.4562 108.988L70.8821 111.565Z" fill="#989893"/>
<path d="M70.7314 111.403L68.1937 111.544L69.5429 109.335L72.0729 109.207L70.7314 111.403Z" fill="#D199B2"/>
<path d="M67.9053 111.56L66.6349 111.62L67.9764 109.424L69.2467 109.363L67.9053 111.56Z" fill="#7700BA"/>
<path d="M66.2273 111.807L65.9809 111.273L67.6397 108.87L67.8014 109.23L66.2273 111.807Z" fill="#ACACA7"/>
<path d="M85.2856 108.318L80.6308 108.56L80.4691 108.199L85.1317 107.945L85.2856 108.318Z" fill="#D4D4D1"/>
<path d="M83.7117 110.895L79.0568 111.137L80.6309 108.56L85.2858 108.318L83.7117 110.895Z" fill="#989893"/>
<path d="M81.9944 110.822L79.4645 110.95L80.8059 108.754L83.3436 108.613L81.9944 110.822Z" fill="#D199B2"/>
<path d="M83.561 110.733L82.2907 110.794L83.6322 108.597L84.9025 108.537L83.561 110.733Z" fill="#7700BA"/>
<path d="M79.0566 111.137L78.8073 110.584L80.469 108.2L80.6307 108.56L79.0566 111.137Z" fill="#ACACA7"/>
<path d="M62.7656 80.2685C62.5608 80.3874 62.3665 80.321 62.2457 80.0381L60.5881 76.3586C60.4128 75.9726 60.4771 75.3146 60.7359 74.9149L61.6587 73.4042C61.8293 73.1249 62.0477 73.0317 62.2265 73.1235C62.1372 73.1736 62.0538 73.2621 61.9763 73.389L61.0535 74.8997C60.8054 75.306 60.7489 75.9513 60.9057 76.3434L62.5633 80.0229C62.6101 80.1386 62.6801 80.2162 62.7656 80.2685Z" fill="#4E4D1D"/>
<path d="M63.9308 78.5051L63.0081 80.0158C62.9305 80.1428 62.8471 80.2313 62.7578 80.2813C62.683 80.2356 62.6129 80.158 62.5555 80.0357L60.8979 76.3563C60.7226 75.9703 60.7975 75.3188 61.0457 74.9126L61.9684 73.4019C62.046 73.2749 62.1294 73.1864 62.2187 73.1364C62.2935 73.1821 62.3636 73.2597 62.421 73.382L64.0708 77.0741C64.2461 77.4601 64.1789 78.0989 63.9231 78.5178L63.9308 78.5051Z" fill="#68662A"/>
<path d="M65.3251 85.9805C65.1203 86.0995 64.926 86.0331 64.8052 85.7501L63.1554 82.058C62.9801 81.672 63.0473 81.0332 63.2954 80.627L64.2182 79.1163C64.3888 78.837 64.6072 78.7438 64.786 78.8356C64.6967 78.8856 64.6133 78.9741 64.5357 79.1011L63.613 80.6118C63.3648 81.018 63.3083 81.6633 63.4759 82.062L65.1257 85.7542C65.1725 85.8699 65.2425 85.9475 65.3174 85.9932L65.3251 85.9805Z" fill="#4E4D1D"/>
<path d="M66.4902 84.217L65.5674 85.7277C65.4899 85.8547 65.4065 85.9432 65.3172 85.9932C65.2424 85.9475 65.1723 85.8699 65.1256 85.7541L63.4757 82.062C63.3004 81.676 63.3569 81.0307 63.6128 80.6117L64.5356 79.101C64.6131 78.9741 64.6965 78.8856 64.7858 78.8355C64.8607 78.8813 64.9307 78.9589 64.9882 79.0811L66.638 82.7733C66.8133 83.1593 66.7461 83.7981 66.498 84.2043L66.4902 84.217Z" fill="#68662A"/>
<path d="M48.374 48.1896C48.1692 48.3086 47.9749 48.2422 47.8541 47.9592L46.2043 44.267C46.029 43.8811 46.0962 43.2423 46.352 42.8234L47.2748 41.3126C47.4454 41.0334 47.6716 40.9275 47.8426 41.0319C47.7533 41.082 47.6699 41.1705 47.5924 41.2974L46.6696 42.8082C46.4215 43.2144 46.365 43.8597 46.5325 44.2584L48.1824 47.9505C48.2291 48.0663 48.3098 48.1504 48.3847 48.1961L48.374 48.1896Z" fill="#4E4D1D"/>
<path d="M49.547 46.4134L48.6243 47.9241C48.5467 48.0511 48.4633 48.1396 48.374 48.1896C48.2992 48.1439 48.2292 48.0663 48.1717 47.944L46.5219 44.2518C46.3466 43.8659 46.4031 43.2206 46.659 42.8016L47.5817 41.2909C47.6593 41.164 47.7427 41.0755 47.832 41.0254C47.9068 41.0711 47.9768 41.1488 48.0343 41.271L49.6841 44.9632C49.8594 45.3492 49.7922 45.9879 49.5363 46.4069L49.547 46.4134Z" fill="#68662A"/>
<path d="M50.9335 53.9017C50.7287 54.0206 50.5344 53.9542 50.4136 53.6713L48.7638 49.9791C48.5885 49.5931 48.645 48.9478 48.9009 48.5289L49.8236 47.0182C49.9942 46.7389 50.2126 46.6457 50.3915 46.7375C50.3022 46.7875 50.2187 46.876 50.1412 47.003L49.2185 48.5137C48.9703 48.9199 48.9138 49.5652 49.0784 49.9447L50.7283 53.6369C50.7857 53.7591 50.845 53.8302 50.9306 53.8825L50.9335 53.9017Z" fill="#4E4D1D"/>
<path d="M52.1064 52.1254L51.1837 53.6361C51.1061 53.7631 51.0227 53.8516 50.9334 53.9016C50.8586 53.8559 50.7886 53.7783 50.7311 53.656L49.0813 49.9639C48.906 49.5779 48.9625 48.9326 49.2213 48.5329L50.1441 47.0222C50.2216 46.8952 50.305 46.8067 50.3943 46.7567C50.4692 46.8024 50.5392 46.88 50.5966 47.0023L52.2465 50.6944C52.4218 51.0804 52.3653 51.7257 52.1171 52.132L52.1064 52.1254Z" fill="#68662A"/>
<path d="M55.5538 64.2193C55.3597 64.3448 55.1547 64.2719 55.0339 63.9889L53.384 60.2967C53.2087 59.9108 53.2652 59.2654 53.5318 58.853L54.4546 57.3423C54.6252 57.063 54.8436 56.9698 55.0224 57.0616C54.9331 57.1117 54.8497 57.2002 54.7722 57.3271L53.8494 58.8378C53.6013 59.2441 53.5448 59.8894 53.7123 60.2881L55.3621 63.9802C55.4089 64.096 55.4789 64.1736 55.5645 64.2258L55.5538 64.2193Z" fill="#4E4D1D"/>
<path d="M56.7267 62.4431L55.804 63.9538C55.7264 64.0807 55.643 64.1692 55.5537 64.2193C55.4789 64.1736 55.4088 64.0959 55.3514 63.9737L53.7016 60.2815C53.5263 59.8955 53.5828 59.2502 53.8387 58.8313L54.7614 57.3206C54.8389 57.1936 54.9224 57.1051 55.0117 57.0551C55.0865 57.1008 55.1565 57.1784 55.214 57.3007L56.8638 60.9928C57.0391 61.3788 56.9826 62.0241 56.7267 62.4431Z" fill="#68662A"/>
<path d="M58.1209 69.9186C57.9269 70.0441 57.7218 69.9711 57.5933 69.7009L55.9435 66.0087C55.7682 65.6227 55.8354 64.984 56.0835 64.5777L57.0063 63.067C57.1768 62.7877 57.3953 62.6945 57.5741 62.7863C57.4848 62.8364 57.4014 62.9249 57.3238 63.0518L56.4011 64.5625C56.1529 64.9688 56.0964 65.6141 56.264 66.0127L57.9138 69.7049C57.9606 69.8206 58.0306 69.8983 58.1161 69.9505L58.1209 69.9186Z" fill="#4E4D1D"/>
<path d="M59.2863 68.1551L58.3635 69.6658C58.286 69.7928 58.2026 69.8813 58.1133 69.9313C58.0384 69.8856 57.9684 69.808 57.911 69.6857L56.2611 65.9936C56.0858 65.6076 56.1423 64.9623 56.3982 64.5433L57.321 63.0326C57.3985 62.9057 57.4819 62.8172 57.5712 62.7671C57.6461 62.8128 57.7161 62.8905 57.7736 63.0127L59.4234 66.7049C59.5987 67.0909 59.5315 67.7297 59.2756 68.1486L59.2863 68.1551Z" fill="#68662A"/>
<path d="M73.3729 72.9245L72.1039 70.0751L72.6389 69.1991L73.908 72.0486L73.3729 72.9245Z" fill="#ACACA7"/>
<path d="M86.6603 66.2411C87.2418 65.289 87.3837 63.8069 86.9834 62.9C86.7886 62.4498 86.4863 62.2477 86.1688 62.2629L68.0709 63.2188L67.6863 67.9344L85.7074 66.9839C85.7074 66.9839 85.7074 66.9839 85.7181 66.9905C86.0328 66.956 86.3734 66.7109 86.6603 66.2411Z" fill="#D4D4D1"/>
<path d="M69.5199 67.1195L70.057 66.3843L86.9905 65.4842L86.8249 65.9234L85.9432 66.8142L69.886 67.8661L69.5199 67.1195Z" fill="#ACACA7"/>
<path d="M68.9437 63.8566C68.5357 62.9624 67.7471 63.0037 67.1733 63.9431C66.5994 64.8825 66.4498 66.3774 66.8501 67.2843C67.2581 68.1785 68.0467 68.1372 68.6283 67.1851C69.2099 66.233 69.3518 64.7508 68.9515 63.8439L68.9437 63.8566Z" fill="#ACACA7"/>
<path d="M88.2799 69.8626C88.8615 68.9104 89.0034 67.4283 88.6031 66.5214C88.4083 66.0712 88.106 65.8691 87.7884 65.8843L69.6905 66.8402L69.3059 71.5558L87.3271 70.6054C87.3271 70.6054 87.3271 70.6054 87.3377 70.6119C87.6524 70.5775 87.993 70.3323 88.2799 69.8626Z" fill="#D4D4D1"/>
<path d="M70.5634 67.4781C70.1553 66.5839 69.3667 66.6251 68.7929 67.5645C68.2191 68.504 68.0694 69.9988 68.4697 70.9057C68.8778 71.7999 69.6664 71.7587 70.2479 70.8065C70.8295 69.8544 70.9714 68.3723 70.5711 67.4654L70.5634 67.4781Z" fill="#ACACA7"/>
<path d="M75.3262 70.5441L74.8734 70.3721L74.9999 69.8045L84.2329 69.3256L84.5563 70.0461L79.5553 71.5759L75.3262 70.5441Z" fill="#C0C0BC"/>
<path d="M73.9082 72.0486L73.395 71.7351L73.5926 71.3154L75 69.8044L75.3263 70.5441L74.8688 71.2931L73.9082 72.0486Z" fill="#ACACA7"/>
<path d="M84.1491 71.5057L84.5562 70.046L75.3262 70.5441L73.9081 72.0486L73.373 72.9245L83.6141 72.3816L84.1491 71.5057Z" fill="#989893"/>
<path d="M61.5655 46.59L60.2965 43.7405L60.8315 42.8646L62.1083 45.7014L61.5655 46.59Z" fill="#ACACA7"/>
<path d="M74.8526 39.9066C75.4342 38.9545 75.5761 37.4724 75.1758 36.5655C74.981 36.1153 74.6787 35.9132 74.3611 35.9284L56.2633 36.8843L55.8787 41.5999L73.8998 40.6494C73.8998 40.6494 73.8998 40.6494 73.9105 40.6559C74.2251 40.6215 74.558 40.389 74.8449 39.9193L74.8526 39.9066Z" fill="#D4D4D1"/>
<path d="M57.709 40.7658L58.2462 40.0305L75.1826 39.1496L75.017 39.5889L74.1323 40.4604L58.0674 41.525L57.709 40.7658Z" fill="#ACACA7"/>
<path d="M57.1256 37.5155C56.7176 36.6213 55.929 36.6626 55.3551 37.602C54.7736 38.5542 54.6317 40.0363 55.032 40.9432C55.44 41.8374 56.2286 41.7961 56.8102 40.844C57.3917 39.8919 57.5337 38.4097 57.1334 37.5028L57.1256 37.5155Z" fill="#ACACA7"/>
<path d="M76.4798 43.5154C77.0614 42.5632 77.2033 41.0811 76.803 40.1742C76.6082 39.724 76.3059 39.5219 75.9883 39.5371L57.8905 40.493L57.5059 45.2086L75.527 44.2581C75.527 44.2581 75.527 44.2581 75.5377 44.2647C75.8523 44.2302 76.1852 43.9978 76.4721 43.5281L76.4798 43.5154Z" fill="#D4D4D1"/>
<path d="M58.7635 41.1309C58.3555 40.2367 57.5669 40.2779 56.9931 41.2173C56.4193 42.1568 56.2618 43.6643 56.6699 44.5585C57.078 45.4527 57.8665 45.4115 58.4481 44.4593C59.0297 43.5072 59.1716 42.0251 58.7713 41.1182L58.7635 41.1309Z" fill="#ACACA7"/>
<path d="M63.5157 44.1904L63.0629 44.0184L63.1923 43.4699L72.4146 42.9846L72.7486 43.7116L67.7447 45.2222L63.5157 44.1904Z" fill="#C0C0BC"/>
<path d="M62.1081 45.7014L61.5949 45.3879L61.7848 44.9809L63.1922 43.4699L63.5155 44.1904L63.0503 44.9521L62.1081 45.7014Z" fill="#ACACA7"/>
<path d="M72.3415 45.1711L72.7486 43.7115L63.5156 44.1903L62.1082 45.7014L61.5654 46.59L71.8065 46.0471L72.3415 45.1711Z" fill="#989893"/>
<path d="M64.3619 102.771L64.1758 103.076L62.2192 98.7084L62.6379 98.0228L62.7694 98.3123L64.3619 102.771Z" fill="#650094"/>
<path d="M64.6024 102.378L64.362 102.771L62.5369 98.6932L62.7695 98.3123L64.6024 102.378Z" fill="#7700BA"/>
<path d="M63.2301 104.625L63.0517 104.917L61.0874 100.562L61.5061 99.8763L61.6376 100.166L63.2301 104.625Z" fill="#650094"/>
<path d="M63.4703 104.231L63.23 104.625L61.4048 100.547L61.6375 100.166L63.4703 104.231Z" fill="#7700BA"/>
<path d="M62.1056 106.466L61.9195 106.77L59.9551 102.415L60.3816 101.717L60.5131 102.007L62.1056 106.466Z" fill="#650094"/>
<path d="M62.3381 106.085L62.1054 106.466L60.2726 102.4L60.5129 102.007L62.3381 106.085Z" fill="#7700BA"/>
<path d="M65.5111 101.155C65.2606 101.228 65.0069 101.091 64.8482 100.75L63.5139 97.7908C63.2481 97.1926 63.3362 96.1831 63.7239 95.5484L69.6093 85.9128C69.8342 85.5447 70.1098 85.3818 70.3595 85.4298C70.1828 85.4787 69.9839 85.6361 69.8211 85.9027L63.9356 95.5382C63.5479 96.173 63.4598 97.1825 63.7257 97.7807L65.0599 100.74C65.1748 100.984 65.3333 101.133 65.5033 101.167L65.5111 101.155Z" fill="#0F1F7A"/>
<path d="M71.9271 91.0589L66.0417 100.694C65.8788 100.961 65.6906 101.125 65.5032 101.167C65.3332 101.133 65.1669 100.997 65.0598 100.74L63.7255 97.7807C63.4597 97.1825 63.5478 96.173 63.9355 95.5382L69.8209 85.9027C69.9838 85.6361 70.172 85.4722 70.3594 85.4297C70.5294 85.4639 70.6957 85.6003 70.8028 85.8575L72.1371 88.8165C72.403 89.4147 72.3148 90.4242 71.9271 91.0589Z" fill="#1F259C"/>
<path d="M69.7684 93.6799C69.5577 93.7604 69.3498 93.6682 69.2183 93.3787L68.073 90.8314C67.8675 90.3747 67.9355 89.6144 68.2409 89.1385L69.3265 87.3612C69.5126 87.0565 69.7465 86.9379 69.9408 87.0044C69.8224 87.054 69.6943 87.1676 69.5858 87.3453L68.5002 89.1226C68.2055 89.605 68.1375 90.3653 68.343 90.822L69.4883 93.3693C69.5623 93.5366 69.6644 93.6338 69.7791 93.6864L69.7684 93.6799Z" fill="#4E4D1D"/>
<path d="M71.2091 91.5616L70.1235 93.3389C70.015 93.5167 69.8869 93.6302 69.7685 93.6799C69.6567 93.6465 69.5439 93.5427 69.4777 93.3628L68.3323 90.8155C68.1269 90.3588 68.1949 89.5985 68.4895 89.1161L69.5751 87.3388C69.6837 87.161 69.8117 87.0475 69.9302 86.9978C70.0419 87.0312 70.1547 87.135 70.2103 87.3084L71.3556 89.8557C71.5611 90.3124 71.4931 91.0727 71.1984 91.5551L71.2091 91.5616Z" fill="#68662A"/>
<path d="M54.59 110.19L54.744 110.563L59.4896 102.793L59.3279 102.433L54.59 110.19Z" fill="#A400FF"/>
<path d="M59.3278 102.433L59.4895 102.793L60.1246 102.763L59.963 102.403L59.3278 102.433Z" fill="#C226FF"/>
<path d="M60.1248 102.763L59.4897 102.793L54.7441 110.563L55.387 110.52L60.1248 102.763Z" fill="#7700BA"/>
<path d="M55.6891 109.135L57.3224 112.783L58.0298 112.273L56.3888 108.639L55.7434 109.046L55.6891 109.135Z" fill="#7700BA"/>
<path d="M55.7434 109.046L57.3844 112.681L58.0841 112.184L56.4508 108.537L55.7434 109.046Z" fill="#C226FF"/>
<path d="M56.953 107.066L58.5863 110.713L59.2937 110.204L57.6527 106.57L57.0073 106.977L56.953 107.066Z" fill="#7700BA"/>
<path d="M57.0073 106.977L58.6483 110.612L59.348 110.115L57.7147 106.468L57.0073 106.977Z" fill="#C226FF"/>
<path d="M58.279 104.895L59.9122 108.542L60.6196 108.033L58.9786 104.399L58.3332 104.806L58.279 104.895Z" fill="#7700BA"/>
<path d="M58.3332 104.806L59.9742 108.441L60.6739 107.944L59.0406 104.297L58.3332 104.806Z" fill="#C226FF"/>
<path d="M56.385 114.197L56.5496 114.577L61.2874 106.82L61.1228 106.44L56.385 114.197Z" fill="#A400FF"/>
<path d="M61.1227 106.44L61.2873 106.82L61.9303 106.777L61.7579 106.41L61.1227 106.44Z" fill="#C226FF"/>
<path d="M61.9303 106.777L61.2873 106.82L56.5495 114.577L57.1924 114.534L61.9303 106.777Z" fill="#7700BA"/>
<path d="M39.4396 47.1947L39.2535 47.4994L37.2968 43.1317L37.7156 42.4462L37.8471 42.7357L39.4396 47.1947Z" fill="#650094"/>
<path d="M39.6801 46.8011L39.4397 47.1947L37.6145 43.1165L37.8472 42.7357L39.6801 46.8011Z" fill="#7700BA"/>
<path d="M38.315 49.0355L38.1289 49.3402L36.1645 44.9852L36.5833 44.2997L36.7225 44.5765L38.315 49.0355Z" fill="#650094"/>
<path d="M38.5478 48.6546L38.3152 49.0355L36.4823 44.97L36.7227 44.5765L38.5478 48.6546Z" fill="#7700BA"/>
<path d="M37.183 50.889L36.9969 51.1936L35.0325 46.8387L35.459 46.1405L35.5905 46.43L37.183 50.889Z" fill="#650094"/>
<path d="M37.4157 50.5081L37.1831 50.889L35.3502 46.8235L35.5906 46.43L37.4157 50.5081Z" fill="#7700BA"/>
<path d="M40.5885 45.5781C40.338 45.6517 40.0843 45.5142 39.9256 45.1732L38.5913 42.2141C38.3254 41.616 38.4136 40.6065 38.8013 39.9717L44.6867 30.3362C44.9116 29.968 45.1872 29.8052 45.4369 29.8531C45.2602 29.902 45.0613 30.0594 44.8985 30.326L39.013 39.9616C38.6253 40.5963 38.5265 41.5993 38.8031 42.204L40.1373 45.163C40.2445 45.4202 40.4107 45.5567 40.5807 45.5908L40.5885 45.5781Z" fill="#0F1F7A"/>
<path d="M47.0045 35.4823L41.1191 45.1178C40.9562 45.3844 40.768 45.5484 40.5806 45.5908C40.4106 45.5567 40.2443 45.4203 40.1372 45.1631L38.8029 42.204C38.537 41.6058 38.6252 40.5963 39.0129 39.9616L44.8983 30.3261C45.0612 30.0595 45.2494 29.8955 45.4368 29.8531C45.6068 29.8872 45.7731 30.0236 45.8802 30.2808L47.2145 33.2399C47.4803 33.8381 47.3922 34.8476 47.0045 35.4823Z" fill="#1F259C"/>
<path d="M44.8458 38.1033C44.6351 38.1838 44.4272 38.0916 44.2957 37.8021L43.1504 35.2548C42.9449 34.7981 43.0129 34.0378 43.3183 33.5619L44.4039 31.7846C44.59 31.4799 44.8239 31.3613 45.0182 31.4278C44.8998 31.4774 44.7717 31.591 44.6632 31.7687L43.5776 33.546C43.2829 34.0284 43.2149 34.7887 43.4097 35.2389L44.5579 37.8054C44.632 37.9726 44.7341 38.0699 44.8487 38.1225L44.8458 38.1033Z" fill="#4E4D1D"/>
<path d="M46.2866 35.985L45.201 37.7623C45.0924 37.94 44.9643 38.0535 44.8459 38.1032C44.7342 38.0698 44.6214 37.9661 44.5551 37.7862L43.4069 35.2196C43.2014 34.7629 43.2801 34.0091 43.5747 33.5267L44.6603 31.7494C44.7689 31.5717 44.897 31.4582 45.0154 31.4085C45.1271 31.4419 45.2399 31.5456 45.3062 31.7256L46.4515 34.2729C46.657 34.7296 46.589 35.4899 46.2943 35.9723L46.2866 35.985Z" fill="#68662A"/>
<path d="M29.6567 54.6065L29.8184 54.9667L34.5562 47.2101L34.3945 46.8498L29.6567 54.6065Z" fill="#A400FF"/>
<path d="M34.3945 46.8499L34.5561 47.2101L35.202 47.1862L35.0296 46.8195L34.3945 46.8499Z" fill="#C226FF"/>
<path d="M35.2019 47.1862L34.5561 47.2101L29.8182 54.9668L30.4641 54.9429L35.2019 47.1862Z" fill="#7700BA"/>
<path d="M30.7558 53.5522L32.3891 57.1994L33.0965 56.6902L31.4632 53.043L30.8101 53.4633L30.7558 53.5522Z" fill="#7700BA"/>
<path d="M30.81 53.4633L32.4511 57.0978L33.1507 56.6013L31.5174 52.9541L30.81 53.4633Z" fill="#C226FF"/>
<path d="M32.02 51.4829L33.6533 55.1301L34.3607 54.6209L32.7274 50.9737L32.0743 51.394L32.02 51.4829Z" fill="#7700BA"/>
<path d="M32.0739 51.394L33.715 55.0285L34.4224 54.5193L32.7814 50.8848L32.0739 51.394Z" fill="#C226FF"/>
<path d="M33.3459 49.312L34.9791 52.9592L35.6865 52.45L34.0455 48.8155L33.4001 49.2231L33.3459 49.312Z" fill="#7700BA"/>
<path d="M33.4001 49.2232L35.0411 52.8577L35.7408 52.3611L34.1075 48.714L33.4001 49.2232Z" fill="#C226FF"/>
<path d="M31.4516 58.6139L31.6162 58.9934L36.3618 51.224L36.1895 50.8572L31.4516 58.6139Z" fill="#A400FF"/>
<path d="M36.1894 50.8573L36.3617 51.224L36.9969 51.1936L36.8245 50.8269L36.1894 50.8573Z" fill="#C226FF"/>
<path d="M36.9969 51.1936L36.3617 51.224L31.6162 58.9934L32.2591 58.9503L36.9969 51.1936Z" fill="#7700BA"/>
</g>
<defs>
<clipPath id="clip0_18_2498">
<rect width="85.5948" height="101.587" fill="white" transform="translate(52.9536 7.62939e-06) rotate(31.417)"/>
</clipPath>
</defs>
</svg>
