<svg width="704" height="791" viewBox="0 0 704 791" fill="none" xmlns="http://www.w3.org/2000/svg">
<g clip-path="url(#clip0_27_2)">
<path d="M300.202 318.068L321.103 320.043L322.02 322.032L301.113 320.066L300.202 318.068Z" fill="#FDF8F2"/>
<path d="M302.945 318.7L305.5 318.91L306.067 320.139L303.505 319.923L302.945 318.7Z" fill="#39334E"/>
<path d="M316.588 319.968L319.136 320.187L319.704 321.415L317.141 321.199L316.588 319.968Z" fill="#39334E"/>
<path d="M295.697 308.189L316.598 310.164L317.514 312.153L296.608 310.187L295.697 308.189Z" fill="#FDF8F2"/>
<path d="M298.44 308.821L300.994 309.031L301.562 310.26L298.999 310.044L298.44 308.821Z" fill="#39334E"/>
<path d="M312.082 310.089L314.631 310.308L315.198 311.536L312.636 311.32L312.082 310.089Z" fill="#39334E"/>
<path d="M291.192 298.31L312.092 300.285L313.009 302.274L292.102 300.308L291.192 298.31Z" fill="#FDF8F2"/>
<path d="M293.935 298.942L296.489 299.152L297.056 300.381L294.494 300.165L293.935 298.942Z" fill="#39334E"/>
<path d="M307.577 300.21L310.125 300.429L310.693 301.657L308.13 301.441L307.577 300.21Z" fill="#39334E"/>
<path d="M286.687 288.431L307.587 290.406L308.504 292.395L287.597 290.429L286.687 288.431Z" fill="#FDF8F2"/>
<path d="M289.43 289.063L291.984 289.273L292.551 290.502L289.989 290.286L289.43 289.063Z" fill="#39334E"/>
<path d="M303.072 290.331L305.62 290.55L306.188 291.778L303.625 291.562L303.072 290.331Z" fill="#39334E"/>
<path d="M282.181 278.552L303.082 280.527L303.998 282.516L283.092 280.55L282.181 278.552Z" fill="#FDF8F2"/>
<path d="M284.924 279.184L287.478 279.394L288.046 280.623L285.483 280.407L284.924 279.184Z" fill="#39334E"/>
<path d="M298.567 280.452L301.115 280.671L301.682 281.899L299.12 281.683L298.567 280.452Z" fill="#39334E"/>
<path d="M277.676 268.673L298.576 270.648L299.493 272.637L278.586 270.671L277.676 268.673Z" fill="#FDF8F2"/>
<path d="M280.419 269.305L282.973 269.515L283.541 270.744L280.978 270.528L280.419 269.305Z" fill="#39334E"/>
<path d="M294.061 270.574L296.609 270.792L297.177 272.021L294.615 271.805L294.061 270.574Z" fill="#39334E"/>
<path d="M273.17 258.794L294.071 260.769L294.988 262.758L274.081 260.792L273.17 258.794Z" fill="#FDF8F2"/>
<path d="M275.913 259.426L278.468 259.636L279.035 260.865L276.473 260.649L275.913 259.426Z" fill="#39334E"/>
<path d="M289.556 260.695L292.104 260.913L292.672 262.142L290.109 261.926L289.556 260.695Z" fill="#39334E"/>
<path d="M268.665 248.916L289.566 250.89L290.482 252.879L269.576 250.913L268.665 248.916Z" fill="#FDF8F2"/>
<path d="M271.408 249.547L273.963 249.757L274.53 250.986L271.968 250.77L271.408 249.547Z" fill="#39334E"/>
<path d="M285.051 250.816L287.599 251.034L288.167 252.263L285.604 252.047L285.051 250.816Z" fill="#39334E"/>
<path d="M264.16 239.037L285.061 241.011L285.977 243L265.071 241.034L264.16 239.037Z" fill="#FDF8F2"/>
<path d="M266.903 239.668L269.457 239.878L270.025 241.107L267.462 240.891L266.903 239.668Z" fill="#39334E"/>
<path d="M280.545 240.937L283.094 241.155L283.661 242.384L281.099 242.168L280.545 240.937Z" fill="#39334E"/>
<path d="M259.655 229.158L280.555 231.132L281.472 233.121L260.565 231.155L259.655 229.158Z" fill="#FDF8F2"/>
<path d="M262.398 229.789L264.952 230L265.519 231.228L262.957 231.012L262.398 229.789Z" fill="#39334E"/>
<path d="M276.04 231.058L278.588 231.276L279.156 232.505L276.593 232.289L276.04 231.058Z" fill="#39334E"/>
<path d="M255.15 219.279L276.05 221.253L276.967 223.242L256.06 221.276L255.15 219.279Z" fill="#FDF8F2"/>
<path d="M257.892 219.911L260.447 220.121L261.014 221.349L258.452 221.133L257.892 219.911Z" fill="#39334E"/>
<path d="M271.535 221.179L274.083 221.397L274.651 222.626L272.088 222.41L271.535 221.179Z" fill="#39334E"/>
<path d="M250.644 209.4L271.545 211.374L272.461 213.363L251.555 211.397L250.644 209.4Z" fill="#FDF8F2"/>
<path d="M253.387 210.032L255.941 210.242L256.509 211.47L253.946 211.254L253.387 210.032Z" fill="#39334E"/>
<path d="M267.03 211.3L269.578 211.518L270.145 212.747L267.583 212.531L267.03 211.3Z" fill="#39334E"/>
<path d="M246.139 199.521L267.039 201.495L267.956 203.485L247.049 201.518L246.139 199.521Z" fill="#FDF8F2"/>
<path d="M248.882 200.153L251.436 200.363L252.003 201.591L249.441 201.375L248.882 200.153Z" fill="#39334E"/>
<path d="M262.524 201.421L265.072 201.639L265.64 202.868L263.078 202.652L262.524 201.421Z" fill="#39334E"/>
<path d="M241.633 189.642L262.534 191.616L263.45 193.606L242.544 191.639L241.633 189.642Z" fill="#FDF8F2"/>
<path d="M244.376 190.274L246.931 190.484L247.498 191.712L244.936 191.496L244.376 190.274Z" fill="#39334E"/>
<path d="M258.019 191.542L260.567 191.76L261.135 192.989L258.572 192.773L258.019 191.542Z" fill="#39334E"/>
<path d="M237.128 179.763L258.029 181.737L258.945 183.727L238.039 181.76L237.128 179.763Z" fill="#FDF8F2"/>
<path d="M239.871 180.395L242.425 180.605L242.993 181.833L240.431 181.617L239.871 180.395Z" fill="#39334E"/>
<path d="M253.514 181.663L256.062 181.881L256.629 183.11L254.067 182.894L253.514 181.663Z" fill="#39334E"/>
<path d="M232.623 169.884L253.523 171.858L254.44 173.848L233.533 171.882L232.623 169.884Z" fill="#FDF8F2"/>
<path d="M235.366 170.516L237.92 170.726L238.488 171.954L235.925 171.739L235.366 170.516Z" fill="#39334E"/>
<path d="M249.008 171.784L251.557 172.002L252.124 173.231L249.562 173.015L249.008 171.784Z" fill="#39334E"/>
<path d="M228.118 160.005L249.018 161.979L249.935 163.969L229.028 162.003L228.118 160.005Z" fill="#FDF8F2"/>
<path d="M230.861 160.637L233.415 160.847L233.982 162.076L231.42 161.86L230.861 160.637Z" fill="#39334E"/>
<path d="M244.503 161.905L247.051 162.123L247.619 163.352L245.056 163.136L244.503 161.905Z" fill="#39334E"/>
<path d="M223.612 150.126L244.513 152.1L245.429 154.09L224.523 152.124L223.612 150.126Z" fill="#FDF8F2"/>
<path d="M226.355 150.758L228.909 150.968L229.477 152.197L226.914 151.981L226.355 150.758Z" fill="#39334E"/>
<path d="M239.998 152.026L242.546 152.244L243.113 153.473L240.551 153.257L239.998 152.026Z" fill="#39334E"/>
<path d="M219.107 140.247L240.008 142.222L240.924 144.211L220.018 142.245L219.107 140.247Z" fill="#FDF8F2"/>
<path d="M221.85 140.879L224.404 141.089L224.972 142.318L222.409 142.102L221.85 140.879Z" fill="#39334E"/>
<path d="M235.492 142.147L238.041 142.366L238.608 143.594L236.046 143.378L235.492 142.147Z" fill="#39334E"/>
<path d="M214.602 130.368L235.502 132.343L236.419 134.332L215.512 132.366L214.602 130.368Z" fill="#FDF8F2"/>
<path d="M217.345 131L219.899 131.21L220.466 132.439L217.904 132.223L217.345 131Z" fill="#39334E"/>
<path d="M230.987 132.268L233.535 132.487L234.103 133.715L231.54 133.499L230.987 132.268Z" fill="#39334E"/>
<path d="M210.096 120.489L230.997 122.464L231.913 124.453L211.007 122.487L210.096 120.489Z" fill="#FDF8F2"/>
<path d="M212.839 121.121L215.393 121.331L215.961 122.56L213.399 122.344L212.839 121.121Z" fill="#39334E"/>
<path d="M226.482 122.389L229.03 122.608L229.597 123.836L227.035 123.62L226.482 122.389Z" fill="#39334E"/>
<path d="M205.591 110.61L226.491 112.585L227.408 114.574L206.502 112.608L205.591 110.61Z" fill="#FDF8F2"/>
<path d="M208.334 111.242L210.888 111.452L211.456 112.681L208.893 112.465L208.334 111.242Z" fill="#39334E"/>
<path d="M221.976 112.51L224.525 112.729L225.092 113.957L222.53 113.741L221.976 112.51Z" fill="#39334E"/>
<path d="M201.086 100.731L221.986 102.706L222.903 104.695L201.996 102.729L201.086 100.731Z" fill="#FDF8F2"/>
<path d="M203.829 101.363L206.383 101.573L206.951 102.802L204.388 102.586L203.829 101.363Z" fill="#39334E"/>
<path d="M217.471 102.631L220.019 102.85L220.587 104.078L218.025 103.862L217.471 102.631Z" fill="#39334E"/>
<path d="M196.58 90.8523L217.481 92.8268L218.397 94.8161L197.491 92.8499L196.58 90.8523Z" fill="#FDF8F2"/>
<path d="M199.323 91.4842L201.878 91.6942L202.445 92.9229L199.883 92.7069L199.323 91.4842Z" fill="#39334E"/>
<path d="M212.966 92.7524L215.514 92.9708L216.082 94.1994L213.519 93.9835L212.966 92.7524Z" fill="#39334E"/>
<path d="M192.075 80.9734L212.976 82.9478L213.892 84.9371L192.986 82.971L192.075 80.9734Z" fill="#FDF8F2"/>
<path d="M194.818 81.6052L197.372 81.8153L197.94 83.0439L195.377 82.828L194.818 81.6052Z" fill="#39334E"/>
<path d="M208.46 82.8735L211.009 83.0919L211.576 84.3205L209.014 84.1045L208.46 82.8735Z" fill="#39334E"/>
<path d="M187.57 71.0944L208.47 73.0689L209.387 75.0582L188.48 73.092L187.57 71.0944Z" fill="#FDF8F2"/>
<path d="M190.313 71.7263L192.867 71.9364L193.434 73.165L190.872 72.949L190.313 71.7263Z" fill="#39334E"/>
<path d="M203.955 72.9945L206.503 73.2129L207.071 74.4415L204.508 74.2256L203.955 72.9945Z" fill="#39334E"/>
<path d="M183.065 61.2155L203.965 63.1899L204.882 65.1792L183.975 63.2131L183.065 61.2155Z" fill="#FDF8F2"/>
<path d="M185.808 61.8473L188.362 62.0574L188.929 63.286L186.367 63.0701L185.808 61.8473Z" fill="#39334E"/>
<path d="M199.45 63.1155L201.998 63.3339L202.566 64.5626L200.003 64.3466L199.45 63.1155Z" fill="#39334E"/>
<path d="M178.559 51.3365L199.46 53.311L200.376 55.3003L179.47 53.3341L178.559 51.3365Z" fill="#FDF8F2"/>
<path d="M181.302 51.9684L183.856 52.1784L184.424 53.4071L181.861 53.1911L181.302 51.9684Z" fill="#39334E"/>
<path d="M194.945 53.2366L197.493 53.455L198.06 54.6836L195.498 54.4677L194.945 53.2366Z" fill="#39334E"/>
<path d="M174.054 41.4576L194.954 43.432L195.871 45.4213L174.964 43.4552L174.054 41.4576Z" fill="#FDF8F2"/>
<path d="M176.797 42.0894L179.351 42.2995L179.919 43.5281L177.356 43.3122L176.797 42.0894Z" fill="#39334E"/>
<path d="M190.439 43.3577L192.987 43.5761L193.555 44.8047L190.993 44.5887L190.439 43.3577Z" fill="#39334E"/>
<path d="M169.549 31.5786L190.449 33.5531L191.366 35.5424L170.459 33.5762L169.549 31.5786Z" fill="#FDF8F2"/>
<path d="M172.292 32.2105L174.846 32.4206L175.413 33.6492L172.851 33.4332L172.292 32.2105Z" fill="#39334E"/>
<path d="M185.934 33.4787L188.482 33.6971L189.05 34.9257L186.487 34.7098L185.934 33.4787Z" fill="#39334E"/>
<path d="M165.043 21.6997L185.944 23.6741L186.86 25.6634L165.954 23.6973L165.043 21.6997Z" fill="#FDF8F2"/>
<path d="M167.786 22.3315L170.34 22.5416L170.908 23.7702L168.346 23.5543L167.786 22.3315Z" fill="#39334E"/>
<path d="M181.429 23.5997L183.977 23.8182L184.545 25.0468L181.982 24.8308L181.429 23.5997Z" fill="#39334E"/>
<path d="M160.538 11.8207L181.438 13.7952L182.355 15.7845L161.449 13.8183L160.538 11.8207Z" fill="#FDF8F2"/>
<path d="M163.281 12.4526L165.835 12.6627L166.403 13.8913L163.84 13.6753L163.281 12.4526Z" fill="#39334E"/>
<path d="M176.923 13.7208L179.472 13.9392L180.039 15.1678L177.477 14.9519L176.923 13.7208Z" fill="#39334E"/>
<path d="M304.847 328.209L325.754 330.175L326.664 332.173L305.764 330.198L304.847 328.209Z" fill="#FDF8F2"/>
<path d="M307.596 328.832L310.151 329.043L310.712 330.279L308.156 330.055L307.596 328.832Z" fill="#39334E"/>
<path d="M321.233 330.109L323.795 330.325L324.349 331.556L321.8 331.338L321.233 330.109Z" fill="#39334E"/>
<path d="M309.498 338.341L330.405 340.307L331.315 342.305L310.409 340.339L309.498 338.341Z" fill="#FDF8F2"/>
<path d="M312.247 338.965L314.804 339.189L315.363 340.412L312.815 340.194L312.247 338.965Z" fill="#39334E"/>
<path d="M325.884 340.241L328.44 340.466L329 341.688L326.451 341.47L325.884 340.241Z" fill="#39334E"/>
<path d="M314.149 348.474L335.05 350.448L335.975 352.443L315.068 350.477L314.149 348.474Z" fill="#FDF8F2"/>
<path d="M316.898 349.097L319.455 349.322L320.014 350.544L317.46 350.334L316.898 349.097Z" fill="#39334E"/>
<path d="M330.543 350.38L333.091 350.598L333.659 351.827L331.096 351.611L330.543 350.38Z" fill="#39334E"/>
<path d="M318.803 358.62L339.709 360.587L340.62 362.584L319.719 360.61L318.803 358.62Z" fill="#FDF8F2"/>
<path d="M321.551 359.244L324.106 359.454L324.667 360.691L322.111 360.467L321.551 359.244Z" fill="#39334E"/>
<path d="M335.188 360.52L337.742 360.731L338.304 361.968L335.747 361.743L335.188 360.52Z" fill="#39334E"/>
<path d="M323.453 368.753L344.36 370.719L345.27 372.717L324.364 370.75L323.453 368.753Z" fill="#FDF8F2"/>
<path d="M326.202 369.376L328.759 369.601L329.318 370.823L326.77 370.605L326.202 369.376Z" fill="#39334E"/>
<path d="M339.839 370.653L342.395 370.877L342.955 372.1L340.406 371.882L339.839 370.653Z" fill="#39334E"/>
<path d="M328.104 378.885L349.005 380.86L349.929 382.855L329.023 380.889L328.104 378.885Z" fill="#FDF8F2"/>
<path d="M330.853 379.509L333.41 379.733L333.969 380.956L331.415 380.746L330.853 379.509Z" fill="#39334E"/>
<path d="M344.489 380.785L347.046 381.01L347.605 382.232L345.051 382.022L344.489 380.785Z" fill="#39334E"/>
<path d="M332.749 389.026L353.656 390.992L354.574 392.996L333.674 391.021L332.749 389.026Z" fill="#FDF8F2"/>
<path d="M335.506 389.655L338.06 389.866L338.622 391.102L336.066 390.878L335.506 389.655Z" fill="#39334E"/>
<path d="M349.143 390.932L351.697 391.142L352.259 392.379L349.702 392.155L349.143 390.932Z" fill="#39334E"/>
<path d="M337.515 399.402L358.421 401.369L359.338 403.358L338.431 401.392L337.515 399.402Z" fill="#FDF8F2"/>
<path d="M340.264 400.026L342.818 400.236L343.385 401.465L340.823 401.249L340.264 400.026Z" fill="#39334E"/>
<path d="M353.9 401.303L356.454 401.513L357.022 402.741L354.459 402.525L353.9 401.303Z" fill="#39334E"/>
<path d="M342.166 409.535L363.072 411.501L363.983 413.499L343.076 411.533L342.166 409.535Z" fill="#FDF8F2"/>
<path d="M344.915 410.158L347.463 410.377L348.03 411.605L345.474 411.381L344.915 410.158Z" fill="#39334E"/>
<path d="M358.551 411.435L361.108 411.659L361.667 412.882L359.119 412.664L358.551 411.435Z" fill="#39334E"/>
<path d="M346.817 419.667L367.717 421.642L368.634 423.631L347.727 421.665L346.817 419.667Z" fill="#FDF8F2"/>
<path d="M349.565 420.291L352.122 420.515L352.681 421.738L350.127 421.528L349.565 420.291Z" fill="#39334E"/>
<path d="M363.202 421.567L365.758 421.792L366.318 423.014L363.764 422.804L363.202 421.567Z" fill="#39334E"/>
<path d="M351.461 429.808L372.368 431.774L373.293 433.769L352.386 431.803L351.461 429.808Z" fill="#FDF8F2"/>
<path d="M354.21 430.432L356.773 430.648L357.332 431.87L354.778 431.66L354.21 430.432Z" fill="#39334E"/>
<path d="M367.855 431.714L370.409 431.924L370.977 433.153L368.414 432.937L367.855 431.714Z" fill="#39334E"/>
<path d="M356.12 439.946L377.027 441.913L377.937 443.91L357.031 441.944L356.12 439.946Z" fill="#FDF8F2"/>
<path d="M358.869 440.57L361.418 440.788L361.985 442.017L359.429 441.793L358.869 440.57Z" fill="#39334E"/>
<path d="M372.506 441.847L375.054 442.065L375.622 443.294L373.065 443.069L372.506 441.847Z" fill="#39334E"/>
<path d="M360.878 450.317L381.784 452.283L382.695 454.281L361.788 452.315L360.878 450.317Z" fill="#FDF8F2"/>
<path d="M363.627 450.941L366.175 451.159L366.742 452.388L364.186 452.163L363.627 450.941Z" fill="#39334E"/>
<path d="M377.263 452.217L379.82 452.441L380.379 453.664L377.831 453.446L377.263 452.217Z" fill="#39334E"/>
<path d="M365.529 460.449L386.435 462.416L387.346 464.413L366.439 462.447L365.529 460.449Z" fill="#FDF8F2"/>
<path d="M368.278 461.073L370.834 461.297L371.393 462.52L368.845 462.302L368.278 461.073Z" fill="#39334E"/>
<path d="M381.914 462.35L384.471 462.574L385.03 463.797L382.482 463.578L381.914 462.35Z" fill="#39334E"/>
<path d="M370.174 470.59L391.08 472.556L392.005 474.552L371.098 472.585L370.174 470.59Z" fill="#FDF8F2"/>
<path d="M372.923 471.214L375.485 471.43L376.044 472.652L373.49 472.442L372.923 471.214Z" fill="#39334E"/>
<path d="M386.567 472.496L389.121 472.706L389.689 473.935L387.127 473.719L386.567 472.496Z" fill="#39334E"/>
<path d="M374.833 480.729L395.739 482.695L396.65 484.692L375.743 482.726L374.833 480.729Z" fill="#FDF8F2"/>
<path d="M377.582 481.352L380.13 481.57L380.698 482.799L378.141 482.575L377.582 481.352Z" fill="#39334E"/>
<path d="M391.218 482.629L393.766 482.847L394.334 484.076L391.777 483.851L391.218 482.629Z" fill="#39334E"/>
<path d="M379.484 490.861L400.39 492.827L401.301 494.825L380.394 492.859L379.484 490.861Z" fill="#FDF8F2"/>
<path d="M382.233 491.484L384.781 491.703L385.348 492.931L382.792 492.707L382.233 491.484Z" fill="#39334E"/>
<path d="M395.869 492.761L398.426 492.985L398.985 494.208L396.437 493.99L395.869 492.761Z" fill="#39334E"/>
<path d="M383.638 499.558L404.544 501.524L405.455 503.522L384.549 501.556L383.638 499.558Z" fill="#FDF8F2"/>
<path d="M399.93 501.457L402.487 501.682L403.046 502.904L400.498 502.686L399.93 501.457Z" fill="#39334E"/>
<path d="M386.387 500.182L388.935 500.4L389.503 501.629L386.946 501.404L386.387 500.182Z" fill="#39334E"/>
<path d="M401.492 503.834L176.842 11.7721L176.346 12.4714L400.99 504.541L401.492 503.834Z" fill="#C2B2B2"/>
<path d="M401.578 504.595L400.99 504.541L401.492 503.834L402.074 503.896L401.578 504.595Z" fill="#E5D7D6"/>
<path d="M401.492 503.834L176.842 11.7721L177.43 11.8259L402.074 503.896L401.492 503.834Z" fill="#FDF8F2"/>
<path d="M401.575 503.717L176.931 11.6472L176.748 11.9053L401.398 503.967L401.575 503.717Z" fill="#C2B2B2"/>
<path d="M402.259 504.04L401.398 503.967L401.575 503.717L402.437 503.79L402.259 504.04Z" fill="#E5D7D6"/>
<path d="M401.575 503.717L176.931 11.6472L177.795 11.7346L402.437 503.79L401.575 503.717Z" fill="#FDF8F2"/>
<path d="M391.003 505.953L164.617 10.9585L164.121 11.6578L390.507 506.653L391.003 505.953Z" fill="#C2B2B2"/>
<path d="M391.094 506.707L390.507 506.653L391.003 505.953L391.59 506.007L391.094 506.707Z" fill="#E5D7D6"/>
<path d="M391.003 505.953L164.617 10.9585L165.204 11.0123L391.59 506.007L391.003 505.953Z" fill="#FDF8F2"/>
<path d="M391.091 505.829L164.705 10.8336L164.528 11.0834L390.914 506.078L391.091 505.829Z" fill="#C2B2B2"/>
<path d="M391.778 506.166L390.914 506.078L391.091 505.829L391.955 505.916L391.778 506.166Z" fill="#E5D7D6"/>
<path d="M391.091 505.829L164.705 10.8336L165.561 10.9151L391.955 505.916L391.091 505.829Z" fill="#FDF8F2"/>
</g>
<g clip-path="url(#clip1_27_2)">
<path d="M474.15 698.279L495.05 700.253L495.967 702.242L475.06 700.276L474.15 698.279Z" fill="#FDF8F2"/>
<path d="M476.892 698.911L479.447 699.121L480.014 700.349L477.452 700.133L476.892 698.911Z" fill="#39334E"/>
<path d="M490.535 700.179L493.083 700.397L493.651 701.626L491.088 701.41L490.535 700.179Z" fill="#39334E"/>
<path d="M469.644 688.4L490.545 690.374L491.461 692.363L470.555 690.397L469.644 688.4Z" fill="#FDF8F2"/>
<path d="M472.387 689.032L474.941 689.242L475.509 690.47L472.946 690.254L472.387 689.032Z" fill="#39334E"/>
<path d="M486.03 690.3L488.578 690.518L489.145 691.747L486.583 691.531L486.03 690.3Z" fill="#39334E"/>
<path d="M465.139 678.521L486.039 680.495L486.956 682.485L466.049 680.518L465.139 678.521Z" fill="#FDF8F2"/>
<path d="M467.882 679.153L470.436 679.363L471.003 680.591L468.441 680.375L467.882 679.153Z" fill="#39334E"/>
<path d="M481.524 680.421L484.072 680.639L484.64 681.868L482.078 681.652L481.524 680.421Z" fill="#39334E"/>
<path d="M460.633 668.642L481.534 670.616L482.45 672.606L461.544 670.639L460.633 668.642Z" fill="#FDF8F2"/>
<path d="M463.376 669.274L465.931 669.484L466.498 670.712L463.936 670.496L463.376 669.274Z" fill="#39334E"/>
<path d="M477.019 670.542L479.567 670.76L480.135 671.989L477.572 671.773L477.019 670.542Z" fill="#39334E"/>
<path d="M456.128 658.763L477.029 660.737L477.945 662.727L457.039 660.76L456.128 658.763Z" fill="#FDF8F2"/>
<path d="M458.871 659.395L461.425 659.605L461.993 660.833L459.431 660.617L458.871 659.395Z" fill="#39334E"/>
<path d="M472.514 660.663L475.062 660.881L475.629 662.11L473.067 661.894L472.514 660.663Z" fill="#39334E"/>
<path d="M451.623 648.884L472.523 650.858L473.44 652.848L452.533 650.881L451.623 648.884Z" fill="#FDF8F2"/>
<path d="M454.366 649.516L456.92 649.726L457.488 650.954L454.925 650.738L454.366 649.516Z" fill="#39334E"/>
<path d="M468.008 650.784L470.557 651.002L471.124 652.231L468.562 652.015L468.008 650.784Z" fill="#39334E"/>
<path d="M447.118 639.005L468.018 640.979L468.935 642.969L448.028 641.003L447.118 639.005Z" fill="#FDF8F2"/>
<path d="M449.861 639.637L452.415 639.847L452.982 641.075L450.42 640.86L449.861 639.637Z" fill="#39334E"/>
<path d="M463.503 640.905L466.051 641.123L466.619 642.352L464.056 642.136L463.503 640.905Z" fill="#39334E"/>
<path d="M442.612 629.126L463.513 631.101L464.429 633.09L443.523 631.124L442.612 629.126Z" fill="#FDF8F2"/>
<path d="M445.355 629.758L447.91 629.968L448.477 631.197L445.915 630.981L445.355 629.758Z" fill="#39334E"/>
<path d="M458.998 631.026L461.546 631.245L462.114 632.473L459.551 632.257L458.998 631.026Z" fill="#39334E"/>
<path d="M438.107 619.247L459.008 621.222L459.924 623.211L439.018 621.245L438.107 619.247Z" fill="#FDF8F2"/>
<path d="M440.85 619.879L443.404 620.089L443.972 621.318L441.409 621.102L440.85 619.879Z" fill="#39334E"/>
<path d="M454.492 621.147L457.041 621.366L457.608 622.594L455.046 622.378L454.492 621.147Z" fill="#39334E"/>
<path d="M433.602 609.368L454.502 611.343L455.419 613.332L434.512 611.366L433.602 609.368Z" fill="#FDF8F2"/>
<path d="M436.345 610L438.899 610.21L439.466 611.439L436.904 611.223L436.345 610Z" fill="#39334E"/>
<path d="M449.987 611.268L452.535 611.487L453.103 612.715L450.54 612.499L449.987 611.268Z" fill="#39334E"/>
<path d="M429.096 599.489L449.997 601.464L450.913 603.453L430.007 601.487L429.096 599.489Z" fill="#FDF8F2"/>
<path d="M431.839 600.121L434.393 600.331L434.961 601.56L432.399 601.344L431.839 600.121Z" fill="#39334E"/>
<path d="M445.482 601.389L448.03 601.608L448.597 602.836L446.035 602.62L445.482 601.389Z" fill="#39334E"/>
<path d="M424.591 589.61L445.492 591.585L446.408 593.574L425.502 591.608L424.591 589.61Z" fill="#FDF8F2"/>
<path d="M427.334 590.242L429.888 590.452L430.456 591.681L427.893 591.465L427.334 590.242Z" fill="#39334E"/>
<path d="M440.977 591.51L443.525 591.729L444.092 592.957L441.53 592.741L440.977 591.51Z" fill="#39334E"/>
<path d="M420.086 579.731L440.986 581.706L441.903 583.695L420.996 581.729L420.086 579.731Z" fill="#FDF8F2"/>
<path d="M422.829 580.363L425.383 580.573L425.951 581.802L423.388 581.586L422.829 580.363Z" fill="#39334E"/>
<path d="M436.471 581.631L439.019 581.85L439.587 583.078L437.025 582.862L436.471 581.631Z" fill="#39334E"/>
<path d="M415.58 569.852L436.481 571.827L437.397 573.816L416.491 571.85L415.58 569.852Z" fill="#FDF8F2"/>
<path d="M418.323 570.484L420.878 570.694L421.445 571.923L418.883 571.707L418.323 570.484Z" fill="#39334E"/>
<path d="M431.966 571.752L434.514 571.971L435.082 573.199L432.519 572.983L431.966 571.752Z" fill="#39334E"/>
<path d="M411.075 559.973L431.976 561.948L432.892 563.937L411.986 561.971L411.075 559.973Z" fill="#FDF8F2"/>
<path d="M413.818 560.605L416.372 560.815L416.94 562.044L414.377 561.828L413.818 560.605Z" fill="#39334E"/>
<path d="M427.46 561.873L430.009 562.092L430.576 563.321L428.014 563.105L427.46 561.873Z" fill="#39334E"/>
<path d="M406.57 550.094L427.47 552.069L428.387 554.058L407.481 552.092L406.57 550.094Z" fill="#FDF8F2"/>
<path d="M409.313 550.726L411.867 550.936L412.435 552.165L409.872 551.949L409.313 550.726Z" fill="#39334E"/>
<path d="M422.955 551.995L425.504 552.213L426.071 553.442L423.509 553.226L422.955 551.995Z" fill="#39334E"/>
<path d="M402.065 540.215L422.965 542.19L423.882 544.179L402.975 542.213L402.065 540.215Z" fill="#FDF8F2"/>
<path d="M404.808 540.847L407.362 541.057L407.929 542.286L405.367 542.07L404.808 540.847Z" fill="#39334E"/>
<path d="M418.45 542.116L420.998 542.334L421.566 543.563L419.003 543.347L418.45 542.116Z" fill="#39334E"/>
<path d="M397.559 530.337L418.46 532.311L419.376 534.3L398.47 532.334L397.559 530.337Z" fill="#FDF8F2"/>
<path d="M400.302 530.968L402.856 531.178L403.424 532.407L400.861 532.191L400.302 530.968Z" fill="#39334E"/>
<path d="M413.945 532.237L416.493 532.455L417.06 533.684L414.498 533.468L413.945 532.237Z" fill="#39334E"/>
<path d="M393.054 520.458L413.954 522.432L414.871 524.421L393.964 522.455L393.054 520.458Z" fill="#FDF8F2"/>
<path d="M395.797 521.089L398.351 521.3L398.919 522.528L396.356 522.312L395.797 521.089Z" fill="#39334E"/>
<path d="M409.439 522.358L411.987 522.576L412.555 523.805L409.993 523.589L409.439 522.358Z" fill="#39334E"/>
<path d="M388.549 510.579L409.449 512.553L410.366 514.542L389.459 512.576L388.549 510.579Z" fill="#FDF8F2"/>
<path d="M391.292 511.21L393.846 511.421L394.413 512.649L391.851 512.433L391.292 511.21Z" fill="#39334E"/>
<path d="M404.934 512.479L407.482 512.697L408.05 513.926L405.487 513.71L404.934 512.479Z" fill="#39334E"/>
<path d="M493.056 701.543L401.496 503.801L401 504.5L492.554 702.251L493.056 701.543Z" fill="#C2B2B2"/>
<path d="M493.141 702.305L492.554 702.251L493.056 701.543L493.637 701.606L493.141 702.305Z" fill="#E5D7D6"/>
<path d="M493.056 701.543L401.496 503.801L402.084 503.855L493.637 701.606L493.056 701.543Z" fill="#FDF8F2"/>
<path d="M493.138 701.427L401.585 503.676L401.402 503.934L492.961 701.677L493.138 701.427Z" fill="#C2B2B2"/>
<path d="M493.823 701.75L492.961 701.677L493.138 701.427L494 701.5L493.823 701.75Z" fill="#E5D7D6"/>
<path d="M493.138 701.427L401.585 503.676L402.449 503.763L494 701.5L493.138 701.427Z" fill="#FDF8F2"/>
<path d="M479.909 700.703L391 505.957L390.504 506.656L479.413 701.403L479.909 700.703Z" fill="#C2B2B2"/>
<path d="M480 701.5L479.413 701.403L479.909 700.703L480.497 700.801L480 701.5Z" fill="#E5D7D6"/>
<path d="M479.909 700.703L391 505.957L391.588 506.054L480.497 700.801L479.909 700.703Z" fill="#FDF8F2"/>
<path d="M479.998 700.578L391.089 505.831L390.912 506.081L479.82 700.828L479.998 700.578Z" fill="#C2B2B2"/>
<path d="M480.685 700.959L479.82 700.828L479.998 700.578L480.862 700.709L480.685 700.959Z" fill="#E5D7D6"/>
<path d="M479.998 700.578L391.089 505.831L391.91 505.831L480.862 700.709L479.998 700.578Z" fill="#FDF8F2"/>
</g>
<defs>
<clipPath id="clip0_27_2">
<rect width="488.314" height="285.463" fill="white" transform="translate(165.17) rotate(35.3524)"/>
</clipPath>
<clipPath id="clip1_27_2">
<rect width="485.012" height="285.463" fill="white" transform="translate(384.17 479) rotate(35.3524)"/>
</clipPath>
</defs>
</svg>
