<svg width="359" height="354" viewBox="0 0 359 354" fill="none" xmlns="http://www.w3.org/2000/svg">
<g clip-path="url(#clip0_27_1034)">
<path d="M137.989 153.477L146.432 153.125L146.906 153.869L138.461 154.224L137.989 153.477Z" fill="#FDF8F2"/>
<path d="M139.117 153.579L140.147 153.524L140.44 153.983L139.407 154.036L139.117 153.579Z" fill="#39334E"/>
<path d="M144.627 153.341L145.655 153.29L145.949 153.749L144.915 153.802L144.627 153.341Z" fill="#39334E"/>
<path d="M135.653 149.782L144.096 149.431L144.57 150.174L136.125 150.529L135.653 149.782Z" fill="#FDF8F2"/>
<path d="M136.782 149.885L137.812 149.829L138.105 150.288L137.072 150.342L136.782 149.885Z" fill="#39334E"/>
<path d="M142.292 149.647L143.32 149.595L143.613 150.054L142.579 150.108L142.292 149.647Z" fill="#39334E"/>
<path d="M133.318 146.088L141.762 145.736L142.235 146.48L133.79 146.835L133.318 146.088Z" fill="#FDF8F2"/>
<path d="M134.447 146.19L135.477 146.135L135.77 146.594L134.736 146.647L134.447 146.19Z" fill="#39334E"/>
<path d="M139.957 145.953L140.985 145.901L141.278 146.36L140.244 146.413L139.957 145.953Z" fill="#39334E"/>
<path d="M130.983 142.393L139.426 142.042L139.9 142.785L131.455 143.14L130.983 142.393Z" fill="#FDF8F2"/>
<path d="M132.112 142.496L133.142 142.44L133.435 142.899L132.401 142.953L132.112 142.496Z" fill="#39334E"/>
<path d="M137.622 142.258L138.65 142.206L138.943 142.665L137.909 142.719L137.622 142.258Z" fill="#39334E"/>
<path d="M128.648 138.699L137.091 138.347L137.565 139.091L129.12 139.446L128.648 138.699Z" fill="#FDF8F2"/>
<path d="M129.776 138.801L130.806 138.746L131.1 139.205L130.066 139.258L129.776 138.801Z" fill="#39334E"/>
<path d="M135.286 138.564L136.315 138.512L136.608 138.971L135.574 139.025L135.286 138.564Z" fill="#39334E"/>
<path d="M126.313 135.004L134.756 134.653L135.23 135.396L126.785 135.751L126.313 135.004Z" fill="#FDF8F2"/>
<path d="M127.442 135.107L128.472 135.051L128.765 135.51L127.731 135.564L127.442 135.107Z" fill="#39334E"/>
<path d="M132.952 134.869L133.98 134.817L134.273 135.276L133.239 135.33L132.952 134.869Z" fill="#39334E"/>
<path d="M123.978 131.31L132.421 130.958L132.895 131.702L124.45 132.057L123.978 131.31Z" fill="#FDF8F2"/>
<path d="M125.106 131.413L126.136 131.357L126.43 131.816L125.396 131.87L125.106 131.413Z" fill="#39334E"/>
<path d="M130.616 131.175L131.644 131.123L131.937 131.582L130.904 131.636L130.616 131.175Z" fill="#39334E"/>
<path d="M121.643 127.615L130.086 127.264L130.56 128.007L122.115 128.363L121.643 127.615Z" fill="#FDF8F2"/>
<path d="M122.771 127.718L123.801 127.662L124.095 128.122L123.061 128.175L122.771 127.718Z" fill="#39334E"/>
<path d="M128.281 127.48L129.309 127.429L129.603 127.888L128.569 127.941L128.281 127.48Z" fill="#39334E"/>
<path d="M119.308 123.921L127.751 123.57L128.225 124.313L119.78 124.668L119.308 123.921Z" fill="#FDF8F2"/>
<path d="M120.436 124.024L121.466 123.968L121.759 124.427L120.726 124.481L120.436 124.024Z" fill="#39334E"/>
<path d="M125.946 123.786L126.974 123.734L127.268 124.193L126.234 124.247L125.946 123.786Z" fill="#39334E"/>
<path d="M116.973 120.227L125.416 119.875L125.89 120.619L117.445 120.974L116.973 120.227Z" fill="#FDF8F2"/>
<path d="M118.101 120.329L119.131 120.274L119.424 120.733L118.391 120.786L118.101 120.329Z" fill="#39334E"/>
<path d="M123.611 120.091L124.639 120.04L124.933 120.499L123.899 120.552L123.611 120.091Z" fill="#39334E"/>
<path d="M114.637 116.532L123.081 116.181L123.555 116.924L115.109 117.279L114.637 116.532Z" fill="#FDF8F2"/>
<path d="M115.766 116.635L116.796 116.579L117.09 117.038L116.056 117.092L115.766 116.635Z" fill="#39334E"/>
<path d="M121.276 116.397L122.304 116.345L122.597 116.804L121.564 116.858L121.276 116.397Z" fill="#39334E"/>
<path d="M112.303 112.838L120.746 112.486L121.22 113.23L112.775 113.585L112.303 112.838Z" fill="#FDF8F2"/>
<path d="M113.431 112.94L114.461 112.885L114.754 113.344L113.72 113.398L113.431 112.94Z" fill="#39334E"/>
<path d="M118.941 112.703L119.969 112.651L120.262 113.11L119.228 113.164L118.941 112.703Z" fill="#39334E"/>
<path d="M109.967 109.143L118.41 108.792L118.884 109.535L110.439 109.89L109.967 109.143Z" fill="#FDF8F2"/>
<path d="M111.096 109.246L112.126 109.191L112.419 109.65L111.385 109.703L111.096 109.246Z" fill="#39334E"/>
<path d="M116.606 109.008L117.634 108.957L117.927 109.416L116.893 109.469L116.606 109.008Z" fill="#39334E"/>
<path d="M107.632 105.449L116.075 105.098L116.549 105.841L108.104 106.196L107.632 105.449Z" fill="#FDF8F2"/>
<path d="M108.761 105.552L109.791 105.496L110.084 105.955L109.05 106.009L108.761 105.552Z" fill="#39334E"/>
<path d="M114.271 105.314L115.299 105.262L115.592 105.721L114.558 105.775L114.271 105.314Z" fill="#39334E"/>
<path d="M105.297 101.755L113.74 101.403L114.214 102.147L105.769 102.502L105.297 101.755Z" fill="#FDF8F2"/>
<path d="M106.426 101.857L107.456 101.802L107.749 102.261L106.715 102.314L106.426 101.857Z" fill="#39334E"/>
<path d="M111.935 101.619L112.963 101.568L113.257 102.027L112.223 102.08L111.935 101.619Z" fill="#39334E"/>
<path d="M102.962 98.0601L111.405 97.7087L111.879 98.4522L103.434 98.8072L102.962 98.0601Z" fill="#FDF8F2"/>
<path d="M104.091 98.1627L105.121 98.1073L105.414 98.5664L104.38 98.6199L104.091 98.1627Z" fill="#39334E"/>
<path d="M109.6 97.9252L110.628 97.8734L110.922 98.3325L109.888 98.386L109.6 97.9252Z" fill="#39334E"/>
<path d="M100.627 94.3657L109.07 94.0143L109.544 94.7577L101.099 95.1127L100.627 94.3657Z" fill="#FDF8F2"/>
<path d="M101.755 94.4681L102.785 94.4127L103.078 94.8718L102.045 94.9253L101.755 94.4681Z" fill="#39334E"/>
<path d="M107.265 94.2307L108.293 94.179L108.587 94.638L107.553 94.6915L107.265 94.2307Z" fill="#39334E"/>
<path d="M98.2918 90.6712L106.735 90.3198L107.209 91.0632L98.7638 91.4183L98.2918 90.6712Z" fill="#FDF8F2"/>
<path d="M99.4204 90.7739L100.45 90.7185L100.744 91.1776L99.7101 91.2311L99.4204 90.7739Z" fill="#39334E"/>
<path d="M104.93 90.5363L105.958 90.4845L106.252 90.9436L105.218 90.9971L104.93 90.5363Z" fill="#39334E"/>
<path d="M95.9566 86.9769L104.4 86.6255L104.874 87.3689L96.4286 87.724L95.9566 86.9769Z" fill="#FDF8F2"/>
<path d="M97.0849 87.0795L98.115 87.0241L98.4084 87.4831L97.3746 87.5366L97.0849 87.0795Z" fill="#39334E"/>
<path d="M102.595 86.8418L103.623 86.7901L103.916 87.2491L102.882 87.3026L102.595 86.8418Z" fill="#39334E"/>
<path d="M93.6216 83.2824L102.065 82.931L102.539 83.6745L94.0936 84.0295L93.6216 83.2824Z" fill="#FDF8F2"/>
<path d="M94.75 83.3849L95.7801 83.3295L96.0734 83.7886L95.0397 83.8421L94.75 83.3849Z" fill="#39334E"/>
<path d="M100.26 83.1472L101.288 83.0955L101.582 83.5545L100.548 83.608L100.26 83.1472Z" fill="#39334E"/>
<path d="M91.2862 79.588L99.7293 79.2366L100.203 79.98L91.7582 80.335L91.2862 79.588Z" fill="#FDF8F2"/>
<path d="M92.4145 79.6907L93.4446 79.6353L93.7379 80.0943L92.7042 80.1478L92.4145 79.6907Z" fill="#39334E"/>
<path d="M97.9245 79.4529L98.9527 79.4011L99.246 79.8602L98.2123 79.9137L97.9245 79.4529Z" fill="#39334E"/>
<path d="M88.9514 75.8936L97.3946 75.5422L97.8685 76.2857L89.4235 76.6407L88.9514 75.8936Z" fill="#FDF8F2"/>
<path d="M90.0798 75.9961L91.1099 75.9407L91.4032 76.3998L90.3695 76.4533L90.0798 75.9961Z" fill="#39334E"/>
<path d="M95.5898 75.7585L96.618 75.7068L96.9113 76.1659L95.8776 76.2194L95.5898 75.7585Z" fill="#39334E"/>
<path d="M86.6162 72.1992L95.0594 71.8478L95.5333 72.5912L87.0883 72.9462L86.6162 72.1992Z" fill="#FDF8F2"/>
<path d="M87.7446 72.3017L88.7747 72.2464L89.068 72.7054L88.0343 72.7589L87.7446 72.3017Z" fill="#39334E"/>
<path d="M93.2546 72.0641L94.2828 72.0123L94.5761 72.4714L93.5423 72.5249L93.2546 72.0641Z" fill="#39334E"/>
<path d="M84.281 68.5047L92.7241 68.1533L93.1981 68.8967L84.753 69.2518L84.281 68.5047Z" fill="#FDF8F2"/>
<path d="M85.4094 68.6074L86.4395 68.552L86.7328 69.0111L85.6991 69.0646L85.4094 68.6074Z" fill="#39334E"/>
<path d="M90.9191 68.3696L91.9473 68.3179L92.2406 68.777L91.2069 68.8304L90.9191 68.3696Z" fill="#39334E"/>
<path d="M81.9458 64.8104L90.3889 64.459L90.8629 65.2024L82.4178 65.5575L81.9458 64.8104Z" fill="#FDF8F2"/>
<path d="M83.0742 64.9128L84.1043 64.8574L84.3976 65.3165L83.3639 65.37L83.0742 64.9128Z" fill="#39334E"/>
<path d="M88.5844 64.6753L89.6126 64.6235L89.9059 65.0826L88.8722 65.1361L88.5844 64.6753Z" fill="#39334E"/>
<path d="M79.6109 61.1159L88.054 60.7645L88.5279 61.5079L80.0829 61.863L79.6109 61.1159Z" fill="#FDF8F2"/>
<path d="M80.7392 61.2184L81.7693 61.163L82.0626 61.622L81.0289 61.6755L80.7392 61.2184Z" fill="#39334E"/>
<path d="M86.249 60.9807L87.2771 60.929L87.5705 61.388L86.5367 61.4415L86.249 60.9807Z" fill="#39334E"/>
<path d="M77.2759 57.4215L85.719 57.0701L86.1929 57.8135L77.7479 58.1685L77.2759 57.4215Z" fill="#FDF8F2"/>
<path d="M78.4043 57.5239L79.4344 57.4685L79.7277 57.9276L78.694 57.9811L78.4043 57.5239Z" fill="#39334E"/>
<path d="M83.9142 57.2864L84.9424 57.2346L85.2357 57.6937L84.202 57.7472L83.9142 57.2864Z" fill="#39334E"/>
<path d="M74.9407 53.727L83.3838 53.3756L83.8577 54.119L75.4127 54.4741L74.9407 53.727Z" fill="#FDF8F2"/>
<path d="M76.0691 53.8295L77.0992 53.7741L77.3925 54.2331L76.3588 54.2866L76.0691 53.8295Z" fill="#39334E"/>
<path d="M81.5793 53.5919L82.6075 53.5402L82.9008 53.9992L81.8671 54.0527L81.5793 53.5919Z" fill="#39334E"/>
<path d="M72.6055 50.0327L81.0486 49.6813L81.5225 50.4247L73.0775 50.7797L72.6055 50.0327Z" fill="#FDF8F2"/>
<path d="M73.7339 50.1351L74.764 50.0797L75.0573 50.5388L74.0235 50.5923L73.7339 50.1351Z" fill="#39334E"/>
<path d="M79.2441 49.8976L80.2723 49.8458L80.5656 50.3049L79.5319 50.3584L79.2441 49.8976Z" fill="#39334E"/>
<path d="M70.2705 46.3382L78.7136 45.9868L79.1876 46.7302L70.7425 47.0853L70.2705 46.3382Z" fill="#FDF8F2"/>
<path d="M71.3992 46.4407L72.4292 46.3853L72.7226 46.8443L71.6888 46.8978L71.3992 46.4407Z" fill="#39334E"/>
<path d="M76.9089 46.2033L77.9371 46.1515L78.2304 46.6106L77.1966 46.6641L76.9089 46.2033Z" fill="#39334E"/>
<path d="M67.9353 42.6438L76.3784 42.2924L76.8524 43.0358L68.4073 43.3908L67.9353 42.6438Z" fill="#FDF8F2"/>
<path d="M69.0635 42.7463L70.0936 42.6909L70.3869 43.15L69.3531 43.2035L69.0635 42.7463Z" fill="#39334E"/>
<path d="M74.5734 42.5088L75.6016 42.457L75.8949 42.9161L74.8612 42.9696L74.5734 42.5088Z" fill="#39334E"/>
<path d="M65.6001 38.9493L74.0432 38.5979L74.5172 39.3413L66.0721 39.6964L65.6001 38.9493Z" fill="#FDF8F2"/>
<path d="M66.7287 39.052L67.7588 38.9966L68.0521 39.4557L67.0184 39.5092L66.7287 39.052Z" fill="#39334E"/>
<path d="M72.2387 38.8143L73.2669 38.7626L73.5602 39.2217L72.5265 39.2752L72.2387 38.8143Z" fill="#39334E"/>
<path d="M140.394 157.268L148.839 156.913L149.311 157.66L140.868 158.011L140.394 157.268Z" fill="#FDF8F2"/>
<path d="M141.524 157.367L142.554 157.311L142.846 157.774L141.814 157.824L141.524 157.367Z" fill="#39334E"/>
<path d="M147.032 157.133L148.066 157.079L148.353 157.54L147.325 157.592L147.032 157.133Z" fill="#39334E"/>
<path d="M142.8 161.055L151.245 160.7L151.717 161.447L143.272 161.802L142.8 161.055Z" fill="#FDF8F2"/>
<path d="M143.931 161.154L144.962 161.104L145.252 161.561L144.224 161.613L143.931 161.154Z" fill="#39334E"/>
<path d="M149.439 160.92L150.47 160.87L150.76 161.327L149.732 161.379L149.439 160.92Z" fill="#39334E"/>
<path d="M145.208 164.843L153.651 164.491L154.128 165.237L145.683 165.592L145.208 164.843Z" fill="#FDF8F2"/>
<path d="M146.338 164.942L147.37 164.892L147.66 165.349L146.629 165.404L146.338 164.942Z" fill="#39334E"/>
<path d="M151.85 164.71L152.878 164.658L153.171 165.117L152.137 165.171L151.85 164.71Z" fill="#39334E"/>
<path d="M147.616 168.636L156.061 168.281L156.533 169.028L148.09 169.379L147.616 168.636Z" fill="#FDF8F2"/>
<path d="M148.746 168.735L149.776 168.679L150.068 169.142L149.036 169.192L148.746 168.735Z" fill="#39334E"/>
<path d="M154.254 168.501L155.284 168.445L155.576 168.908L154.544 168.958L154.254 168.501Z" fill="#39334E"/>
<path d="M150.023 172.424L158.468 172.068L158.94 172.816L150.495 173.171L150.023 172.424Z" fill="#FDF8F2"/>
<path d="M151.153 172.522L152.185 172.472L152.475 172.93L151.447 172.981L151.153 172.522Z" fill="#39334E"/>
<path d="M156.661 172.288L157.693 172.238L157.983 172.696L156.955 172.747L156.661 172.288Z" fill="#39334E"/>
<path d="M152.43 176.211L160.873 175.86L161.351 176.605L152.906 176.96L152.43 176.211Z" fill="#FDF8F2"/>
<path d="M153.56 176.31L154.592 176.26L154.882 176.717L153.852 176.773L153.56 176.31Z" fill="#39334E"/>
<path d="M159.069 176.076L160.1 176.026L160.39 176.483L159.36 176.539L159.069 176.076Z" fill="#39334E"/>
<path d="M154.835 180.002L163.28 179.647L163.756 180.396L155.313 180.748L154.835 180.002Z" fill="#FDF8F2"/>
<path d="M155.969 180.103L156.999 180.048L157.29 180.511L156.259 180.56L155.969 180.103Z" fill="#39334E"/>
<path d="M161.477 179.869L162.507 179.814L162.799 180.277L161.767 180.327L161.477 179.869Z" fill="#39334E"/>
<path d="M157.301 183.881L165.746 183.526L166.22 184.269L157.775 184.624L157.301 183.881Z" fill="#FDF8F2"/>
<path d="M158.431 183.98L159.461 183.925L159.755 184.384L158.721 184.437L158.431 183.98Z" fill="#39334E"/>
<path d="M163.939 183.746L164.969 183.691L165.263 184.15L164.229 184.203L163.939 183.746Z" fill="#39334E"/>
<path d="M159.708 187.669L168.153 187.314L168.625 188.061L160.18 188.416L159.708 187.669Z" fill="#FDF8F2"/>
<path d="M160.838 187.768L161.867 187.716L162.16 188.175L161.128 188.225L160.838 187.768Z" fill="#39334E"/>
<path d="M166.347 187.534L167.378 187.484L167.668 187.941L166.64 187.993L166.347 187.534Z" fill="#39334E"/>
<path d="M162.115 191.456L170.558 191.105L171.032 191.848L162.587 192.203L162.115 191.456Z" fill="#FDF8F2"/>
<path d="M163.246 191.555L164.277 191.505L164.567 191.962L163.537 192.018L163.246 191.555Z" fill="#39334E"/>
<path d="M168.754 191.321L169.785 191.271L170.075 191.728L169.045 191.784L168.754 191.321Z" fill="#39334E"/>
<path d="M164.52 195.247L172.965 194.892L173.443 195.638L164.998 195.993L164.52 195.247Z" fill="#FDF8F2"/>
<path d="M165.651 195.346L166.684 195.293L166.974 195.75L165.944 195.805L165.651 195.346Z" fill="#39334E"/>
<path d="M171.162 195.114L172.192 195.059L172.486 195.518L171.452 195.571L171.162 195.114Z" fill="#39334E"/>
<path d="M166.931 199.037L175.376 198.682L175.848 199.429L167.403 199.784L166.931 199.037Z" fill="#FDF8F2"/>
<path d="M168.061 199.136L169.089 199.084L169.383 199.543L168.351 199.593L168.061 199.136Z" fill="#39334E"/>
<path d="M173.569 198.902L174.597 198.85L174.891 199.309L173.859 199.359L173.569 198.902Z" fill="#39334E"/>
<path d="M169.393 202.914L177.838 202.559L178.31 203.306L169.865 203.661L169.393 202.914Z" fill="#FDF8F2"/>
<path d="M170.523 203.012L171.552 202.961L171.845 203.42L170.813 203.47L170.523 203.012Z" fill="#39334E"/>
<path d="M176.031 202.779L177.063 202.729L177.353 203.186L176.325 203.238L176.031 202.779Z" fill="#39334E"/>
<path d="M171.8 206.701L180.245 206.346L180.717 207.093L172.272 207.448L171.8 206.701Z" fill="#FDF8F2"/>
<path d="M172.931 206.8L173.962 206.75L174.252 207.207L173.224 207.259L172.931 206.8Z" fill="#39334E"/>
<path d="M178.438 206.566L179.47 206.516L179.76 206.973L178.732 207.025L178.438 206.566Z" fill="#39334E"/>
<path d="M174.205 210.493L182.65 210.138L183.128 210.883L174.683 211.238L174.205 210.493Z" fill="#FDF8F2"/>
<path d="M175.336 210.592L176.369 210.538L176.659 210.995L175.629 211.051L175.336 210.592Z" fill="#39334E"/>
<path d="M180.848 210.359L181.878 210.304L182.171 210.763L181.137 210.817L180.848 210.359Z" fill="#39334E"/>
<path d="M176.616 214.282L185.061 213.927L185.533 214.674L177.088 215.029L176.616 214.282Z" fill="#FDF8F2"/>
<path d="M177.746 214.381L178.774 214.329L179.068 214.788L178.036 214.838L177.746 214.381Z" fill="#39334E"/>
<path d="M183.254 214.147L184.283 214.095L184.576 214.554L183.544 214.604L183.254 214.147Z" fill="#39334E"/>
<path d="M179.023 218.07L187.468 217.715L187.94 218.462L179.495 218.817L179.023 218.07Z" fill="#FDF8F2"/>
<path d="M180.153 218.169L181.181 218.117L181.475 218.576L180.443 218.626L180.153 218.169Z" fill="#39334E"/>
<path d="M185.661 217.935L186.693 217.885L186.983 218.342L185.955 218.394L185.661 217.935Z" fill="#39334E"/>
<path d="M181.154 221.312L189.599 220.957L190.071 221.704L181.626 222.059L181.154 221.312Z" fill="#FDF8F2"/>
<path d="M187.755 221.182L188.786 221.132L189.076 221.589L188.048 221.641L187.755 221.182Z" fill="#39334E"/>
<path d="M182.284 221.411L183.312 221.359L183.606 221.818L182.574 221.868L182.284 221.411Z" fill="#39334E"/>
<path d="M188.507 222.044L72.0999 38.0417L71.9401 38.3476L188.345 222.354L188.507 222.044Z" fill="#C2B2B2"/>
<path d="M188.583 222.343L188.345 222.354L188.507 222.044L188.742 222.037L188.583 222.343Z" fill="#E5D7D6"/>
<path d="M188.507 222.044L72.0999 38.0417L72.3371 38.0312L188.742 222.037L188.507 222.044Z" fill="#FDF8F2"/>
<path d="M188.534 221.993L72.1284 37.9871L72.0694 38.1L188.477 222.102L188.534 221.993Z" fill="#C2B2B2"/>
<path d="M188.824 222.085L188.477 222.102L188.534 221.993L188.881 221.975L188.824 222.085Z" fill="#E5D7D6"/>
<path d="M188.534 221.993L72.1284 37.9871L72.4778 37.9748L188.881 221.975L188.534 221.993Z" fill="#FDF8F2"/>
<path d="M184.439 223.461L67.1797 38.3834L67.0199 38.6893L184.279 223.767L184.439 223.461Z" fill="#C2B2B2"/>
<path d="M184.517 223.757L184.279 223.767L184.439 223.461L184.676 223.451L184.517 223.757Z" fill="#E5D7D6"/>
<path d="M184.439 223.461L67.1797 38.3834L67.4169 38.3728L184.676 223.451L184.439 223.461Z" fill="#FDF8F2"/>
<path d="M184.468 223.407L67.2082 38.3287L67.1512 38.438L184.411 223.516L184.468 223.407Z" fill="#C2B2B2"/>
<path d="M184.76 223.504L184.411 223.516L184.468 223.407L184.817 223.394L184.76 223.504Z" fill="#E5D7D6"/>
<path d="M184.468 223.407L67.2082 38.3287L67.5539 38.3146L184.817 223.394L184.468 223.407Z" fill="#FDF8F2"/>
</g>
<g clip-path="url(#clip1_27_1034)">
<path d="M228.072 295.637L236.515 295.286L236.989 296.029L228.544 296.384L228.072 295.637Z" fill="#FDF8F2"/>
<path d="M229.2 295.74L230.231 295.684L230.524 296.143L229.49 296.197L229.2 295.74Z" fill="#39334E"/>
<path d="M234.71 295.502L235.738 295.45L236.032 295.91L234.998 295.963L234.71 295.502Z" fill="#39334E"/>
<path d="M225.737 291.943L234.18 291.591L234.654 292.335L226.209 292.69L225.737 291.943Z" fill="#FDF8F2"/>
<path d="M226.865 292.045L227.895 291.99L228.189 292.449L227.155 292.502L226.865 292.045Z" fill="#39334E"/>
<path d="M232.375 291.807L233.403 291.756L233.697 292.215L232.663 292.268L232.375 291.807Z" fill="#39334E"/>
<path d="M223.402 288.248L231.845 287.897L232.319 288.64L223.874 288.995L223.402 288.248Z" fill="#FDF8F2"/>
<path d="M224.53 288.351L225.56 288.295L225.853 288.754L224.819 288.808L224.53 288.351Z" fill="#39334E"/>
<path d="M230.04 288.113L231.068 288.061L231.361 288.52L230.328 288.574L230.04 288.113Z" fill="#39334E"/>
<path d="M221.066 284.554L229.51 284.202L229.983 284.946L221.538 285.301L221.066 284.554Z" fill="#FDF8F2"/>
<path d="M222.195 284.656L223.225 284.601L223.518 285.06L222.485 285.113L222.195 284.656Z" fill="#39334E"/>
<path d="M227.705 284.419L228.733 284.367L229.027 284.826L227.993 284.88L227.705 284.419Z" fill="#39334E"/>
<path d="M218.731 280.859L227.174 280.508L227.648 281.251L219.203 281.606L218.731 280.859Z" fill="#FDF8F2"/>
<path d="M219.859 280.962L220.889 280.906L221.183 281.365L220.149 281.419L219.859 280.962Z" fill="#39334E"/>
<path d="M225.37 280.724L226.398 280.672L226.691 281.132L225.657 281.185L225.37 280.724Z" fill="#39334E"/>
<path d="M216.396 277.165L224.839 276.813L225.313 277.557L216.868 277.912L216.396 277.165Z" fill="#FDF8F2"/>
<path d="M217.525 277.268L218.555 277.212L218.848 277.671L217.815 277.725L217.525 277.268Z" fill="#39334E"/>
<path d="M223.035 277.03L224.063 276.978L224.356 277.437L223.322 277.491L223.035 277.03Z" fill="#39334E"/>
<path d="M214.061 273.471L222.504 273.119L222.978 273.863L214.533 274.218L214.061 273.471Z" fill="#FDF8F2"/>
<path d="M215.19 273.573L216.22 273.518L216.513 273.977L215.479 274.03L215.19 273.573Z" fill="#39334E"/>
<path d="M220.699 273.335L221.728 273.284L222.021 273.743L220.987 273.796L220.699 273.335Z" fill="#39334E"/>
<path d="M211.726 269.776L220.169 269.425L220.643 270.168L212.198 270.523L211.726 269.776Z" fill="#FDF8F2"/>
<path d="M212.854 269.879L213.885 269.823L214.178 270.282L213.144 270.336L212.854 269.879Z" fill="#39334E"/>
<path d="M218.365 269.641L219.393 269.589L219.686 270.048L218.652 270.102L218.365 269.641Z" fill="#39334E"/>
<path d="M209.391 266.082L217.834 265.73L218.308 266.474L209.863 266.829L209.391 266.082Z" fill="#FDF8F2"/>
<path d="M210.52 266.184L211.55 266.129L211.843 266.588L210.809 266.641L210.52 266.184Z" fill="#39334E"/>
<path d="M216.029 265.947L217.057 265.895L217.351 266.354L216.317 266.407L216.029 265.947Z" fill="#39334E"/>
<path d="M207.056 262.387L215.499 262.036L215.973 262.779L207.528 263.134L207.056 262.387Z" fill="#FDF8F2"/>
<path d="M208.184 262.49L209.214 262.434L209.507 262.893L208.474 262.947L208.184 262.49Z" fill="#39334E"/>
<path d="M213.694 262.252L214.722 262.2L215.016 262.66L213.982 262.713L213.694 262.252Z" fill="#39334E"/>
<path d="M204.721 258.693L213.164 258.341L213.638 259.085L205.193 259.44L204.721 258.693Z" fill="#FDF8F2"/>
<path d="M205.849 258.795L206.879 258.74L207.173 259.199L206.139 259.252L205.849 258.795Z" fill="#39334E"/>
<path d="M211.359 258.558L212.387 258.506L212.681 258.965L211.647 259.019L211.359 258.558Z" fill="#39334E"/>
<path d="M202.386 254.998L210.829 254.647L211.303 255.39L202.858 255.745L202.386 254.998Z" fill="#FDF8F2"/>
<path d="M203.514 255.101L204.544 255.045L204.837 255.504L203.804 255.558L203.514 255.101Z" fill="#39334E"/>
<path d="M209.024 254.863L210.052 254.812L210.345 255.271L209.312 255.324L209.024 254.863Z" fill="#39334E"/>
<path d="M200.05 251.304L208.493 250.953L208.967 251.696L200.522 252.051L200.05 251.304Z" fill="#FDF8F2"/>
<path d="M201.179 251.406L202.209 251.351L202.502 251.81L201.469 251.864L201.179 251.406Z" fill="#39334E"/>
<path d="M206.689 251.169L207.717 251.117L208.01 251.576L206.977 251.63L206.689 251.169Z" fill="#39334E"/>
<path d="M197.715 247.609L206.158 247.258L206.632 248.001L198.187 248.357L197.715 247.609Z" fill="#FDF8F2"/>
<path d="M198.844 247.712L199.874 247.657L200.167 248.116L199.133 248.169L198.844 247.712Z" fill="#39334E"/>
<path d="M204.353 247.474L205.382 247.423L205.675 247.882L204.641 247.935L204.353 247.474Z" fill="#39334E"/>
<path d="M195.38 243.915L203.823 243.564L204.297 244.307L195.852 244.662L195.38 243.915Z" fill="#FDF8F2"/>
<path d="M196.509 244.018L197.539 243.962L197.832 244.421L196.798 244.475L196.509 244.018Z" fill="#39334E"/>
<path d="M202.018 243.78L203.047 243.729L203.34 244.188L202.306 244.241L202.018 243.78Z" fill="#39334E"/>
<path d="M193.045 240.221L201.488 239.869L201.962 240.613L193.517 240.968L193.045 240.221Z" fill="#FDF8F2"/>
<path d="M194.174 240.323L195.204 240.268L195.497 240.727L194.463 240.78L194.174 240.323Z" fill="#39334E"/>
<path d="M199.684 240.085L200.712 240.034L201.005 240.493L199.972 240.546L199.684 240.085Z" fill="#39334E"/>
<path d="M190.71 236.526L199.153 236.175L199.627 236.918L191.182 237.273L190.71 236.526Z" fill="#FDF8F2"/>
<path d="M191.839 236.629L192.869 236.573L193.162 237.032L192.128 237.086L191.839 236.629Z" fill="#39334E"/>
<path d="M197.348 236.391L198.377 236.339L198.67 236.798L197.636 236.852L197.348 236.391Z" fill="#39334E"/>
<path d="M188.375 232.832L196.818 232.48L197.292 233.224L188.847 233.579L188.375 232.832Z" fill="#FDF8F2"/>
<path d="M189.503 232.934L190.533 232.879L190.827 233.338L189.793 233.392L189.503 232.934Z" fill="#39334E"/>
<path d="M195.013 232.697L196.042 232.645L196.335 233.104L195.301 233.158L195.013 232.697Z" fill="#39334E"/>
<path d="M186.04 229.137L194.483 228.786L194.957 229.529L186.512 229.884L186.04 229.137Z" fill="#FDF8F2"/>
<path d="M187.168 229.24L188.198 229.185L188.492 229.644L187.458 229.697L187.168 229.24Z" fill="#39334E"/>
<path d="M192.678 229.002L193.706 228.951L194 229.41L192.966 229.463L192.678 229.002Z" fill="#39334E"/>
<path d="M183.705 225.443L192.148 225.092L192.622 225.835L184.177 226.19L183.705 225.443Z" fill="#FDF8F2"/>
<path d="M184.833 225.546L185.863 225.49L186.157 225.949L185.123 226.003L184.833 225.546Z" fill="#39334E"/>
<path d="M190.343 225.308L191.371 225.256L191.665 225.715L190.631 225.769L190.343 225.308Z" fill="#39334E"/>
<path d="M235.79 295.909L188.499 222.034L188.34 222.34L235.628 296.218L235.79 295.909Z" fill="#C2B2B2"/>
<path d="M235.866 296.208L235.628 296.218L235.79 295.909L236.025 295.902L235.866 296.208Z" fill="#E5D7D6"/>
<path d="M235.79 295.909L188.499 222.034L188.737 222.024L236.025 295.902L235.79 295.909Z" fill="#FDF8F2"/>
<path d="M235.817 295.858L188.528 221.98L188.469 222.093L235.76 295.967L235.817 295.858Z" fill="#C2B2B2"/>
<path d="M236.107 295.949L235.76 295.967L235.817 295.858L236.164 295.84L236.107 295.949Z" fill="#E5D7D6"/>
<path d="M235.817 295.858L188.528 221.98L188.877 221.967L236.164 295.84L235.817 295.858Z" fill="#FDF8F2"/>
<path d="M230.501 296.29L184.431 223.466L184.271 223.772L230.341 296.596L230.501 296.29Z" fill="#C2B2B2"/>
<path d="M230.581 296.603L230.341 296.596L230.501 296.29L230.741 296.297L230.581 296.603Z" fill="#E5D7D6"/>
<path d="M230.501 296.29L184.431 223.466L184.67 223.473L230.741 296.297L230.501 296.29Z" fill="#FDF8F2"/>
<path d="M230.529 296.235L184.459 223.411L184.402 223.521L230.472 296.345L230.529 296.235Z" fill="#C2B2B2"/>
<path d="M230.824 296.35L230.472 296.345L230.529 296.235L230.881 296.241L230.824 296.35Z" fill="#E5D7D6"/>
<path d="M230.529 296.235L184.459 223.411L184.787 223.367L230.881 296.241L230.529 296.235Z" fill="#FDF8F2"/>
</g>
<defs>
<clipPath id="clip0_27_1034">
<rect width="196.558" height="114.906" fill="white" transform="translate(66.8032 33.9827) rotate(27.5724)"/>
</clipPath>
<clipPath id="clip1_27_1034">
<rect width="195.229" height="114.906" fill="white" transform="translate(180.238 213.088) rotate(27.5724)"/>
</clipPath>
</defs>
</svg>
